<svg xmlns="http://www.w3.org/2000/svg" xmlns:xlink="http://www.w3.org/1999/xlink" width="1080" zoomAndPan="magnify" viewBox="0 0 810 809.999993" height="1080" preserveAspectRatio="xMidYMid meet" version="1.0"><defs><g/><clipPath id="36021f9ef6"><path d="M 96 538 L 714 538 L 714 755.726562 L 96 755.726562 Z M 96 538 " clip-rule="nonzero"/></clipPath><clipPath id="c41f58005a"><path d="M 221 169.976562 L 589 169.976562 L 589 275 L 221 275 Z M 221 169.976562 " clip-rule="nonzero"/></clipPath><clipPath id="94db378525"><path d="M 78.386719 296 L 731.636719 296 L 731.636719 563 L 78.386719 563 Z M 78.386719 296 " clip-rule="nonzero"/></clipPath><clipPath id="32e00e57d9"><path d="M 0.359375 0 L 140 0 L 140 286.558594 L 0.359375 286.558594 Z M 0.359375 0 " clip-rule="nonzero"/></clipPath><clipPath id="2dc7c66fdd"><rect x="0" width="140" y="0" height="287"/></clipPath><clipPath id="22d6f82aad"><rect x="0" width="141" y="0" height="202"/></clipPath><clipPath id="bff7175752"><path d="M 217 24 L 361.078125 24 L 361.078125 245 L 217 245 Z M 217 24 " clip-rule="nonzero"/></clipPath><clipPath id="021709f0ec"><rect x="0" width="145" y="0" height="221"/></clipPath><clipPath id="5886071074"><rect x="0" width="362" y="0" height="287"/></clipPath></defs><g clip-path="url(#36021f9ef6)"><path fill="#ffffff" d="M 211.007812 587.488281 C 165.867188 587.488281 125.183594 568.675781 96.148438 538.550781 L 96.148438 692.792969 C 96.148438 727.378906 124.183594 755.414062 158.769531 755.414062 L 651.21875 755.414062 C 685.804688 755.414062 713.839844 727.378906 713.839844 692.792969 L 713.839844 538.550781 C 684.804688 568.671875 644.121094 587.488281 598.980469 587.488281 L 471.1875 587.488281 L 471.1875 634.246094 C 471.1875 648.628906 459.53125 660.285156 445.148438 660.285156 L 364.839844 660.285156 C 350.460938 660.285156 338.800781 648.628906 338.800781 634.246094 L 338.800781 587.488281 Z M 211.007812 587.488281 " fill-opacity="1" fill-rule="nonzero"/></g><path fill="#ffffff" d="M 375.722656 635.203125 L 434.265625 635.203125 C 440.804688 635.203125 446.105469 629.902344 446.105469 623.367188 L 446.105469 528.96875 C 446.105469 522.429688 440.804688 517.128906 434.265625 517.128906 L 375.722656 517.128906 C 369.183594 517.128906 363.882812 522.429688 363.882812 528.96875 L 363.882812 623.367188 C 363.882812 629.90625 369.183594 635.203125 375.722656 635.203125 Z M 375.722656 635.203125 " fill-opacity="1" fill-rule="nonzero"/><g clip-path="url(#c41f58005a)"><path fill="#ffffff" d="M 486.472656 169.976562 L 323.515625 169.976562 C 291.546875 169.976562 265.636719 195.890625 265.636719 227.855469 L 265.636719 245.582031 C 265.636719 249.238281 262.675781 252.203125 259.019531 252.203125 L 243.992188 252.203125 C 231.667969 252.203125 221.683594 262.183594 221.660156 274.5 L 315.804688 274.5 L 315.804688 227.855469 C 315.804688 223.601562 319.261719 220.144531 323.511719 220.144531 L 486.472656 220.144531 C 490.722656 220.144531 494.183594 223.601562 494.183594 227.855469 L 494.183594 274.5 L 588.328125 274.5 C 588.304688 262.183594 578.316406 252.203125 565.992188 252.203125 L 550.96875 252.203125 C 547.3125 252.203125 544.347656 249.238281 544.347656 245.582031 L 544.347656 227.855469 C 544.351562 195.890625 518.441406 169.976562 486.472656 169.976562 Z M 486.472656 169.976562 " fill-opacity="1" fill-rule="nonzero"/></g><g clip-path="url(#94db378525)"><path fill="#ffffff" d="M 676.738281 296.238281 L 133.25 296.238281 C 103.234375 296.238281 78.902344 320.570312 78.902344 350.585938 L 78.902344 423.609375 C 78.902344 508.269531 147.53125 562.40625 232.191406 562.40625 L 338.800781 562.40625 L 338.800781 518.089844 C 338.800781 503.707031 350.457031 492.050781 364.839844 492.050781 L 445.148438 492.050781 C 459.53125 492.050781 471.191406 503.707031 471.191406 518.089844 L 471.191406 562.40625 L 577.796875 562.40625 C 662.457031 562.40625 731.089844 508.269531 731.089844 423.609375 L 731.089844 350.585938 C 731.085938 320.570312 706.753906 296.238281 676.738281 296.238281 Z M 676.738281 296.238281 " fill-opacity="1" fill-rule="nonzero"/></g><g transform="matrix(1, 0, 0, 1, 195, 0.000000000000039746)"><g clip-path="url(#5886071074)"><g clip-path="url(#32e00e57d9)"><g transform="matrix(1, 0, 0, 1, 0, 0.000000000000039746)"><g clip-path="url(#2dc7c66fdd)"><g fill="#ffffff" fill-opacity="1"><g transform="translate(0.446727, 226.979123)"><g><path d="M 104.1875 -184.46875 C 110.726562 -184.46875 115.550781 -183.921875 118.65625 -182.828125 C 121.757812 -181.734375 123.984375 -179.929688 125.328125 -177.421875 C 127.171875 -173.554688 128.09375 -168.351562 128.09375 -161.8125 L 128.09375 -64.421875 C 128.09375 -46.804688 121.71875 -31.242188 108.96875 -17.734375 C 96.21875 -4.234375 79.941406 2.515625 60.140625 2.515625 C 49.066406 2.515625 39.253906 0.0820312 30.703125 -4.78125 C 22.984375 -8.976562 17.613281 -12.753906 14.59375 -16.109375 L 12.578125 -18.125 C 6.710938 -24.332031 3.78125 -29.65625 3.78125 -34.09375 C 3.78125 -38.539062 6.710938 -43.785156 12.578125 -49.828125 C 18.453125 -55.867188 23.65625 -58.890625 28.1875 -58.890625 C 32.71875 -58.890625 37.75 -56.117188 43.28125 -50.578125 C 48.820312 -45.046875 54.820312 -42.28125 61.28125 -42.28125 C 67.738281 -42.28125 73.0625 -44.457031 77.25 -48.8125 C 81.445312 -53.175781 83.546875 -58.96875 83.546875 -66.1875 L 83.546875 -160.3125 C 83.546875 -170.375 85.222656 -176.832031 88.578125 -179.6875 C 92.441406 -182.875 97.644531 -184.46875 104.1875 -184.46875 Z M 104.1875 -184.46875 "/></g></g></g></g></g></g><g transform="matrix(1, 0, 0, 1, 114, 50)"><g clip-path="url(#22d6f82aad)"><g fill="#ffffff" fill-opacity="1"><g transform="translate(0.221707, 137.837011)"><g><path d="M 70.09375 -133.9375 C 79.488281 -133.9375 88.3125 -132.15625 96.5625 -128.59375 C 104.820312 -125.039062 112.070312 -120.140625 118.3125 -113.890625 C 124.5625 -107.648438 129.460938 -100.398438 133.015625 -92.140625 C 136.578125 -83.878906 138.359375 -75.050781 138.359375 -65.65625 C 138.359375 -56.257812 136.578125 -47.429688 133.015625 -39.171875 C 129.460938 -30.910156 124.5625 -23.625 118.3125 -17.3125 C 112.070312 -11.007812 104.820312 -6.078125 96.5625 -2.515625 C 88.3125 1.035156 79.488281 2.8125 70.09375 2.8125 C 60.6875 2.8125 51.820312 1.035156 43.5 -2.515625 C 35.175781 -6.078125 27.890625 -11.007812 21.640625 -17.3125 C 15.398438 -23.625 10.5 -30.910156 6.9375 -39.171875 C 3.382812 -47.429688 1.609375 -56.257812 1.609375 -65.65625 C 1.609375 -75.050781 3.382812 -83.878906 6.9375 -92.140625 C 10.5 -100.398438 15.398438 -107.648438 21.640625 -113.890625 C 27.890625 -120.140625 35.175781 -125.039062 43.5 -128.59375 C 51.820312 -132.15625 60.6875 -133.9375 70.09375 -133.9375 Z M 66.671875 -76.734375 C 61.703125 -76.734375 57.804688 -74.71875 54.984375 -70.6875 L 54.984375 -126.28125 C 48.535156 -124.269531 43.296875 -120.976562 39.265625 -116.40625 C 35.242188 -111.84375 32.359375 -106.570312 30.609375 -100.59375 C 28.867188 -94.625 28.363281 -88.550781 29.09375 -82.375 C 29.832031 -76.195312 31.679688 -70.457031 34.640625 -65.15625 C 37.597656 -59.851562 41.757812 -55.554688 47.125 -52.265625 C 52.5 -48.972656 59.015625 -47.328125 66.671875 -47.328125 C 70.691406 -47.328125 74.144531 -48.738281 77.03125 -51.5625 C 79.925781 -54.382812 81.375 -57.875 81.375 -62.03125 C 81.375 -66.0625 79.925781 -69.519531 77.03125 -72.40625 C 74.144531 -75.289062 70.691406 -76.734375 66.671875 -76.734375 Z M 66.671875 -76.734375 "/></g></g></g></g></g><g clip-path="url(#bff7175752)"><g transform="matrix(1, 0, 0, 1, 217, 24)"><g clip-path="url(#021709f0ec)"><g fill="#ffffff" fill-opacity="1"><g transform="translate(0.305364, 150.588122)"><g><path d="M 99.625 -143.265625 C 108.4375 -143.265625 115.523438 -141.316406 120.890625 -137.421875 C 126.253906 -133.523438 129.960938 -128.601562 132.015625 -122.65625 C 134.078125 -116.707031 134.59375 -110.535156 133.5625 -104.140625 C 132.53125 -97.742188 130.03125 -92.007812 126.0625 -86.9375 C 122.101562 -81.875 116.742188 -78.316406 109.984375 -76.265625 C 117.035156 -74.347656 122.875 -71.148438 127.5 -66.671875 C 132.132812 -62.191406 135.515625 -57.085938 137.640625 -51.359375 C 139.773438 -45.628906 140.617188 -39.785156 140.171875 -33.828125 C 139.734375 -27.878906 138.007812 -22.367188 135 -17.296875 C 131.988281 -12.234375 127.65625 -8.117188 122 -4.953125 C 116.34375 -1.796875 109.328125 -0.21875 100.953125 -0.21875 L 6.609375 -0.21875 L 6.609375 -143.265625 Z M 60.390625 -78.6875 C 65.828125 -79.863281 70.195312 -82.472656 73.5 -86.515625 C 76.8125 -90.554688 79.050781 -95.253906 80.21875 -100.609375 C 81.394531 -105.972656 81.429688 -111.375 80.328125 -116.8125 C 79.234375 -122.25 77.03125 -126.988281 73.71875 -131.03125 C 70.414062 -135.070312 65.972656 -137.679688 60.390625 -138.859375 Z M 82.875 -41 C 82.726562 -48.34375 80.5625 -54.804688 76.375 -60.390625 C 72.1875 -65.972656 66.859375 -69.867188 60.390625 -72.078125 C 60.390625 -65.609375 60.390625 -59.140625 60.390625 -52.671875 C 60.390625 -46.210938 60.460938 -39.75 60.609375 -33.28125 C 57.378906 -32.988281 54.660156 -31.664062 52.453125 -29.3125 C 50.253906 -26.957031 49.15625 -24.164062 49.15625 -20.9375 C 49.15625 -17.414062 50.398438 -14.441406 52.890625 -12.015625 C 55.390625 -9.585938 58.332031 -8.375 61.71875 -8.375 C 66.5625 -8.375 70.5625 -10.097656 73.71875 -13.546875 C 76.882812 -17.003906 79.238281 -21.265625 80.78125 -26.328125 C 82.320312 -31.398438 83.019531 -36.289062 82.875 -41 Z M 82.875 -41 "/></g></g></g></g></g></g></g></g></svg>