<svg xmlns="http://www.w3.org/2000/svg" xmlns:xlink="http://www.w3.org/1999/xlink" width="1080" zoomAndPan="magnify" viewBox="0 0 810 809.999993" height="1080" preserveAspectRatio="xMidYMid meet" version="1.0"><defs><g/><clipPath id="bb50bee6be"><path d="M 224 148.527344 L 591 148.527344 L 591 254 L 224 254 Z M 224 148.527344 " clip-rule="nonzero"/></clipPath><clipPath id="f911161707"><path d="M 0 0 L 139 0 L 139 264.960938 L 0 264.960938 Z M 0 0 " clip-rule="nonzero"/></clipPath><clipPath id="542765afb0"><rect x="0" width="139" y="0" height="265"/></clipPath><clipPath id="041400c47b"><rect x="0" width="142" y="0" height="203"/></clipPath><clipPath id="a959f7d6dc"><path d="M 216 2 L 360.71875 2 L 360.71875 224 L 216 224 Z M 216 2 " clip-rule="nonzero"/></clipPath><clipPath id="c8d1b7f739"><rect x="0" width="145" y="0" height="222"/></clipPath><clipPath id="b7adacc24d"><rect x="0" width="361" y="0" height="265"/></clipPath><clipPath id="f04771a2f4"><rect x="0" width="214" y="0" height="79"/></clipPath></defs><path fill="#ffffff" d="M 213.621094 566.039062 C 168.480469 566.039062 127.796875 547.222656 98.761719 517.097656 L 98.761719 671.339844 C 98.761719 705.925781 126.796875 733.964844 161.382812 733.964844 L 653.832031 733.964844 C 688.417969 733.964844 716.453125 705.925781 716.453125 671.339844 L 716.453125 517.097656 C 687.417969 547.222656 646.734375 566.039062 601.59375 566.039062 L 473.800781 566.039062 L 473.800781 612.792969 C 473.800781 627.175781 462.144531 638.835938 447.761719 638.835938 L 367.453125 638.835938 C 353.074219 638.835938 341.414062 627.175781 341.414062 612.792969 L 341.414062 566.039062 Z M 213.621094 566.039062 " fill-opacity="1" fill-rule="nonzero"/><path fill="#ffffff" d="M 378.335938 613.753906 L 436.878906 613.753906 C 443.417969 613.753906 448.71875 608.453125 448.71875 601.914062 L 448.71875 507.515625 C 448.71875 500.980469 443.417969 495.679688 436.878906 495.679688 L 378.335938 495.679688 C 371.796875 495.679688 366.496094 500.980469 366.496094 507.515625 L 366.496094 601.914062 C 366.496094 608.457031 371.796875 613.753906 378.335938 613.753906 Z M 378.335938 613.753906 " fill-opacity="1" fill-rule="nonzero"/><g clip-path="url(#bb50bee6be)"><path fill="#ffffff" d="M 489.085938 148.527344 L 326.128906 148.527344 C 294.160156 148.527344 268.25 174.4375 268.25 206.40625 L 268.25 224.132812 C 268.25 227.789062 265.289062 230.75 261.632812 230.75 L 246.605469 230.75 C 234.28125 230.75 224.296875 240.730469 224.273438 253.050781 L 318.417969 253.050781 L 318.417969 206.40625 C 318.417969 202.148438 321.875 198.695312 326.125 198.695312 L 489.085938 198.695312 C 493.335938 198.695312 496.796875 202.148438 496.796875 206.40625 L 496.796875 253.050781 L 590.941406 253.050781 C 590.917969 240.730469 580.929688 230.75 568.605469 230.75 L 553.582031 230.75 C 549.925781 230.75 546.960938 227.789062 546.960938 224.132812 L 546.960938 206.40625 C 546.964844 174.4375 521.054688 148.527344 489.085938 148.527344 Z M 489.085938 148.527344 " fill-opacity="1" fill-rule="nonzero"/></g><path fill="#ffffff" d="M 679.351562 274.785156 L 135.863281 274.785156 C 105.847656 274.785156 81.515625 299.121094 81.515625 329.136719 L 81.515625 402.15625 C 81.515625 486.816406 150.144531 540.957031 234.804688 540.957031 L 341.414062 540.957031 L 341.414062 496.640625 C 341.414062 482.257812 353.070312 470.597656 367.453125 470.597656 L 447.761719 470.597656 C 462.144531 470.597656 473.804688 482.257812 473.804688 496.640625 L 473.804688 540.957031 L 580.410156 540.957031 C 665.070312 540.957031 733.703125 486.816406 733.703125 402.15625 L 733.703125 329.136719 C 733.699219 299.121094 709.367188 274.785156 679.351562 274.785156 Z M 679.351562 274.785156 " fill-opacity="1" fill-rule="nonzero"/><g transform="matrix(1, 0, 0, 1, 198, 0.000000000000039746)"><g clip-path="url(#b7adacc24d)"><g clip-path="url(#f911161707)"><g transform="matrix(1, 0, 0, 1, 0, 0.000000000000039746)"><g clip-path="url(#542765afb0)"><g fill="#ffffff" fill-opacity="1"><g transform="translate(0.0599789, 205.528385)"><g><path d="M 104.1875 -184.46875 C 110.726562 -184.46875 115.550781 -183.921875 118.65625 -182.828125 C 121.757812 -181.734375 123.984375 -179.929688 125.328125 -177.421875 C 127.171875 -173.554688 128.09375 -168.351562 128.09375 -161.8125 L 128.09375 -64.421875 C 128.09375 -46.804688 121.71875 -31.242188 108.96875 -17.734375 C 96.21875 -4.234375 79.941406 2.515625 60.140625 2.515625 C 49.066406 2.515625 39.253906 0.0820312 30.703125 -4.78125 C 22.984375 -8.976562 17.613281 -12.753906 14.59375 -16.109375 L 12.578125 -18.125 C 6.710938 -24.332031 3.78125 -29.65625 3.78125 -34.09375 C 3.78125 -38.539062 6.710938 -43.785156 12.578125 -49.828125 C 18.453125 -55.867188 23.65625 -58.890625 28.1875 -58.890625 C 32.71875 -58.890625 37.75 -56.117188 43.28125 -50.578125 C 48.820312 -45.046875 54.820312 -42.28125 61.28125 -42.28125 C 67.738281 -42.28125 73.0625 -44.457031 77.25 -48.8125 C 81.445312 -53.175781 83.546875 -58.96875 83.546875 -66.1875 L 83.546875 -160.3125 C 83.546875 -170.375 85.222656 -176.832031 88.578125 -179.6875 C 92.441406 -182.875 97.644531 -184.46875 104.1875 -184.46875 Z M 104.1875 -184.46875 "/></g></g></g></g></g></g><g transform="matrix(1, 0, 0, 1, 113, 28)"><g clip-path="url(#041400c47b)"><g fill="#ffffff" fill-opacity="1"><g transform="translate(0.834929, 138.386272)"><g><path d="M 70.09375 -133.9375 C 79.488281 -133.9375 88.3125 -132.15625 96.5625 -128.59375 C 104.820312 -125.039062 112.070312 -120.140625 118.3125 -113.890625 C 124.5625 -107.648438 129.460938 -100.398438 133.015625 -92.140625 C 136.578125 -83.878906 138.359375 -75.050781 138.359375 -65.65625 C 138.359375 -56.257812 136.578125 -47.429688 133.015625 -39.171875 C 129.460938 -30.910156 124.5625 -23.625 118.3125 -17.3125 C 112.070312 -11.007812 104.820312 -6.078125 96.5625 -2.515625 C 88.3125 1.035156 79.488281 2.8125 70.09375 2.8125 C 60.6875 2.8125 51.820312 1.035156 43.5 -2.515625 C 35.175781 -6.078125 27.890625 -11.007812 21.640625 -17.3125 C 15.398438 -23.625 10.5 -30.910156 6.9375 -39.171875 C 3.382812 -47.429688 1.609375 -56.257812 1.609375 -65.65625 C 1.609375 -75.050781 3.382812 -83.878906 6.9375 -92.140625 C 10.5 -100.398438 15.398438 -107.648438 21.640625 -113.890625 C 27.890625 -120.140625 35.175781 -125.039062 43.5 -128.59375 C 51.820312 -132.15625 60.6875 -133.9375 70.09375 -133.9375 Z M 66.671875 -76.734375 C 61.703125 -76.734375 57.804688 -74.71875 54.984375 -70.6875 L 54.984375 -126.28125 C 48.535156 -124.269531 43.296875 -120.976562 39.265625 -116.40625 C 35.242188 -111.84375 32.359375 -106.570312 30.609375 -100.59375 C 28.867188 -94.625 28.363281 -88.550781 29.09375 -82.375 C 29.832031 -76.195312 31.679688 -70.457031 34.640625 -65.15625 C 37.597656 -59.851562 41.757812 -55.554688 47.125 -52.265625 C 52.5 -48.972656 59.015625 -47.328125 66.671875 -47.328125 C 70.691406 -47.328125 74.144531 -48.738281 77.03125 -51.5625 C 79.925781 -54.382812 81.375 -57.875 81.375 -62.03125 C 81.375 -66.0625 79.925781 -69.519531 77.03125 -72.40625 C 74.144531 -75.289062 70.691406 -76.734375 66.671875 -76.734375 Z M 66.671875 -76.734375 "/></g></g></g></g></g><g clip-path="url(#a959f7d6dc)"><g transform="matrix(1, 0, 0, 1, 216, 2)"><g clip-path="url(#c8d1b7f739)"><g fill="#ffffff" fill-opacity="1"><g transform="translate(0.918615, 151.137383)"><g><path d="M 99.625 -143.265625 C 108.4375 -143.265625 115.523438 -141.316406 120.890625 -137.421875 C 126.253906 -133.523438 129.960938 -128.601562 132.015625 -122.65625 C 134.078125 -116.707031 134.59375 -110.535156 133.5625 -104.140625 C 132.53125 -97.742188 130.03125 -92.007812 126.0625 -86.9375 C 122.101562 -81.875 116.742188 -78.316406 109.984375 -76.265625 C 117.035156 -74.347656 122.875 -71.148438 127.5 -66.671875 C 132.132812 -62.191406 135.515625 -57.085938 137.640625 -51.359375 C 139.773438 -45.628906 140.617188 -39.785156 140.171875 -33.828125 C 139.734375 -27.878906 138.007812 -22.367188 135 -17.296875 C 131.988281 -12.234375 127.65625 -8.117188 122 -4.953125 C 116.34375 -1.796875 109.328125 -0.21875 100.953125 -0.21875 L 6.609375 -0.21875 L 6.609375 -143.265625 Z M 60.390625 -78.6875 C 65.828125 -79.863281 70.195312 -82.472656 73.5 -86.515625 C 76.8125 -90.554688 79.050781 -95.253906 80.21875 -100.609375 C 81.394531 -105.972656 81.429688 -111.375 80.328125 -116.8125 C 79.234375 -122.25 77.03125 -126.988281 73.71875 -131.03125 C 70.414062 -135.070312 65.972656 -137.679688 60.390625 -138.859375 Z M 82.875 -41 C 82.726562 -48.34375 80.5625 -54.804688 76.375 -60.390625 C 72.1875 -65.972656 66.859375 -69.867188 60.390625 -72.078125 C 60.390625 -65.609375 60.390625 -59.140625 60.390625 -52.671875 C 60.390625 -46.210938 60.460938 -39.75 60.609375 -33.28125 C 57.378906 -32.988281 54.660156 -31.664062 52.453125 -29.3125 C 50.253906 -26.957031 49.15625 -24.164062 49.15625 -20.9375 C 49.15625 -17.414062 50.398438 -14.441406 52.890625 -12.015625 C 55.390625 -9.585938 58.332031 -8.375 61.71875 -8.375 C 66.5625 -8.375 70.5625 -10.097656 73.71875 -13.546875 C 76.882812 -17.003906 79.238281 -21.265625 80.78125 -26.328125 C 82.320312 -31.398438 83.019531 -36.289062 82.875 -41 Z M 82.875 -41 "/></g></g></g></g></g></g></g></g><g transform="matrix(1, 0, 0, 1, 300, 731)"><g clip-path="url(#f04771a2f4)"><g fill="#ffffff" fill-opacity="1"><g transform="translate(0.594569, 63.726047)"><g><path d="M 39.40625 -8.125 C 40.0625 -6.550781 40.390625 -5.414062 40.390625 -4.71875 C 40.390625 -3.0625 39.035156 -1.664062 36.328125 -0.53125 C 34.929688 0.0820312 33.804688 0.390625 32.953125 0.390625 C 32.097656 0.390625 31.394531 0.179688 30.84375 -0.234375 C 30.300781 -0.648438 29.898438 -1.078125 29.640625 -1.515625 C 29.203125 -2.335938 27.5 -6.289062 24.53125 -13.375 L 22.5 -13.25 L 14.234375 -13.25 L 14.234375 -5.84375 C 14.234375 -4.832031 14.195312 -4.070312 14.125 -3.5625 C 14.0625 -3.0625 13.859375 -2.488281 13.515625 -1.84375 C 12.898438 -0.65625 11.191406 -0.0625 8.390625 -0.0625 C 5.328125 -0.0625 3.535156 -0.867188 3.015625 -2.484375 C 2.753906 -3.234375 2.625 -4.375 2.625 -5.90625 L 2.625 -42.296875 C 2.625 -43.304688 2.65625 -44.0625 2.71875 -44.5625 C 2.78125 -45.0625 2.988281 -45.640625 3.34375 -46.296875 C 3.957031 -47.472656 5.660156 -48.0625 8.453125 -48.0625 L 22.625 -48.0625 C 26.46875 -48.0625 30.207031 -46.664062 33.84375 -43.875 C 35.59375 -42.519531 37.035156 -40.679688 38.171875 -38.359375 C 39.304688 -36.046875 39.875 -33.46875 39.875 -30.625 C 39.875 -25.6875 38.234375 -21.617188 34.953125 -18.421875 C 35.910156 -16.109375 37.394531 -12.675781 39.40625 -8.125 Z M 14.234375 -24.859375 L 22.625 -24.859375 C 23.894531 -24.859375 25.160156 -25.335938 26.421875 -26.296875 C 27.691406 -27.253906 28.328125 -28.695312 28.328125 -30.625 C 28.328125 -32.550781 27.691406 -34.003906 26.421875 -34.984375 C 25.160156 -35.972656 23.851562 -36.46875 22.5 -36.46875 L 14.234375 -36.46875 Z M 14.234375 -24.859375 "/></g></g></g><g fill="#ffffff" fill-opacity="1"><g transform="translate(39.282534, 63.726047)"><g><path d="M 35.9375 -21.40625 C 35.9375 -18.71875 35.269531 -16.726562 33.9375 -15.4375 C 32.601562 -14.15625 31.128906 -13.515625 29.515625 -13.515625 L 13.96875 -13.515625 C 13.96875 -12.285156 14.6875 -11.253906 16.125 -10.421875 C 17.570312 -9.597656 19.015625 -9.1875 20.453125 -9.1875 C 22.992188 -9.1875 24.984375 -9.445312 26.421875 -9.96875 L 27.15625 -10.234375 C 28.195312 -10.710938 29.066406 -10.953125 29.765625 -10.953125 C 31.171875 -10.953125 32.375 -9.96875 33.375 -8 C 33.945312 -6.820312 34.234375 -5.816406 34.234375 -4.984375 C 34.234375 -1.085938 29.578125 0.859375 20.265625 0.859375 C 17.023438 0.859375 14.148438 0.300781 11.640625 -0.8125 C 9.128906 -1.925781 7.171875 -3.40625 5.765625 -5.25 C 3.015625 -8.789062 1.640625 -12.742188 1.640625 -17.109375 C 1.640625 -22.617188 3.421875 -27.023438 6.984375 -30.328125 C 10.546875 -33.628906 14.992188 -35.28125 20.328125 -35.28125 C 26.398438 -35.28125 30.859375 -33.140625 33.703125 -28.859375 C 35.191406 -26.578125 35.9375 -24.09375 35.9375 -21.40625 Z M 22.09375 -19.484375 C 23.757812 -19.484375 24.59375 -20.179688 24.59375 -21.578125 C 24.59375 -22.578125 24.207031 -23.382812 23.4375 -24 C 22.675781 -24.613281 21.582031 -24.921875 20.15625 -24.921875 C 18.738281 -24.921875 17.332031 -24.335938 15.9375 -23.171875 C 14.539062 -22.015625 13.84375 -20.785156 13.84375 -19.484375 Z M 22.09375 -19.484375 "/></g></g></g><g fill="#ffffff" fill-opacity="1"><g transform="translate(75.478787, 63.726047)"><g><path d="M 2.890625 -3.078125 C 2.054688 -3.609375 1.640625 -4.441406 1.640625 -5.578125 C 1.640625 -6.710938 2.46875 -8.4375 4.125 -10.75 C 4.613281 -11.5 5.390625 -11.875 6.453125 -11.875 C 7.523438 -11.875 8.976562 -11.335938 10.8125 -10.265625 C 12.65625 -9.191406 14.316406 -8.65625 15.796875 -8.65625 C 18.460938 -8.65625 19.796875 -9.179688 19.796875 -10.234375 C 19.796875 -11.054688 18.332031 -11.664062 15.40625 -12.0625 C 12.65625 -12.457031 9.925781 -13.488281 7.21875 -15.15625 C 5.945312 -15.9375 4.894531 -17.164062 4.0625 -18.84375 C 3.226562 -20.53125 2.8125 -22.535156 2.8125 -24.859375 C 2.8125 -31.765625 7.554688 -35.21875 17.046875 -35.21875 C 20.148438 -35.21875 23.34375 -34.472656 26.625 -32.984375 C 28.15625 -32.285156 28.921875 -31.410156 28.921875 -30.359375 C 28.921875 -29.304688 28.4375 -28.015625 27.46875 -26.484375 C 26.507812 -24.960938 25.53125 -24.203125 24.53125 -24.203125 C 24 -24.203125 23.023438 -24.53125 21.609375 -25.1875 C 20.191406 -25.84375 18.648438 -26.171875 16.984375 -26.171875 C 14.398438 -26.171875 13.109375 -25.6875 13.109375 -24.71875 C 13.109375 -23.40625 14.597656 -22.554688 17.578125 -22.171875 C 20.460938 -21.859375 23.257812 -21.023438 25.96875 -19.671875 C 27.238281 -19.054688 28.296875 -17.992188 29.140625 -16.484375 C 29.992188 -14.984375 30.421875 -13.09375 30.421875 -10.8125 C 30.421875 -8.539062 29.992188 -6.609375 29.140625 -5.015625 C 28.296875 -3.421875 27.109375 -2.226562 25.578125 -1.4375 C 22.773438 -0.0820312 19.265625 0.59375 15.046875 0.59375 C 10.828125 0.59375 6.773438 -0.628906 2.890625 -3.078125 Z M 2.890625 -3.078125 "/></g></g></g><g fill="#ffffff" fill-opacity="1"><g transform="translate(106.166893, 63.726047)"><g><path d="M 13.4375 -17.28125 C 13.4375 -15.425781 14.046875 -13.984375 15.265625 -12.953125 C 16.492188 -11.921875 17.796875 -11.40625 19.171875 -11.40625 C 20.554688 -11.40625 21.847656 -11.8125 23.046875 -12.625 C 24.253906 -13.4375 25.226562 -13.84375 25.96875 -13.84375 C 27.28125 -13.84375 28.875 -12.679688 30.75 -10.359375 C 31.757812 -9.085938 32.265625 -7.953125 32.265625 -6.953125 C 32.265625 -5.285156 31.0625 -3.734375 28.65625 -2.296875 C 26.164062 -0.546875 23.109375 0.328125 19.484375 0.328125 C 15.410156 0.328125 11.492188 -1.132812 7.734375 -4.0625 C 5.941406 -5.46875 4.476562 -7.335938 3.34375 -9.671875 C 2.207031 -12.015625 1.640625 -14.59375 1.640625 -17.40625 C 1.640625 -20.226562 2.207031 -22.785156 3.34375 -25.078125 C 4.476562 -27.378906 5.941406 -29.226562 7.734375 -30.625 C 11.367188 -33.507812 15.238281 -34.953125 19.34375 -34.953125 C 21.007812 -34.953125 22.628906 -34.722656 24.203125 -34.265625 C 25.773438 -33.804688 26.929688 -33.359375 27.671875 -32.921875 L 28.71875 -32.265625 C 29.507812 -31.742188 30.125 -31.328125 30.5625 -31.015625 C 31.695312 -30.140625 32.265625 -29.144531 32.265625 -28.03125 C 32.265625 -26.914062 31.804688 -25.660156 30.890625 -24.265625 C 29.316406 -21.859375 27.804688 -20.65625 26.359375 -20.65625 C 25.523438 -20.65625 24.347656 -21.132812 22.828125 -22.09375 C 22.035156 -22.84375 20.90625 -23.21875 19.4375 -23.21875 C 17.976562 -23.21875 16.613281 -22.691406 15.34375 -21.640625 C 14.070312 -20.585938 13.4375 -19.132812 13.4375 -17.28125 Z M 13.4375 -17.28125 "/></g></g></g><g fill="#ffffff" fill-opacity="1"><g transform="translate(138.691045, 63.726047)"><g><path d="M 17.96875 -0.125 C 13.550781 -0.125 9.890625 -1.796875 6.984375 -5.140625 C 4.078125 -8.492188 2.625 -12.570312 2.625 -17.375 L 2.625 -28.859375 C 2.625 -29.898438 2.65625 -30.660156 2.71875 -31.140625 C 2.78125 -31.628906 2.96875 -32.203125 3.28125 -32.859375 C 3.894531 -34.035156 5.597656 -34.625 8.390625 -34.625 C 11.453125 -34.625 13.242188 -33.796875 13.765625 -32.140625 C 14.035156 -31.429688 14.171875 -30.3125 14.171875 -28.78125 L 14.171875 -17.3125 C 14.171875 -15.519531 14.679688 -14.117188 15.703125 -13.109375 C 16.734375 -12.109375 18.109375 -11.609375 19.828125 -11.609375 C 21.554688 -11.609375 22.957031 -12.128906 24.03125 -13.171875 C 25.101562 -14.222656 25.640625 -15.601562 25.640625 -17.3125 L 25.640625 -28.921875 C 25.640625 -29.921875 25.671875 -30.671875 25.734375 -31.171875 C 25.804688 -31.679688 26.015625 -32.265625 26.359375 -32.921875 C 26.929688 -34.054688 28.613281 -34.625 31.40625 -34.625 C 34.164062 -34.625 35.851562 -34.035156 36.46875 -32.859375 C 36.769531 -32.203125 36.953125 -31.617188 37.015625 -31.109375 C 37.085938 -30.609375 37.125 -29.859375 37.125 -28.859375 L 37.125 -5.640625 C 37.125 -4.679688 37.085938 -3.945312 37.015625 -3.4375 C 36.953125 -2.9375 36.742188 -2.378906 36.390625 -1.765625 C 35.734375 -0.628906 34.050781 -0.0625 31.34375 -0.0625 C 28.675781 -0.0625 27.035156 -0.585938 26.421875 -1.640625 C 25.984375 -2.378906 25.765625 -3.273438 25.765625 -4.328125 C 25.597656 -4.023438 25.207031 -3.585938 24.59375 -3.015625 C 23.976562 -2.453125 23.390625 -1.972656 22.828125 -1.578125 C 21.335938 -0.609375 19.71875 -0.125 17.96875 -0.125 Z M 17.96875 -0.125 "/></g></g></g><g fill="#ffffff" fill-opacity="1"><g transform="translate(177.051214, 63.726047)"><g><path d="M 35.9375 -21.40625 C 35.9375 -18.71875 35.269531 -16.726562 33.9375 -15.4375 C 32.601562 -14.15625 31.128906 -13.515625 29.515625 -13.515625 L 13.96875 -13.515625 C 13.96875 -12.285156 14.6875 -11.253906 16.125 -10.421875 C 17.570312 -9.597656 19.015625 -9.1875 20.453125 -9.1875 C 22.992188 -9.1875 24.984375 -9.445312 26.421875 -9.96875 L 27.15625 -10.234375 C 28.195312 -10.710938 29.066406 -10.953125 29.765625 -10.953125 C 31.171875 -10.953125 32.375 -9.96875 33.375 -8 C 33.945312 -6.820312 34.234375 -5.816406 34.234375 -4.984375 C 34.234375 -1.085938 29.578125 0.859375 20.265625 0.859375 C 17.023438 0.859375 14.148438 0.300781 11.640625 -0.8125 C 9.128906 -1.925781 7.171875 -3.40625 5.765625 -5.25 C 3.015625 -8.789062 1.640625 -12.742188 1.640625 -17.109375 C 1.640625 -22.617188 3.421875 -27.023438 6.984375 -30.328125 C 10.546875 -33.628906 14.992188 -35.28125 20.328125 -35.28125 C 26.398438 -35.28125 30.859375 -33.140625 33.703125 -28.859375 C 35.191406 -26.578125 35.9375 -24.09375 35.9375 -21.40625 Z M 22.09375 -19.484375 C 23.757812 -19.484375 24.59375 -20.179688 24.59375 -21.578125 C 24.59375 -22.578125 24.207031 -23.382812 23.4375 -24 C 22.675781 -24.613281 21.582031 -24.921875 20.15625 -24.921875 C 18.738281 -24.921875 17.332031 -24.335938 15.9375 -23.171875 C 14.539062 -22.015625 13.84375 -20.785156 13.84375 -19.484375 Z M 22.09375 -19.484375 "/></g></g></g></g></g></svg>