<svg width="6153" height="4585" viewBox="0 0 6153 4585" fill="none" xmlns="http://www.w3.org/2000/svg">
<path d="M6152.29 4028.46H0.831543V4031.53H6152.29V4028.46Z" fill="#EBEBEB"/>
<path d="M1053.71 4145.58H646.242V4148.65H1053.71V4145.58Z" fill="#EBEBEB"/>
<path d="M2768.99 4147.18H2106.35V4150.25H2768.99V4147.18Z" fill="#EBEBEB"/>
<path d="M1538.2 4209.06H1302.11V4212.14H1538.2V4209.06Z" fill="#EBEBEB"/>
<path d="M5487.93 4207.59H5251.35V4210.66H5487.93V4207.59Z" fill="#EBEBEB"/>
<path d="M5141.73 4207.59H4769.07V4210.66H5141.73V4207.59Z" fill="#EBEBEB"/>
<path d="M4563.86 4187.29H4040.25V4190.36H4563.86V4187.29Z" fill="#EBEBEB"/>
<path d="M2916.62 3479.75H541.052C522.442 3479.71 504.606 3472.3 491.458 3459.13C478.31 3445.96 470.926 3428.11 470.926 3409.5V70.1159C471.088 51.6127 478.544 33.9205 491.674 20.8824C504.804 7.84422 522.548 0.513142 541.052 0.481445H2916.62C2935.25 0.481445 2953.12 7.88273 2966.3 21.0571C2979.47 34.2315 2986.87 52.0997 2986.87 70.7311V3409.5C2986.87 3428.13 2979.47 3446 2966.3 3459.17C2953.12 3472.34 2935.25 3479.75 2916.62 3479.75ZM541.052 2.94204C523.258 2.97463 506.204 10.0662 493.633 22.6602C481.062 35.2543 474.001 52.3216 474.002 70.1159V3409.5C474.001 3427.29 481.062 3444.36 493.633 3456.95C506.204 3469.55 523.258 3476.64 541.052 3476.67H2916.62C2934.43 3476.64 2951.49 3469.55 2964.09 3456.96C2976.68 3444.37 2983.76 3427.3 2983.8 3409.5V70.1159C2983.76 52.3103 2976.68 35.2432 2964.09 22.6527C2951.49 10.0622 2934.43 2.97456 2916.62 2.94204H541.052Z" fill="#EBEBEB"/>
<path d="M5577.87 3479.75H3202.17C3183.55 3479.71 3165.7 3472.3 3152.53 3459.13C3139.37 3445.97 3131.96 3428.12 3131.92 3409.5V70.1159C3132.12 51.6014 3139.6 33.9094 3152.75 20.8747C3165.9 7.83992 3183.66 0.512797 3202.17 0.481445H5577.87C5596.35 0.545476 5614.06 7.89086 5627.16 20.9255C5640.27 33.9602 5647.71 51.6339 5647.87 70.1159V3409.5C5647.87 3428.08 5640.5 3445.92 5627.38 3459.08C5614.26 3472.25 5596.45 3479.68 5577.87 3479.75ZM3202.17 2.94204C3184.37 2.97456 3167.3 10.0622 3154.71 22.6527C3142.12 35.2432 3135.03 52.3103 3135 70.1159V3409.5C3135.03 3427.3 3142.12 3444.37 3154.71 3456.96C3167.3 3469.55 3184.37 3476.64 3202.17 3476.67H5577.87C5595.67 3476.64 5612.74 3469.55 5625.33 3456.96C5637.92 3444.37 5645.01 3427.3 5645.04 3409.5V70.1159C5645.01 52.3103 5637.92 35.2432 5625.33 22.6527C5612.74 10.0622 5595.67 2.97456 5577.87 2.94204H3202.17Z" fill="#EBEBEB"/>
<path d="M3719.02 4028.46H4067.44V2294.97H3719.02V4028.46Z" fill="#E6E6E6"/>
<path d="M3785.08 4028.46H3718.89V3840.22H3854.47L3785.08 4028.46Z" fill="#F0F0F0"/>
<path d="M5021.16 4028.46H5369.58V2294.97H5021.16V4028.46Z" fill="#E6E6E6"/>
<path d="M3719.02 3912.93H5078.98V2294.97H3719.02V3912.93Z" fill="#F0F0F0"/>
<path d="M3770.32 3362.99V3677.58H4376.73V3362.99H3770.32Z" fill="#E6E6E6"/>
<path d="M4421.15 3362.99V3677.58H5027.56V3362.99H4421.15Z" fill="#E6E6E6"/>
<path d="M4664.37 3415.65H4784.33C4810.12 3415.66 4835.65 3410.41 4859.34 3400.22C4883.04 3390.02 4904.4 3375.09 4922.12 3356.35H4526.58C4544.3 3375.09 4565.66 3390.02 4589.36 3400.22C4613.05 3410.41 4638.58 3415.66 4664.37 3415.65Z" fill="#F0F0F0"/>
<path d="M4007.4 3415.65H4127.35C4153.15 3415.66 4178.67 3410.41 4202.37 3400.22C4226.06 3390.02 4247.42 3375.09 4265.14 3356.35H3869.61C3887.33 3375.09 3908.69 3390.02 3932.38 3400.22C3956.08 3410.41 3981.6 3415.66 4007.4 3415.65Z" fill="#F0F0F0"/>
<path d="M3770.2 2873.95V3188.54H4376.61V2873.95H3770.2Z" fill="#E6E6E6"/>
<path d="M4421.15 2874.07V3188.66H5027.56V2874.07H4421.15Z" fill="#E6E6E6"/>
<path d="M4664.37 2926.61H4784.33C4810.12 2926.55 4835.62 2921.24 4859.29 2911.01C4882.96 2900.77 4904.3 2885.82 4922 2867.06H4526.58C4544.29 2885.83 4565.65 2900.79 4589.34 2911.03C4613.03 2921.27 4638.56 2926.57 4664.37 2926.61Z" fill="#F0F0F0"/>
<path d="M4007.4 2926.61H4127.35C4153.13 2926.62 4178.65 2921.38 4202.34 2911.2C4226.03 2901.03 4247.4 2886.13 4265.14 2867.43H3869.61C3887.35 2886.13 3908.72 2901.03 3932.41 2911.2C3956.1 2921.38 3981.62 2926.62 4007.4 2926.61Z" fill="#F0F0F0"/>
<path d="M3770.32 2385.03V2699.62H4376.73V2385.03H3770.32Z" fill="#E6E6E6"/>
<path d="M4421.15 2385.03V2699.62H5027.56V2385.03H4421.15Z" fill="#E6E6E6"/>
<path d="M4664.37 2437.69H4784.33C4810.12 2437.7 4835.65 2432.45 4859.34 2422.26C4883.04 2412.06 4904.4 2397.13 4922.12 2378.39H4526.58C4544.3 2397.13 4565.66 2412.06 4589.36 2422.26C4613.05 2432.45 4638.58 2437.7 4664.37 2437.69Z" fill="#F0F0F0"/>
<path d="M4007.4 2437.69H4127.35C4153.15 2437.7 4178.67 2432.45 4202.37 2422.26C4226.06 2412.06 4247.42 2397.13 4265.14 2378.39H3869.61C3887.33 2397.13 3908.69 2412.06 3932.38 2422.26C3956.08 2432.45 3981.6 2437.7 4007.4 2437.69Z" fill="#F0F0F0"/>
<path d="M5012.79 4028.46H5078.98V3840.22H4943.4L5012.79 4028.46Z" fill="#F0F0F0"/>
<path d="M5070.12 1104.91L5123.4 1250.58H5070.12L4743.24 1104.91H5070.12Z" fill="#F5F5F5"/>
<path d="M5123.4 1104.91V1250.58L4796.63 1104.91H5123.4Z" fill="#E6E6E6"/>
<path d="M3788.53 1104.91L3841.8 1250.58H3788.53L3461.76 1104.91H3788.53Z" fill="#F5F5F5"/>
<path d="M3841.8 1104.91V1250.58L3515.04 1104.91H3841.8Z" fill="#E6E6E6"/>
<path d="M5363.3 1000.83H5007.87V1111.68H5363.3V1000.83Z" fill="#E6E6E6"/>
<path d="M3240.8 1111.8L5007.87 1111.8V1000.95L3240.8 1000.95V1111.8Z" fill="#F5F5F5"/>
<path d="M4649 615.627C4649 615.627 4652.56 1000.95 4785.56 1000.95C4918.55 1000.95 4922 615.627 4922 615.627H4649Z" fill="#F0F0F0"/>
<path d="M3824.33 875.219C3824.33 875.219 3833.68 1000.83 4191.45 1000.83C4549.22 1000.83 4558.57 875.219 4558.57 875.219H3824.33Z" fill="#F0F0F0"/>
<path d="M2761.11 4028.46H2784.86L2852.89 3693.2L2865.2 3634.39L2939.01 3269H3224.19L3378.35 4028.46H3402.22L3245.11 3255.09C3244.59 3252.45 3243.17 3250.06 3241.08 3248.35C3238.99 3246.65 3236.37 3245.72 3233.67 3245.74H2929.54C2926.86 3245.73 2924.25 3246.65 2922.18 3248.36C2920.11 3250.07 2918.71 3252.46 2918.22 3255.09L2853.02 3575.95L2840.71 3634.64L2761.11 4028.46Z" fill="#F0F0F0"/>
<path d="M2304.31 4028.46H2328.05L2482.33 3269H2766.77L2840.59 3634.64L2852.89 3693.2L2921.05 4028.46H2944.8L2864.83 3634.76L2852.52 3576.32L2787.32 3255.46C2786.68 3252.88 2785.22 3250.57 2783.16 3248.88C2781.09 3247.19 2778.54 3246.22 2775.88 3246.11H2472.86C2470.16 3246.09 2467.54 3247.01 2465.45 3248.72C2463.36 3250.43 2461.93 3252.81 2461.41 3255.46L2304.31 4028.46Z" fill="#F0F0F0"/>
<path d="M3266.76 3157.16H2439.15C2420.17 3157.2 2401.97 3164.75 2388.55 3178.17C2375.13 3191.59 2367.58 3209.79 2367.54 3228.77V3231.23C2367.54 3238.18 2370.3 3244.84 2375.22 3249.76C2380.13 3254.67 2386.8 3257.43 2393.75 3257.43H3312.16C3319.11 3257.43 3325.78 3254.67 3330.69 3249.76C3335.6 3244.84 3338.37 3238.18 3338.37 3231.23V3228.77C3338.33 3209.79 3330.78 3191.59 3317.36 3178.17C3303.94 3164.75 3285.74 3157.2 3266.76 3157.16Z" fill="#F0F0F0"/>
<path d="M1930.54 4028.46H1954.29L2022.32 3693.2L2034.63 3634.39L2108.44 3269H2392.89L2547.53 4028.46H2571.4L2414.29 3255.09C2413.78 3252.45 2412.35 3250.06 2410.26 3248.35C2408.17 3246.65 2405.55 3245.72 2402.85 3245.74H2098.97C2096.29 3245.73 2093.68 3246.65 2091.61 3248.36C2089.54 3250.07 2088.14 3252.46 2087.65 3255.09L2022.45 3575.95L2010.14 3634.64L1930.54 4028.46Z" fill="#F0F0F0"/>
<path d="M1473.74 4028.46H1497.6L1651.76 3269H1936.33L2010.14 3634.64L2022.45 3693.2L2090.6 4028.46H2114.35L2034.38 3634.76L2022.08 3576.32L1956.99 3255.09C1956.36 3252.51 1954.9 3250.2 1952.83 3248.51C1950.77 3246.82 1948.22 3245.85 1945.55 3245.74H1642.29C1639.59 3245.72 1636.97 3246.65 1634.88 3248.35C1632.79 3250.06 1631.36 3252.45 1630.84 3255.09L1473.74 4028.46Z" fill="#F0F0F0"/>
<path d="M2436.81 3157.16H1608.58C1589.6 3157.2 1571.4 3164.75 1557.98 3178.17C1544.56 3191.59 1537.01 3209.79 1536.97 3228.77V3231.23C1536.97 3238.18 1539.73 3244.84 1544.65 3249.76C1549.56 3254.67 1556.23 3257.43 1563.18 3257.43H2481.71C2485.15 3257.43 2488.55 3256.75 2491.72 3255.43C2494.9 3254.12 2497.78 3252.18 2500.2 3249.75C2502.62 3247.31 2504.54 3244.42 2505.85 3241.25C2507.15 3238.07 2507.81 3234.66 2507.8 3231.23V3228.77C2507.77 3209.89 2500.3 3191.79 2487.01 3178.39C2473.72 3164.98 2455.68 3157.36 2436.81 3157.16Z" fill="#F0F0F0"/>
<path d="M1038.34 2185.48H2227.41L2227.41 280.619L1038.34 280.619L1038.34 2185.48Z" fill="#E6E6E6"/>
<path d="M960.705 2185.48H2191.12L2191.12 280.619L960.705 280.619L960.705 2185.48Z" fill="#F0F0F0"/>
<path d="M1038.34 2329.79H2227.41V2185.36H1038.34V2329.79Z" fill="#E6E6E6"/>
<path d="M831.278 2329.79H2061.69V2185.36H831.278V2329.79Z" fill="#F0F0F0"/>
<path d="M2082.24 2076.72V389.376L1069.34 389.376V2076.72H2082.24Z" fill="#FAFAFA"/>
<path d="M2090.97 2076.6L1734.68 389.376H1433.26L1789.55 2076.6H2090.97Z" fill="white"/>
<path d="M2008.91 1875.08C2010.97 1875.08 2012.94 1874.26 2014.39 1872.81C2015.85 1871.35 2016.66 1869.38 2016.66 1867.33V460.118C2016.66 458.063 2015.85 456.091 2014.39 454.638C2012.94 453.184 2010.97 452.368 2008.91 452.368C2006.86 452.368 2004.89 453.184 2003.43 454.638C2001.98 456.091 2001.16 458.063 2001.16 460.118V1867.33C2001.16 1869.38 2001.98 1871.35 2003.43 1872.81C2004.89 1874.26 2006.86 1875.08 2008.91 1875.08Z" fill="#F0F0F0"/>
<path d="M1724.84 2076.6L1368.55 389.376H1251.05L1607.22 2076.6H1724.84Z" fill="white"/>
<path d="M1083.24 2076.72V389.376H1069.46V2076.72H1083.24Z" fill="#E6E6E6"/>
<path opacity="0.6" d="M934.869 472.913H2123.95L2134.03 431.576H944.958L934.869 472.913Z" fill="#F0F0F0"/>
<path opacity="0.6" d="M934.869 568.999H2123.95L2134.03 527.784H944.958L934.869 568.999Z" fill="#F0F0F0"/>
<path opacity="0.6" d="M934.869 665.208H2123.95L2134.03 623.87H944.958L934.869 665.208Z" fill="#F0F0F0"/>
<path opacity="0.6" d="M934.869 761.293H2123.95L2134.03 720.079H944.958L934.869 761.293Z" fill="#F0F0F0"/>
<path opacity="0.6" d="M934.869 857.502H2123.95L2134.03 816.288H944.958L934.869 857.502Z" fill="#F0F0F0"/>
<path opacity="0.6" d="M934.869 953.711H2123.95L2134.03 912.373H944.958L934.869 953.711Z" fill="#F0F0F0"/>
<path d="M3076.56 4584.05C4393.99 4584.05 5461.97 4521.7 5461.97 4444.79C5461.97 4367.87 4393.99 4305.52 3076.56 4305.52C1759.13 4305.52 691.148 4367.87 691.148 4444.79C691.148 4521.7 1759.13 4584.05 3076.56 4584.05Z" fill="#F5F5F5"/>
<path d="M2991.92 2556.17H2240.33C2229.73 2556.17 2221.14 2564.76 2221.14 2575.36V2888.84C2221.14 2899.44 2229.73 2908.03 2240.33 2908.03H2991.92C3002.52 2908.03 3011.11 2899.44 3011.11 2888.84V2575.36C3011.11 2564.76 3002.52 2556.17 2991.92 2556.17Z" fill="#407BFF"/>
<path d="M2991.92 2556.17H2240.33C2229.73 2556.17 2221.14 2564.76 2221.14 2575.36V2888.84C2221.14 2899.44 2229.73 2908.03 2240.33 2908.03H2991.92C3002.52 2908.03 3011.11 2899.44 3011.11 2888.84V2575.36C3011.11 2564.76 3002.52 2556.17 2991.92 2556.17Z" fill="#F97316"/>
<path opacity="0.1" d="M2991.79 2556.17H2239.96C2234.87 2556.17 2229.99 2558.19 2226.39 2561.79C2222.79 2565.39 2220.77 2570.27 2220.77 2575.36V2675.87L2612 2752.89C2614.4 2753.38 2616.87 2753.38 2619.26 2752.89L3010.62 2675.87V2575.36C3010.62 2570.33 3008.65 2565.5 3005.13 2561.92C3001.61 2558.33 2996.82 2556.26 2991.79 2556.17Z" fill="black"/>
<path d="M3008.28 2427.48H2778.71V2388.97C2778.67 2373.06 2772.34 2357.8 2761.09 2346.55C2749.83 2335.3 2734.58 2328.96 2718.67 2328.93H2513.58C2497.67 2328.96 2482.41 2335.3 2471.16 2346.55C2459.91 2357.8 2453.57 2373.06 2453.54 2388.97V2427.48H2224.09C2219.07 2427.48 2214.25 2429.47 2210.69 2433.03C2207.14 2436.58 2205.14 2441.4 2205.14 2446.42V2636.01C2205.17 2640.39 2206.7 2644.62 2209.48 2648.01C2212.25 2651.39 2216.11 2653.71 2220.4 2654.59L2612.49 2731.73C2614.9 2732.1 2617.35 2732.1 2619.75 2731.73L3011.85 2654.59C3016.15 2653.72 3020.02 2651.4 3022.82 2648.02C3025.62 2644.64 3027.17 2640.4 3027.23 2636.01V2446.42C3027.23 2441.4 3025.23 2436.58 3021.68 2433.03C3018.12 2429.47 3013.3 2427.48 3008.28 2427.48ZM2499.18 2388.97C2499.22 2385.15 2500.74 2381.49 2503.43 2378.78C2506.12 2376.07 2509.76 2374.52 2513.58 2374.45H2718.67C2722.49 2374.52 2726.13 2376.07 2728.82 2378.78C2731.51 2381.49 2733.03 2385.15 2733.06 2388.97V2427.48H2499.31L2499.18 2388.97Z" fill="#407BFF"/>
<path d="M3008.28 2427.48H2778.71V2388.97C2778.67 2373.06 2772.34 2357.8 2761.09 2346.55C2749.83 2335.3 2734.58 2328.96 2718.67 2328.93H2513.58C2497.67 2328.96 2482.41 2335.3 2471.16 2346.55C2459.91 2357.8 2453.57 2373.06 2453.54 2388.97V2427.48H2224.09C2219.07 2427.48 2214.25 2429.47 2210.69 2433.03C2207.14 2436.58 2205.14 2441.4 2205.14 2446.42V2636.01C2205.17 2640.39 2206.7 2644.62 2209.48 2648.01C2212.25 2651.39 2216.11 2653.71 2220.4 2654.59L2612.49 2731.73C2614.9 2732.1 2617.35 2732.1 2619.75 2731.73L3011.85 2654.59C3016.15 2653.72 3020.02 2651.4 3022.82 2648.02C3025.62 2644.64 3027.17 2640.4 3027.23 2636.01V2446.42C3027.23 2441.4 3025.23 2436.58 3021.68 2433.03C3018.12 2429.47 3013.3 2427.48 3008.28 2427.48ZM2499.18 2388.97C2499.22 2385.15 2500.74 2381.49 2503.43 2378.78C2506.12 2376.07 2509.76 2374.52 2513.58 2374.45H2718.67C2722.49 2374.52 2726.13 2376.07 2728.82 2378.78C2731.51 2381.49 2733.03 2385.15 2733.06 2388.97V2427.48H2499.31L2499.18 2388.97Z" fill="#F97316"/>
<path d="M2656.66 2679.93H2575.71C2565.65 2679.93 2557.5 2688.08 2557.5 2698.14V2749.32C2557.5 2759.38 2565.65 2767.53 2575.71 2767.53H2656.66C2666.72 2767.53 2674.87 2759.38 2674.87 2749.32V2698.14C2674.87 2688.08 2666.72 2679.93 2656.66 2679.93Z" fill="#407BFF"/>
<path d="M2656.66 2679.93H2575.71C2565.65 2679.93 2557.5 2688.08 2557.5 2698.14V2749.32C2557.5 2759.38 2565.65 2767.53 2575.71 2767.53H2656.66C2666.72 2767.53 2674.87 2759.38 2674.87 2749.32V2698.14C2674.87 2688.08 2666.72 2679.93 2656.66 2679.93Z" fill="#D75A04"/>
<path d="M2991.92 292.921H2240.33C2229.73 292.921 2221.14 301.514 2221.14 312.114V625.592C2221.14 636.192 2229.73 644.785 2240.33 644.785H2991.92C3002.52 644.785 3011.11 636.192 3011.11 625.592V312.114C3011.11 301.514 3002.52 292.921 2991.92 292.921Z" fill="#407BFF"/>
<path d="M2991.92 292.921H2240.33C2229.73 292.921 2221.14 301.514 2221.14 312.114V625.592C2221.14 636.192 2229.73 644.785 2240.33 644.785H2991.92C3002.52 644.785 3011.11 636.192 3011.11 625.592V312.114C3011.11 301.514 3002.52 292.921 2991.92 292.921Z" fill="#F97316"/>
<path opacity="0.1" d="M2991.79 292.921H2239.96C2234.87 292.921 2229.99 294.943 2226.39 298.543C2222.79 302.142 2220.77 307.024 2220.77 312.114V412.629L2612 489.645C2614.4 490.136 2616.87 490.136 2619.26 489.645L3010.62 412.629V312.114C3010.62 307.087 3008.65 302.261 3005.13 298.672C3001.61 295.083 2996.82 293.018 2991.79 292.921Z" fill="black"/>
<path d="M3008.28 164.233H2778.71V125.725C2778.67 109.812 2772.34 94.5596 2761.09 83.3072C2749.83 72.0549 2734.58 65.719 2718.67 65.6865H2513.58C2497.67 65.719 2482.41 72.0549 2471.16 83.3072C2459.91 94.5596 2453.57 109.812 2453.54 125.725V164.233H2224.09C2219.07 164.233 2214.25 166.229 2210.69 169.782C2207.14 173.335 2205.14 178.154 2205.14 183.179V372.767C2205.15 377.151 2206.67 381.398 2209.45 384.785C2212.23 388.173 2216.1 390.491 2220.4 391.345L2612.49 467.992C2614.89 468.482 2617.36 468.482 2619.75 467.992L3011.85 390.853C3016.1 390.045 3019.95 387.815 3022.77 384.528C3025.59 381.241 3027.2 377.094 3027.35 372.767V183.179C3027.35 180.681 3026.85 178.207 3025.89 175.9C3024.93 173.594 3023.53 171.499 3021.76 169.739C3019.98 167.978 3017.88 166.584 3015.57 165.64C3013.25 164.695 3010.78 164.217 3008.28 164.233ZM2499.18 125.725C2499.18 121.896 2500.7 118.222 2503.39 115.503C2506.09 112.784 2509.75 111.24 2513.58 111.207H2718.67C2722.48 111.239 2726.12 112.766 2728.81 115.459C2731.5 118.151 2733.03 121.794 2733.06 125.602V164.11H2499.31L2499.18 125.725Z" fill="#407BFF"/>
<path d="M3008.28 164.233H2778.71V125.725C2778.67 109.812 2772.34 94.5596 2761.09 83.3072C2749.83 72.0549 2734.58 65.719 2718.67 65.6865H2513.58C2497.67 65.719 2482.41 72.0549 2471.16 83.3072C2459.91 94.5596 2453.57 109.812 2453.54 125.725V164.233H2224.09C2219.07 164.233 2214.25 166.229 2210.69 169.782C2207.14 173.335 2205.14 178.154 2205.14 183.179V372.767C2205.15 377.151 2206.67 381.398 2209.45 384.785C2212.23 388.173 2216.1 390.491 2220.4 391.345L2612.49 467.992C2614.89 468.482 2617.36 468.482 2619.75 467.992L3011.85 390.853C3016.1 390.045 3019.95 387.815 3022.77 384.528C3025.59 381.241 3027.2 377.094 3027.35 372.767V183.179C3027.35 180.681 3026.85 178.207 3025.89 175.9C3024.93 173.594 3023.53 171.499 3021.76 169.739C3019.98 167.978 3017.88 166.584 3015.57 165.64C3013.25 164.695 3010.78 164.217 3008.28 164.233ZM2499.18 125.725C2499.18 121.896 2500.7 118.222 2503.39 115.503C2506.09 112.784 2509.75 111.24 2513.58 111.207H2718.67C2722.48 111.239 2726.12 112.766 2728.81 115.459C2731.5 118.151 2733.03 121.794 2733.06 125.602V164.11H2499.31L2499.18 125.725Z" fill="#F97316"/>
<path d="M2656.66 416.812H2575.71C2565.65 416.812 2557.5 424.964 2557.5 435.02V486.2C2557.5 496.256 2565.65 504.408 2575.71 504.408H2656.66C2666.72 504.408 2674.87 496.256 2674.87 486.2V435.02C2674.87 424.964 2666.72 416.812 2656.66 416.812Z" fill="#407BFF"/>
<path d="M2656.66 416.812H2575.71C2565.65 416.812 2557.5 424.964 2557.5 435.02V486.2C2557.5 496.256 2565.65 504.408 2575.71 504.408H2656.66C2666.72 504.408 2674.87 496.256 2674.87 486.2V435.02C2674.87 424.964 2666.72 416.812 2656.66 416.812Z" fill="#D75A04"/>
<path d="M1821.17 2556.17H1069.59C1058.99 2556.17 1050.39 2564.76 1050.39 2575.36V2888.84C1050.39 2899.44 1058.99 2908.03 1069.59 2908.03H1821.17C1831.77 2908.03 1840.36 2899.44 1840.36 2888.84V2575.36C1840.36 2564.76 1831.77 2556.17 1821.17 2556.17Z" fill="#407BFF"/>
<path d="M1821.17 2556.17H1069.59C1058.99 2556.17 1050.39 2564.76 1050.39 2575.36V2888.84C1050.39 2899.44 1058.99 2908.03 1069.59 2908.03H1821.17C1831.77 2908.03 1840.36 2899.44 1840.36 2888.84V2575.36C1840.36 2564.76 1831.77 2556.17 1821.17 2556.17Z" fill="#F97316"/>
<path opacity="0.1" d="M1821.66 2556.17H1069.59C1064.5 2556.17 1059.61 2558.19 1056.01 2561.79C1052.42 2565.39 1050.39 2570.27 1050.39 2575.36V2675.87L1441.63 2752.89C1444.06 2753.38 1446.57 2753.38 1449.01 2752.89L1840.36 2675.87V2575.36C1840.37 2570.35 1838.41 2565.54 1834.92 2561.96C1831.42 2558.37 1826.67 2556.29 1821.66 2556.17Z" fill="black"/>
<path d="M1837.41 2427.48H1607.84V2388.97C1607.81 2373.06 1601.47 2357.8 1590.22 2346.55C1578.97 2335.3 1563.71 2328.96 1547.8 2328.93H1342.83C1326.92 2328.96 1311.67 2335.3 1300.42 2346.55C1289.16 2357.8 1282.83 2373.06 1282.8 2388.97V2427.48H1053.22C1048.2 2427.48 1043.38 2429.47 1039.83 2433.03C1036.27 2436.58 1034.28 2441.4 1034.28 2446.42V2636.01C1034.3 2640.39 1035.83 2644.62 1038.61 2648.01C1041.39 2651.39 1045.24 2653.71 1049.53 2654.59L1441.63 2731.73C1444.07 2732.1 1446.56 2732.1 1449.01 2731.73L1841.1 2654.59C1845.39 2653.71 1849.25 2651.39 1852.03 2648.01C1854.8 2644.62 1856.33 2640.39 1856.36 2636.01V2446.42C1856.36 2441.4 1854.36 2436.58 1850.81 2433.03C1847.25 2429.47 1842.44 2427.48 1837.41 2427.48ZM1328.32 2388.97C1328.38 2385.14 1329.93 2381.48 1332.64 2378.77C1335.35 2376.06 1339 2374.51 1342.83 2374.45H1547.8C1551.63 2374.51 1555.29 2376.06 1558 2378.77C1560.7 2381.48 1562.25 2385.14 1562.32 2388.97V2427.48H1328.56L1328.32 2388.97Z" fill="#407BFF"/>
<path d="M1837.41 2427.48H1607.84V2388.97C1607.81 2373.06 1601.47 2357.8 1590.22 2346.55C1578.97 2335.3 1563.71 2328.96 1547.8 2328.93H1342.83C1326.92 2328.96 1311.67 2335.3 1300.42 2346.55C1289.16 2357.8 1282.83 2373.06 1282.8 2388.97V2427.48H1053.22C1048.2 2427.48 1043.38 2429.47 1039.83 2433.03C1036.27 2436.58 1034.28 2441.4 1034.28 2446.42V2636.01C1034.3 2640.39 1035.83 2644.62 1038.61 2648.01C1041.39 2651.39 1045.24 2653.71 1049.53 2654.59L1441.63 2731.73C1444.07 2732.1 1446.56 2732.1 1449.01 2731.73L1841.1 2654.59C1845.39 2653.71 1849.25 2651.39 1852.03 2648.01C1854.8 2644.62 1856.33 2640.39 1856.36 2636.01V2446.42C1856.36 2441.4 1854.36 2436.58 1850.81 2433.03C1847.25 2429.47 1842.44 2427.48 1837.41 2427.48ZM1328.32 2388.97C1328.38 2385.14 1329.93 2381.48 1332.64 2378.77C1335.35 2376.06 1339 2374.51 1342.83 2374.45H1547.8C1551.63 2374.51 1555.29 2376.06 1558 2378.77C1560.7 2381.48 1562.25 2385.14 1562.32 2388.97V2427.48H1328.56L1328.32 2388.97Z" fill="#F97316"/>
<path d="M1485.79 2679.93H1404.84C1394.78 2679.93 1386.63 2688.08 1386.63 2698.14V2749.32C1386.63 2759.38 1394.78 2767.53 1404.84 2767.53H1485.79C1495.85 2767.53 1504 2759.38 1504 2749.32V2698.14C1504 2688.08 1495.85 2679.93 1485.79 2679.93Z" fill="#407BFF"/>
<path d="M1485.79 2679.93H1404.84C1394.78 2679.93 1386.63 2688.08 1386.63 2698.14V2749.32C1386.63 2759.38 1394.78 2767.53 1404.84 2767.53H1485.79C1495.85 2767.53 1504 2759.38 1504 2749.32V2698.14C1504 2688.08 1495.85 2679.93 1485.79 2679.93Z" fill="#D75A04"/>
<path d="M1821.17 292.921H1069.59C1058.99 292.921 1050.39 301.514 1050.39 312.114V625.592C1050.39 636.192 1058.99 644.785 1069.59 644.785H1821.17C1831.77 644.785 1840.36 636.192 1840.36 625.592V312.114C1840.36 301.514 1831.77 292.921 1821.17 292.921Z" fill="#407BFF"/>
<path d="M1821.17 292.921H1069.59C1058.99 292.921 1050.39 301.514 1050.39 312.114V625.592C1050.39 636.192 1058.99 644.785 1069.59 644.785H1821.17C1831.77 644.785 1840.36 636.192 1840.36 625.592V312.114C1840.36 301.514 1831.77 292.921 1821.17 292.921Z" fill="#F97316"/>
<path opacity="0.1" d="M1821.66 292.921H1069.59C1064.5 292.921 1059.61 294.943 1056.01 298.543C1052.42 302.142 1050.39 307.024 1050.39 312.114V412.629L1441.63 489.645C1444.06 490.139 1446.57 490.139 1449.01 489.645L1840.36 412.629V312.114C1840.37 307.108 1838.41 302.299 1834.92 298.714C1831.42 295.128 1826.67 293.05 1821.66 292.921Z" fill="black"/>
<path d="M1837.41 164.233H1607.84V125.725C1607.81 109.812 1601.47 94.5596 1590.22 83.3072C1578.97 72.0549 1563.71 65.719 1547.8 65.6865H1342.83C1326.92 65.719 1311.67 72.0549 1300.42 83.3072C1289.16 94.5596 1282.83 109.812 1282.8 125.725V164.233H1053.22C1048.2 164.233 1043.38 166.229 1039.83 169.782C1036.27 173.335 1034.28 178.154 1034.28 183.179V372.767C1034.28 377.151 1035.8 381.398 1038.58 384.785C1041.36 388.173 1045.23 390.491 1049.53 391.345L1441.63 467.992C1444.06 468.486 1446.57 468.486 1449.01 467.992L1841.1 390.853C1845.4 389.999 1849.27 387.68 1852.05 384.293C1854.83 380.906 1856.36 376.658 1856.36 372.275V183.179C1856.36 178.154 1854.36 173.335 1850.81 169.782C1847.25 166.229 1842.44 164.233 1837.41 164.233ZM1328.32 125.725C1328.35 121.884 1329.89 118.211 1332.6 115.495C1335.32 112.779 1338.99 111.239 1342.83 111.207H1547.8C1551.62 111.239 1555.28 112.762 1557.99 115.451C1560.7 118.14 1562.25 121.783 1562.32 125.602V164.11H1328.56L1328.32 125.725Z" fill="#407BFF"/>
<path d="M1837.41 164.233H1607.84V125.725C1607.81 109.812 1601.47 94.5596 1590.22 83.3072C1578.97 72.0549 1563.71 65.719 1547.8 65.6865H1342.83C1326.92 65.719 1311.67 72.0549 1300.42 83.3072C1289.16 94.5596 1282.83 109.812 1282.8 125.725V164.233H1053.22C1048.2 164.233 1043.38 166.229 1039.83 169.782C1036.27 173.335 1034.28 178.154 1034.28 183.179V372.767C1034.28 377.151 1035.8 381.398 1038.58 384.785C1041.36 388.173 1045.23 390.491 1049.53 391.345L1441.63 467.992C1444.06 468.486 1446.57 468.486 1449.01 467.992L1841.1 390.853C1845.4 389.999 1849.27 387.68 1852.05 384.293C1854.83 380.906 1856.36 376.658 1856.36 372.275V183.179C1856.36 178.154 1854.36 173.335 1850.81 169.782C1847.25 166.229 1842.44 164.233 1837.41 164.233ZM1328.32 125.725C1328.35 121.884 1329.89 118.211 1332.6 115.495C1335.32 112.779 1338.99 111.239 1342.83 111.207H1547.8C1551.62 111.239 1555.28 112.762 1557.99 115.451C1560.7 118.14 1562.25 121.783 1562.32 125.602V164.11H1328.56L1328.32 125.725Z" fill="#F97316"/>
<path d="M1485.79 416.812H1404.84C1394.78 416.812 1386.63 424.964 1386.63 435.02V486.2C1386.63 496.256 1394.78 504.408 1404.84 504.408H1485.79C1495.85 504.408 1504 496.256 1504 486.2V435.02C1504 424.964 1495.85 416.812 1485.79 416.812Z" fill="#407BFF"/>
<path d="M1485.79 416.812H1404.84C1394.78 416.812 1386.63 424.964 1386.63 435.02V486.2C1386.63 496.256 1394.78 504.408 1404.84 504.408H1485.79C1495.85 504.408 1504 496.256 1504 486.2V435.02C1504 424.964 1495.85 416.812 1485.79 416.812Z" fill="#D75A04"/>
<path d="M1723.24 1776.41H1069.59C1064.46 1776.41 1059.55 1774.37 1055.93 1770.75C1052.31 1767.13 1050.27 1762.21 1050.27 1757.09V1443.74C1050.29 1441.15 1050.83 1438.6 1051.87 1436.23C1052.37 1435.13 1052.95 1434.06 1053.59 1433.03C1054.28 1431.98 1055.11 1431.03 1056.05 1430.2C1059.64 1426.6 1064.5 1424.56 1069.59 1424.54H1688.3C1683.15 1467.48 1681.47 1510.76 1683.26 1553.97C1683.26 1560.98 1683.26 1568 1684.36 1574.89C1685.22 1587.8 1686.21 1600.84 1687.68 1613.76C1694.02 1669.04 1705.93 1723.53 1723.24 1776.41Z" fill="#407BFF"/>
<path d="M1723.24 1776.41H1069.59C1064.46 1776.41 1059.55 1774.37 1055.93 1770.75C1052.31 1767.13 1050.27 1762.21 1050.27 1757.09V1443.74C1050.29 1441.15 1050.83 1438.6 1051.87 1436.23C1052.37 1435.13 1052.95 1434.06 1053.59 1433.03C1054.28 1431.98 1055.11 1431.03 1056.05 1430.2C1059.64 1426.6 1064.5 1424.56 1069.59 1424.54H1688.3C1683.15 1467.48 1681.47 1510.76 1683.26 1553.97C1683.26 1560.98 1683.26 1568 1684.36 1574.89C1685.22 1587.8 1686.21 1600.84 1687.68 1613.76C1694.02 1669.04 1705.93 1723.53 1723.24 1776.41Z" fill="#F97316"/>
<path opacity="0.1" d="M1688.3 1424.54C1683.15 1467.48 1681.47 1510.76 1683.26 1553.97C1683.26 1560.98 1683.26 1568 1684.36 1574.89L1504 1610.32L1448.88 1621.14C1446.5 1621.76 1444.01 1621.76 1441.63 1621.14L1386.63 1610.44L1050.39 1544.25V1443.61C1050.43 1441.08 1050.93 1438.58 1051.87 1436.23C1052.37 1435.13 1052.95 1434.06 1053.59 1433.03C1054.28 1431.98 1055.11 1431.03 1056.05 1430.2C1059.64 1426.6 1064.5 1424.56 1069.59 1424.54H1688.3Z" fill="black"/>
<path d="M1714.01 1295.85H1607.96V1257.35C1607.9 1241.42 1601.53 1226.17 1590.26 1214.92C1578.99 1203.67 1563.72 1197.34 1547.8 1197.31H1342.83C1326.91 1197.31 1311.64 1203.63 1300.38 1214.89C1289.12 1226.15 1282.8 1241.42 1282.8 1257.35V1295.85H1053.22C1050.73 1295.85 1048.27 1296.35 1045.97 1297.3C1043.67 1298.25 1041.59 1299.64 1039.83 1301.4C1038.07 1303.16 1036.67 1305.25 1035.72 1307.55C1034.77 1309.85 1034.28 1312.31 1034.28 1314.8V1504.27C1034.28 1508.68 1035.81 1512.96 1038.62 1516.37C1041.42 1519.78 1045.32 1522.11 1049.66 1522.97H1050.39L1386.63 1589.28L1441.63 1599.98C1444.02 1600.47 1446.49 1600.47 1448.88 1599.98L1504 1589.16L1683.26 1553.85C1681.47 1510.64 1683.15 1467.36 1688.3 1424.42C1693.41 1380.95 1702.01 1337.95 1714.01 1295.85ZM1328.32 1257.35C1328.38 1253.53 1329.93 1249.89 1332.65 1247.2C1335.36 1244.51 1339.01 1242.98 1342.83 1242.95H1547.8C1551.61 1242.98 1555.25 1244.51 1557.94 1247.2C1560.64 1249.9 1562.16 1253.54 1562.19 1257.35V1295.85H1328.44L1328.32 1257.35Z" fill="#407BFF"/>
<path d="M1714.01 1295.85H1607.96V1257.35C1607.9 1241.42 1601.53 1226.17 1590.26 1214.92C1578.99 1203.67 1563.72 1197.34 1547.8 1197.31H1342.83C1326.91 1197.31 1311.64 1203.63 1300.38 1214.89C1289.12 1226.15 1282.8 1241.42 1282.8 1257.35V1295.85H1053.22C1050.73 1295.85 1048.27 1296.35 1045.97 1297.3C1043.67 1298.25 1041.59 1299.64 1039.83 1301.4C1038.07 1303.16 1036.67 1305.25 1035.72 1307.55C1034.77 1309.85 1034.28 1312.31 1034.28 1314.8V1504.27C1034.28 1508.68 1035.81 1512.96 1038.62 1516.37C1041.42 1519.78 1045.32 1522.11 1049.66 1522.97H1050.39L1386.63 1589.28L1441.63 1599.98C1444.02 1600.47 1446.49 1600.47 1448.88 1599.98L1504 1589.16L1683.26 1553.85C1681.47 1510.64 1683.15 1467.36 1688.3 1424.42C1693.41 1380.95 1702.01 1337.95 1714.01 1295.85ZM1328.32 1257.35C1328.38 1253.53 1329.93 1249.89 1332.65 1247.2C1335.36 1244.51 1339.01 1242.98 1342.83 1242.95H1547.8C1551.61 1242.98 1555.25 1244.51 1557.94 1247.2C1560.64 1249.9 1562.16 1253.54 1562.19 1257.35V1295.85H1328.44L1328.32 1257.35Z" fill="#F97316"/>
<path d="M1485.79 1548.31H1404.84C1394.78 1548.31 1386.63 1556.46 1386.63 1566.52V1617.7C1386.63 1627.76 1394.78 1635.91 1404.84 1635.91H1485.79C1495.85 1635.91 1504 1627.76 1504 1617.7V1566.52C1504 1556.46 1495.85 1548.31 1485.79 1548.31Z" fill="#407BFF"/>
<path d="M1485.79 1548.31H1404.84C1394.78 1548.31 1386.63 1556.46 1386.63 1566.52V1617.7C1386.63 1627.76 1394.78 1635.91 1404.84 1635.91H1485.79C1495.85 1635.91 1504 1627.76 1504 1617.7V1566.52C1504 1556.46 1495.85 1548.31 1485.79 1548.31Z" fill="#D75A04"/>
<path d="M3411.08 2907.91H4162.66C4173.26 2907.91 4181.85 2899.31 4181.85 2888.71V2575.23C4181.85 2564.64 4173.26 2556.04 4162.66 2556.04H3411.08C3400.48 2556.04 3391.88 2564.64 3391.88 2575.23V2888.71C3391.88 2899.31 3400.48 2907.91 3411.08 2907.91Z" fill="#407BFF"/>
<path d="M3411.08 2907.91H4162.66C4173.26 2907.91 4181.85 2899.31 4181.85 2888.71V2575.23C4181.85 2564.64 4173.26 2556.04 4162.66 2556.04H3411.08C3400.48 2556.04 3391.88 2564.64 3391.88 2575.23V2888.71C3391.88 2899.31 3400.48 2907.91 3411.08 2907.91Z" fill="#F97316"/>
<path opacity="0.1" d="M3411.2 2556.17H4162.66C4167.75 2556.17 4172.63 2558.19 4176.23 2561.79C4179.83 2565.39 4181.85 2570.27 4181.85 2575.36V2675.87L3790.13 2752.89C3787.73 2753.38 3785.26 2753.38 3782.87 2752.89L3391.51 2675.87V2575.36C3391.51 2572.8 3392.03 2570.26 3393.02 2567.9C3394.02 2565.54 3395.47 2563.4 3397.31 2561.61C3399.14 2559.82 3401.32 2558.42 3403.7 2557.48C3406.09 2556.55 3408.64 2556.1 3411.2 2556.17Z" fill="black"/>
<path d="M3394.84 2427.48H3624.41V2388.97C3624.44 2373.06 3630.78 2357.8 3642.03 2346.55C3653.28 2335.3 3668.53 2328.96 3684.45 2328.93H3889.54C3905.45 2328.96 3920.7 2335.3 3931.95 2346.55C3943.21 2357.8 3949.54 2373.06 3949.57 2388.97V2427.48H4179.02C4181.51 2427.48 4183.98 2427.97 4186.27 2428.92C4188.57 2429.87 4190.66 2431.27 4192.42 2433.03C4194.18 2434.79 4195.58 2436.87 4196.53 2439.17C4197.48 2441.47 4197.97 2443.94 4197.97 2446.42V2636.01C4197.95 2640.39 4196.42 2644.62 4193.64 2648.01C4190.86 2651.39 4187 2653.71 4182.71 2654.59L3790.13 2731.73C3787.68 2732.1 3785.19 2732.1 3782.75 2731.73L3390.65 2654.59C3386.36 2653.71 3382.51 2651.39 3379.73 2648.01C3376.95 2644.62 3375.42 2640.39 3375.4 2636.01V2446.42C3375.4 2443.89 3375.9 2441.39 3376.89 2439.06C3377.87 2436.73 3379.31 2434.62 3381.12 2432.85C3382.93 2431.08 3385.08 2429.7 3387.43 2428.78C3389.79 2427.85 3392.31 2427.41 3394.84 2427.48ZM3903.93 2388.97C3903.9 2385.15 3902.38 2381.49 3899.69 2378.78C3897 2376.07 3893.35 2374.52 3889.54 2374.45H3684.45C3680.62 2374.51 3676.96 2376.06 3674.25 2378.77C3671.54 2381.48 3669.99 2385.14 3669.93 2388.97V2427.48H3903.68L3903.93 2388.97Z" fill="#407BFF"/>
<path d="M3394.84 2427.48H3624.41V2388.97C3624.44 2373.06 3630.78 2357.8 3642.03 2346.55C3653.28 2335.3 3668.53 2328.96 3684.45 2328.93H3889.54C3905.45 2328.96 3920.7 2335.3 3931.95 2346.55C3943.21 2357.8 3949.54 2373.06 3949.57 2388.97V2427.48H4179.02C4181.51 2427.48 4183.98 2427.97 4186.27 2428.92C4188.57 2429.87 4190.66 2431.27 4192.42 2433.03C4194.18 2434.79 4195.58 2436.87 4196.53 2439.17C4197.48 2441.47 4197.97 2443.94 4197.97 2446.42V2636.01C4197.95 2640.39 4196.42 2644.62 4193.64 2648.01C4190.86 2651.39 4187 2653.71 4182.71 2654.59L3790.13 2731.73C3787.68 2732.1 3785.19 2732.1 3782.75 2731.73L3390.65 2654.59C3386.36 2653.71 3382.51 2651.39 3379.73 2648.01C3376.95 2644.62 3375.42 2640.39 3375.4 2636.01V2446.42C3375.4 2443.89 3375.9 2441.39 3376.89 2439.06C3377.87 2436.73 3379.31 2434.62 3381.12 2432.85C3382.93 2431.08 3385.08 2429.7 3387.43 2428.78C3389.79 2427.85 3392.31 2427.41 3394.84 2427.48ZM3903.93 2388.97C3903.9 2385.15 3902.38 2381.49 3899.69 2378.78C3897 2376.07 3893.35 2374.52 3889.54 2374.45H3684.45C3680.62 2374.51 3676.96 2376.06 3674.25 2378.77C3671.54 2381.48 3669.99 2385.14 3669.93 2388.97V2427.48H3903.68L3903.93 2388.97Z" fill="#F97316"/>
<path d="M3746.45 2767.53H3827.41C3837.46 2767.53 3845.62 2759.38 3845.62 2749.32V2698.14C3845.62 2688.09 3837.46 2679.93 3827.41 2679.93H3746.45C3736.4 2679.93 3728.25 2688.09 3728.25 2698.14V2749.32C3728.25 2759.38 3736.4 2767.53 3746.45 2767.53Z" fill="#407BFF"/>
<path d="M3746.45 2767.53H3827.41C3837.46 2767.53 3845.62 2759.38 3845.62 2749.32V2698.14C3845.62 2688.09 3837.46 2679.93 3827.41 2679.93H3746.45C3736.4 2679.93 3728.25 2688.09 3728.25 2698.14V2749.32C3728.25 2759.38 3736.4 2767.53 3746.45 2767.53Z" fill="#D75A04"/>
<path d="M3411.08 644.662L4162.66 644.662C4173.26 644.662 4181.85 636.069 4181.85 625.469V311.991C4181.85 301.391 4173.26 292.798 4162.66 292.798L3411.08 292.798C3400.48 292.798 3391.88 301.391 3391.88 311.991V625.469C3391.88 636.069 3400.48 644.662 3411.08 644.662Z" fill="#407BFF"/>
<path d="M3411.08 644.662L4162.66 644.662C4173.26 644.662 4181.85 636.069 4181.85 625.469V311.991C4181.85 301.391 4173.26 292.798 4162.66 292.798L3411.08 292.798C3400.48 292.798 3391.88 301.391 3391.88 311.991V625.469C3391.88 636.069 3400.48 644.662 3411.08 644.662Z" fill="#F97316"/>
<path opacity="0.1" d="M3411.2 292.921H4162.66C4167.75 292.921 4172.63 294.943 4176.23 298.543C4179.83 302.142 4181.85 307.024 4181.85 312.114V412.629L3790.13 489.645C3787.73 490.136 3785.26 490.136 3782.87 489.645L3392.01 412.629V312.114C3392.01 307.024 3394.03 302.142 3397.63 298.543C3401.23 294.943 3406.11 292.921 3411.2 292.921Z" fill="black"/>
<path d="M3394.84 164.233H3624.41V125.725C3624.44 109.812 3630.78 94.5597 3642.03 83.3074C3653.28 72.0551 3668.53 65.7192 3684.45 65.6867H3889.54C3897.46 65.6381 3905.31 67.1542 3912.64 70.1482C3919.98 73.1421 3926.65 77.5548 3932.27 83.1331C3937.9 88.7114 3942.36 95.3454 3945.42 102.654C3948.47 109.963 3950.05 117.804 3950.07 125.725V164.233H4179.52C4184.54 164.233 4189.36 166.229 4192.91 169.782C4196.47 173.335 4198.46 178.155 4198.46 183.179V372.767C4198.46 377.151 4196.94 381.398 4194.16 384.785C4191.38 388.173 4187.51 390.491 4183.21 391.345L3790.13 467.992C3787.69 468.486 3785.18 468.486 3782.75 467.992L3390.65 390.853C3386.35 389.999 3382.48 387.681 3379.7 384.293C3376.92 380.906 3375.4 376.659 3375.4 372.275V183.179C3375.4 180.649 3375.9 178.145 3376.89 175.814C3377.87 173.482 3379.31 171.371 3381.12 169.605C3382.93 167.839 3385.08 166.454 3387.43 165.532C3389.79 164.609 3392.31 164.167 3394.84 164.233ZM3903.93 125.725C3903.93 121.896 3902.42 118.222 3899.72 115.503C3897.03 112.784 3893.36 111.24 3889.54 111.207H3684.45C3680.63 111.239 3676.97 112.762 3674.26 115.451C3671.55 118.14 3669.99 121.783 3669.93 125.602V164.11H3903.68L3903.93 125.725Z" fill="#407BFF"/>
<path d="M3394.84 164.233H3624.41V125.725C3624.44 109.812 3630.78 94.5597 3642.03 83.3074C3653.28 72.0551 3668.53 65.7192 3684.45 65.6867H3889.54C3897.46 65.6381 3905.31 67.1542 3912.64 70.1482C3919.98 73.1421 3926.65 77.5548 3932.27 83.1331C3937.9 88.7114 3942.36 95.3454 3945.42 102.654C3948.47 109.963 3950.05 117.804 3950.07 125.725V164.233H4179.52C4184.54 164.233 4189.36 166.229 4192.91 169.782C4196.47 173.335 4198.46 178.155 4198.46 183.179V372.767C4198.46 377.151 4196.94 381.398 4194.16 384.785C4191.38 388.173 4187.51 390.491 4183.21 391.345L3790.13 467.992C3787.69 468.486 3785.18 468.486 3782.75 467.992L3390.65 390.853C3386.35 389.999 3382.48 387.681 3379.7 384.293C3376.92 380.906 3375.4 376.659 3375.4 372.275V183.179C3375.4 180.649 3375.9 178.145 3376.89 175.814C3377.87 173.482 3379.31 171.371 3381.12 169.605C3382.93 167.839 3385.08 166.454 3387.43 165.532C3389.79 164.609 3392.31 164.167 3394.84 164.233ZM3903.93 125.725C3903.93 121.896 3902.42 118.222 3899.72 115.503C3897.03 112.784 3893.36 111.24 3889.54 111.207H3684.45C3680.63 111.239 3676.97 112.762 3674.26 115.451C3671.55 118.14 3669.99 121.783 3669.93 125.602V164.11H3903.68L3903.93 125.725Z" fill="#F97316"/>
<path d="M3746.45 504.286H3827.41C3837.46 504.286 3845.62 496.133 3845.62 486.077V434.897C3845.62 424.841 3837.46 416.689 3827.41 416.689H3746.45C3736.4 416.689 3728.25 424.841 3728.25 434.897V486.077C3728.25 496.133 3736.4 504.286 3746.45 504.286Z" fill="#407BFF"/>
<path d="M3746.45 504.286H3827.41C3837.46 504.286 3845.62 496.133 3845.62 486.077V434.897C3845.62 424.841 3837.46 416.689 3827.41 416.689H3746.45C3736.4 416.689 3728.25 424.841 3728.25 434.897V486.077C3728.25 496.133 3736.4 504.286 3746.45 504.286Z" fill="#D75A04"/>
<path d="M3509.5 1776.41H4162.78C4167.89 1776.37 4172.77 1774.32 4176.36 1770.71C4179.96 1767.09 4181.98 1762.19 4181.98 1757.09V1443.74C4181.96 1441.15 4181.41 1438.6 4180.38 1436.23C4179.93 1435.1 4179.35 1434.03 4178.66 1433.03C4177.97 1431.98 4177.14 1431.03 4176.19 1430.2C4174.43 1428.41 4172.32 1426.98 4170 1426.01C4167.67 1425.04 4165.18 1424.54 4162.66 1424.54H3544.07C3549.22 1467.48 3550.91 1510.76 3549.12 1553.97C3549.12 1560.98 3549.12 1568 3548.01 1574.89C3547.27 1587.8 3546.16 1600.84 3544.69 1613.76C3538.47 1669.03 3526.69 1723.52 3509.5 1776.41Z" fill="#407BFF"/>
<path d="M3509.5 1776.41H4162.78C4167.89 1776.37 4172.77 1774.32 4176.36 1770.71C4179.96 1767.09 4181.98 1762.19 4181.98 1757.09V1443.74C4181.96 1441.15 4181.41 1438.6 4180.38 1436.23C4179.93 1435.1 4179.35 1434.03 4178.66 1433.03C4177.97 1431.98 4177.14 1431.03 4176.19 1430.2C4174.43 1428.41 4172.32 1426.98 4170 1426.01C4167.67 1425.04 4165.18 1424.54 4162.66 1424.54H3544.07C3549.22 1467.48 3550.91 1510.76 3549.12 1553.97C3549.12 1560.98 3549.12 1568 3548.01 1574.89C3547.27 1587.8 3546.16 1600.84 3544.69 1613.76C3538.47 1669.03 3526.69 1723.52 3509.5 1776.41Z" fill="#F97316"/>
<path opacity="0.1" d="M3544.07 1424.54C3549.22 1467.48 3550.9 1510.76 3549.11 1553.97C3549.11 1560.98 3549.11 1568 3548.01 1574.89L3728.61 1610.32L3783.73 1621.14C3786.11 1621.76 3788.61 1621.76 3790.99 1621.14L3845.98 1610.44L4182.22 1544.25V1443.61C4182.18 1441.08 4181.68 1438.58 4180.75 1436.23C4180.3 1435.1 4179.72 1434.03 4179.02 1433.03C4178.34 1431.98 4177.51 1431.03 4176.56 1430.2C4174.8 1428.41 4172.69 1426.98 4170.37 1426.01C4168.04 1425.04 4165.55 1424.54 4163.03 1424.54H3544.07Z" fill="black"/>
<path d="M3518.23 1295.85H3624.41V1257.35C3624.44 1241.43 3630.78 1226.18 3642.03 1214.93C3653.28 1203.68 3668.53 1197.34 3684.45 1197.31H3889.41C3905.35 1197.31 3920.63 1203.63 3931.91 1214.89C3943.19 1226.14 3949.54 1241.41 3949.57 1257.35V1295.85H4179.02C4184.05 1295.85 4188.87 1297.85 4192.42 1301.4C4195.97 1304.96 4197.97 1309.78 4197.97 1314.8V1504.27C4197.97 1508.66 4196.46 1512.93 4193.68 1516.34C4190.9 1519.74 4187.02 1522.09 4182.71 1522.97H4181.85L3845.62 1589.28L3790.13 1599.86C3787.73 1600.35 3785.26 1600.35 3782.87 1599.86L3727.75 1589.03L3548.5 1553.72C3551.99 1466.52 3541.61 1379.31 3517.74 1295.36L3518.23 1295.85ZM3903.93 1257.35C3903.87 1253.53 3902.31 1249.89 3899.6 1247.2C3896.89 1244.51 3893.23 1242.98 3889.41 1242.95H3684.45C3680.64 1242.98 3677 1244.51 3674.3 1247.2C3671.61 1249.9 3670.08 1253.54 3670.05 1257.35V1295.85H3903.81L3903.93 1257.35Z" fill="#407BFF"/>
<path d="M3518.23 1295.85H3624.41V1257.35C3624.44 1241.43 3630.78 1226.18 3642.03 1214.93C3653.28 1203.68 3668.53 1197.34 3684.45 1197.31H3889.41C3905.35 1197.31 3920.63 1203.63 3931.91 1214.89C3943.19 1226.14 3949.54 1241.41 3949.57 1257.35V1295.85H4179.02C4184.05 1295.85 4188.87 1297.85 4192.42 1301.4C4195.97 1304.96 4197.97 1309.78 4197.97 1314.8V1504.27C4197.97 1508.66 4196.46 1512.93 4193.68 1516.34C4190.9 1519.74 4187.02 1522.09 4182.71 1522.97H4181.85L3845.62 1589.28L3790.13 1599.86C3787.73 1600.35 3785.26 1600.35 3782.87 1599.86L3727.75 1589.03L3548.5 1553.72C3551.99 1466.52 3541.61 1379.31 3517.74 1295.36L3518.23 1295.85ZM3903.93 1257.35C3903.87 1253.53 3902.31 1249.89 3899.6 1247.2C3896.89 1244.51 3893.23 1242.98 3889.41 1242.95H3684.45C3680.64 1242.98 3677 1244.51 3674.3 1247.2C3671.61 1249.9 3670.08 1253.54 3670.05 1257.35V1295.85H3903.81L3903.93 1257.35Z" fill="#F97316"/>
<path d="M3746.45 1636.03H3827.41C3837.46 1636.03 3845.62 1627.88 3845.62 1617.82V1566.64C3845.62 1556.59 3837.46 1548.43 3827.41 1548.43H3746.45C3736.4 1548.43 3728.25 1556.59 3728.25 1566.64V1617.82C3728.25 1627.88 3736.4 1636.03 3746.45 1636.03Z" fill="#407BFF"/>
<path d="M3746.45 1636.03H3827.41C3837.46 1636.03 3845.62 1627.88 3845.62 1617.82V1566.64C3845.62 1556.59 3837.46 1548.43 3827.41 1548.43H3746.45C3736.4 1548.43 3728.25 1556.59 3728.25 1566.64V1617.82C3728.25 1627.88 3736.4 1636.03 3746.45 1636.03Z" fill="#D75A04"/>
<path d="M3195.9 1348.14H2115.95C2100.73 1348.14 2088.39 1360.48 2088.39 1375.7V1826.11C2088.39 1841.33 2100.73 1853.67 2115.95 1853.67H3195.9C3211.12 1853.67 3223.46 1841.33 3223.46 1826.11V1375.7C3223.46 1360.48 3211.12 1348.14 3195.9 1348.14Z" fill="#F97316"/>
<path d="M2803.19 1267.68H2508.53C2486.19 1267.65 2464.78 1258.76 2448.98 1242.96C2433.18 1227.16 2424.29 1205.75 2424.26 1183.41V1107.74C2424.29 1085.4 2433.18 1063.99 2448.98 1048.19C2464.78 1032.39 2486.19 1023.5 2508.53 1023.47H2803.19C2825.54 1023.47 2846.98 1032.35 2862.78 1048.15C2878.59 1063.96 2887.46 1085.39 2887.46 1107.74V1183.04C2887.51 1194.14 2885.37 1205.13 2881.16 1215.4C2876.94 1225.67 2870.74 1235 2862.91 1242.87C2855.08 1250.73 2845.77 1256.97 2835.53 1261.23C2825.28 1265.49 2814.29 1267.68 2803.19 1267.68ZM2508.53 1085.35C2502.6 1085.42 2496.93 1087.79 2492.73 1091.97C2488.52 1096.16 2486.12 1101.81 2486.02 1107.74V1183.04C2486.02 1189.07 2488.42 1194.86 2492.69 1199.13C2496.96 1203.4 2502.74 1205.8 2508.78 1205.8H2803.44C2809.47 1205.8 2815.26 1203.4 2819.53 1199.13C2823.8 1194.86 2826.2 1189.07 2826.2 1183.04V1107.74C2826.2 1101.71 2823.8 1095.92 2819.53 1091.65C2815.26 1087.38 2809.47 1084.98 2803.44 1084.98L2508.53 1085.35Z" fill="#F97316"/>
<path opacity="0.2" d="M3195.78 1348.14H2116.07C2112.44 1348.13 2108.85 1348.83 2105.49 1350.2C2102.13 1351.58 2099.08 1353.61 2096.5 1356.17C2093.93 1358.73 2091.89 1361.77 2090.5 1365.13C2089.11 1368.48 2088.39 1372.07 2088.39 1375.7V1520.26L2650.63 1630.99C2654.08 1631.74 2657.64 1631.74 2661.09 1630.99L3223.46 1520.26V1375.7C3223.46 1372.07 3222.74 1368.48 3221.35 1365.13C3219.95 1361.77 3217.91 1358.73 3215.34 1356.17C3212.77 1353.61 3209.72 1351.58 3206.36 1350.2C3203 1348.83 3199.4 1348.13 3195.78 1348.14Z" fill="black"/>
<path d="M3224.2 1489.13L2660.84 1599.86C2657.34 1600.48 2653.76 1600.48 2650.26 1599.86L2086.91 1489.13C2080.72 1487.91 2075.15 1484.58 2071.13 1479.72C2067.12 1474.85 2064.91 1468.75 2064.89 1462.44V1190.54C2064.89 1186.97 2065.59 1183.44 2066.96 1180.14C2068.33 1176.84 2070.33 1173.84 2072.86 1171.32C2075.38 1168.79 2078.38 1166.79 2081.68 1165.42C2084.97 1164.06 2088.51 1163.35 2092.08 1163.35H3219.27C3222.84 1163.35 3226.38 1164.06 3229.68 1165.42C3232.98 1166.79 3235.98 1168.79 3238.5 1171.32C3241.02 1173.84 3243.03 1176.84 3244.39 1180.14C3245.76 1183.44 3246.46 1186.97 3246.46 1190.54V1462.93C3246.34 1469.19 3244.06 1475.22 3240 1480C3235.94 1484.77 3230.36 1488 3224.2 1489.13Z" fill="#D75A04"/>
<path d="M2714.24 1526.17H2597.73C2583.33 1526.17 2571.65 1537.84 2571.65 1552.25V1625.94C2571.65 1640.35 2583.33 1652.02 2597.73 1652.02H2714.24C2728.64 1652.02 2740.32 1640.35 2740.32 1625.94V1552.25C2740.32 1537.84 2728.64 1526.17 2714.24 1526.17Z" fill="#D75A04"/>
<path opacity="0.4" d="M2714.24 1526.17H2597.73C2583.33 1526.17 2571.65 1537.84 2571.65 1552.25V1625.94C2571.65 1640.35 2583.33 1652.02 2597.73 1652.02H2714.24C2728.64 1652.02 2740.32 1640.35 2740.32 1625.94V1552.25C2740.32 1537.84 2728.64 1526.17 2714.24 1526.17Z" fill="black"/>
<path d="M4687.01 1627.05C4701.16 1656.21 4711.62 1683.77 4723.92 1712.56C4736.22 1741.34 4745.2 1770.01 4754.8 1799.41C4774.25 1859.03 4788.62 1920.19 4797.74 1982.23C4798.97 1989.99 4799.58 1998.35 4800.44 2006.84L4801.67 2019.14C4801.67 2021.36 4801.67 2022.96 4801.67 2025.54V2033.54C4802.09 2052.19 4800.48 2070.84 4796.88 2089.15C4790.78 2120.97 4782.09 2152.24 4770.92 2182.65C4749.91 2240.46 4723.72 2296.26 4692.67 2349.35L4630.17 2322.9C4644.07 2266.8 4658.1 2209.59 4668.68 2154.35C4673.85 2127.89 4677.51 2101.14 4679.63 2074.26C4680.36 2063.27 4680.11 2052.24 4678.89 2041.29L4677.54 2033.54L4675.82 2023.7C4674.46 2017.18 4673.6 2010.65 4672 2004.01C4659.74 1949.7 4643.87 1896.27 4624.51 1844.07C4615.16 1817.38 4604.83 1790.8 4594.49 1764.1C4584.16 1737.41 4572.72 1710.59 4562.14 1685.98L4687.01 1627.05Z" fill="#7F3E3B"/>
<path d="M4632.88 2306.54L4584.9 2353.29L4689.59 2402.5C4689.59 2402.5 4714.94 2358.21 4697.47 2318.1L4632.88 2306.54Z" fill="#7F3E3B"/>
<path d="M4546.27 2423.05L4634.6 2459.22L4689.59 2402.01L4584.9 2353.29L4546.27 2423.05Z" fill="#7F3E3B"/>
<path opacity="0.2" d="M2754.35 2372.61C2928.44 2353.11 3092.84 2282.43 3226.76 2169.5C3360.69 2056.58 3458.13 1906.48 3506.75 1738.18C3555.38 1569.89 3553.01 1390.95 3499.95 1224C3446.89 1057.05 3345.52 909.579 3208.66 800.235C3071.79 690.891 2905.58 624.583 2731.03 609.695C2556.49 594.808 2381.44 632.009 2228.04 716.594C2074.63 801.18 1949.75 929.352 1869.18 1084.91C1788.62 1240.46 1755.98 1416.41 1775.4 1590.51C1788.3 1706.15 1823.86 1818.12 1880.05 1920.01C1936.23 2021.91 2011.94 2111.74 2102.85 2184.37C2193.76 2257 2298.08 2311 2409.87 2343.3C2521.66 2375.6 2638.71 2385.56 2754.35 2372.61Z" fill="#407BFF"/>
<path opacity="0.1" d="M2109.8 794.511L3456.97 1870.52C3462.75 1858.22 3468.16 1845.92 3473.45 1833.62C3507.21 1753.28 3528.78 1668.36 3537.43 1581.65L2373.82 652.536C2278.32 684.381 2189.02 732.406 2109.8 794.511Z" fill="white"/>
<path opacity="0.1" d="M1799.03 1266.08L3065.49 2278C3185.82 2215.24 3290.13 2125.66 3370.35 2016.19L1987.26 910.897C1898.13 1013.3 1833.72 1134.83 1799.03 1266.08Z" fill="white"/>
<path d="M4837.97 2487.15C4836.35 2464.76 4829.02 2443.15 4816.68 2424.4C4807.72 2410.61 4795.17 2399.51 4780.39 2392.29L4696.36 2351.08C4640.51 2323.39 4584.28 2296.45 4528.06 2269.51C4471.83 2242.56 4415.24 2216.11 4358.89 2189.42C4302.55 2162.72 4245.71 2136.76 4188.74 2111.29C4075.06 2059.78 3960.65 2009.67 3845.49 1960.95C3787.91 1936.34 3730.21 1912.72 3672.02 1889.59C3655.03 1882.9 3641.22 1870 3633.38 1853.51C3625.55 1837.02 3624.28 1818.16 3629.82 1800.77C3707.72 1555.18 3689.98 1289.23 3580.16 1056.16C3470.34 823.092 3276.54 640.102 3037.56 543.821C2798.58 447.541 2532.05 445.075 2291.33 536.917C2050.61 628.76 1853.46 808.133 1739.35 1039.13C1625.24 1270.13 1602.58 1535.7 1675.92 1782.69C1749.26 2029.68 1913.17 2239.85 2134.86 2371.14C2356.55 2502.43 2619.64 2545.15 2871.48 2490.74C3123.31 2436.33 3345.3 2288.8 3493.01 2077.71C3503.47 2062.7 3519.24 2052.23 3537.12 2048.42C3555.01 2044.6 3573.68 2047.73 3589.34 2057.16C3643.15 2089.15 3697.2 2120.6 3751.5 2151.52C3860.01 2213.37 3969.34 2273.65 4079.49 2332.38C4134.49 2362.15 4190.22 2390.81 4244.97 2419.97C4299.72 2449.13 4355.69 2477.55 4411.43 2506.09C4467.16 2534.64 4522.15 2562.56 4578.62 2590.12L4662.41 2631.71C4677.13 2639.11 4693.59 2642.34 4710.02 2641.06C4732.38 2639.47 4753.95 2632.14 4772.64 2619.77C4794.93 2606.08 4812.89 2586.36 4824.45 2562.89C4836.01 2539.42 4840.7 2513.16 4837.97 2487.15ZM2299.02 2215.01C2156 2144.43 2037.12 2033.03 1957.41 1894.89C1877.71 1756.75 1840.76 1598.08 1851.23 1438.94C1861.71 1279.8 1919.15 1127.34 2016.27 1000.85C2113.4 874.349 2245.86 779.497 2396.9 728.284C2547.94 677.072 2710.77 671.8 2864.81 713.135C3018.84 754.47 3157.16 840.555 3262.27 960.504C3367.38 1080.45 3434.55 1228.88 3455.3 1387.01C3476.05 1545.13 3449.44 1705.87 3378.84 1848.87C3331.98 1943.82 3266.88 2028.61 3187.26 2098.39C3107.63 2168.18 3015.04 2221.59 2914.76 2255.59C2814.49 2289.59 2708.5 2303.51 2602.85 2296.54C2497.2 2289.58 2393.96 2261.87 2299.02 2215.01Z" fill="#F3A56F"/>
<path d="M4223.07 1246.77C4223.07 1254.03 4219.25 1259.93 4214.46 1259.93C4209.66 1259.93 4205.84 1254.03 4205.84 1246.77C4205.84 1239.51 4209.66 1233.48 4214.46 1233.48C4219.25 1233.48 4223.07 1239.38 4223.07 1246.77Z" fill="#263238"/>
<path d="M4219.87 1259.93C4211.22 1282.22 4199.55 1303.21 4185.17 1322.31C4190.15 1325.87 4195.85 1328.3 4201.86 1329.42C4207.88 1330.55 4214.06 1330.35 4219.99 1328.83L4219.87 1259.93Z" fill="#630F0F"/>
<path d="M4248.9 1206.17C4249.8 1206.14 4250.66 1205.84 4251.37 1205.3C4252.09 1204.76 4252.62 1204.02 4252.89 1203.17C4253.16 1202.31 4253.16 1201.4 4252.88 1200.55C4252.61 1199.7 4252.08 1198.95 4251.36 1198.42C4245.93 1194.34 4239.6 1191.61 4232.91 1190.46C4226.22 1189.3 4219.34 1189.75 4212.86 1191.77C4212.28 1191.93 4211.73 1192.21 4211.27 1192.59C4210.8 1192.97 4210.42 1193.44 4210.15 1193.98C4209.88 1194.52 4209.72 1195.11 4209.69 1195.71C4209.66 1196.31 4209.75 1196.91 4209.97 1197.47C4210.19 1198.03 4210.52 1198.55 4210.94 1198.97C4211.37 1199.4 4211.88 1199.73 4212.44 1199.95C4213 1200.16 4213.6 1200.26 4214.21 1200.23C4214.81 1200.2 4215.4 1200.04 4215.93 1199.77C4221.1 1198.23 4226.55 1197.93 4231.85 1198.9C4237.15 1199.86 4242.15 1202.05 4246.44 1205.31C4247.14 1205.87 4248.01 1206.18 4248.9 1206.17Z" fill="#263238"/>
<path d="M4471.96 1301.64C4458.91 1367.83 4446 1489.01 4492.26 1533.06C4492.26 1533.06 4474.17 1600.11 4351.39 1600.11C4216.05 1600.11 4286.8 1533.06 4286.8 1533.06C4360.61 1515.46 4358.65 1460.71 4345.73 1410.03L4471.96 1301.64Z" fill="#7F3E3B"/>
<path d="M4516 1491.59C4526.21 1494.92 4512.93 1555.69 4512.93 1555.69C4512.93 1555.69 4496.07 1598.14 4286.67 1583.37C4270.56 1582.14 4276.71 1523.83 4292.09 1515.34C4341.67 1488.27 4483.03 1480.77 4516 1491.59Z" fill="#263238"/>
<path d="M4941.31 4033.5C4952.63 4032.39 4969.12 4011.6 4973.79 4003.97C4974 4003.64 4974.11 4003.26 4974.11 4002.87C4974.11 4002.47 4974 4002.09 4973.79 4001.76C4973.59 4001.39 4973.28 4001.1 4972.91 4000.93C4972.53 4000.75 4972.11 4000.7 4971.7 4000.77C4970.47 4000.77 4940.7 4006.43 4933.44 4018C4932.67 4019.21 4932.17 4020.57 4931.96 4021.99C4931.74 4023.41 4931.83 4024.86 4932.21 4026.24C4933.81 4031.65 4936.88 4033.13 4939.34 4033.5H4941.31ZM4967.27 4006.06C4959.27 4017.14 4946.11 4030.05 4939.84 4029.19C4939.22 4029.19 4937.37 4029.19 4936.27 4025.01C4936.03 4024.21 4935.97 4023.36 4936.1 4022.53C4936.22 4021.7 4936.53 4020.91 4937.01 4020.21C4945.49 4012.63 4956.01 4007.71 4967.27 4006.06Z" fill="#407BFF"/>
<path d="M4966.04 4006.06C4968.24 4005.88 4970.42 4005.51 4972.56 4004.96C4972.92 4004.84 4973.25 4004.63 4973.51 4004.35C4973.77 4004.07 4973.95 4003.73 4974.04 4003.36C4974.11 4002.97 4974.08 4002.58 4973.95 4002.21C4973.82 4001.85 4973.6 4001.52 4973.3 4001.27C4972.56 4000.53 4952.63 3983.55 4939.1 3984.9C4937.47 3985.01 4935.88 3985.46 4934.44 3986.22C4933 3986.99 4931.74 3988.05 4930.73 3989.33C4929.57 3990.45 4928.85 3991.94 4928.69 3993.54C4928.53 3995.14 4928.95 3996.75 4929.87 3998.07C4934.3 4005.08 4953.74 4007.29 4966.04 4006.06ZM4967.03 4001.76C4954.72 4003.23 4936.76 4000.77 4933.32 3995.73C4933.32 3995.73 4932.33 3994.13 4934.05 3991.92C4934.75 3991.1 4935.59 3990.44 4936.54 3989.95C4937.49 3989.46 4938.53 3989.17 4939.59 3989.09C4949.79 3990.5 4959.34 3994.91 4967.03 4001.76Z" fill="#407BFF"/>
<path d="M4095.49 4357.07C4104.81 4357.03 4114.11 4356.21 4123.29 4354.61C4123.7 4354.49 4124.08 4354.27 4124.38 4353.97C4124.68 4353.67 4124.9 4353.29 4125.01 4352.88C4125.09 4352.44 4125.02 4351.99 4124.82 4351.59C4124.62 4351.2 4124.3 4350.87 4123.91 4350.67C4122.55 4349.81 4091.06 4331.85 4075.93 4335.91C4073.09 4336.63 4070.66 4338.44 4069.16 4340.95C4068.19 4342.32 4067.68 4343.95 4067.68 4345.62C4067.68 4347.3 4068.19 4348.93 4069.16 4350.3C4073.1 4355.71 4083.92 4357.07 4095.49 4357.07ZM4116.4 4351.41C4099.55 4353.74 4076.66 4353.62 4072.48 4347.84C4071.87 4347.1 4071.37 4345.75 4072.48 4343.04C4072.93 4342.28 4073.54 4341.63 4074.26 4341.12C4074.98 4340.61 4075.8 4340.26 4076.66 4340.09C4086.38 4337.5 4105.33 4345.75 4116.4 4351.41Z" fill="#407BFF"/>
<path d="M4122.31 4354.61C4122.75 4354.73 4123.22 4354.73 4123.66 4354.61C4123.94 4354.36 4124.17 4354.06 4124.32 4353.72C4124.47 4353.38 4124.54 4353.01 4124.52 4352.64C4124.52 4351.65 4121.94 4327.29 4110.5 4317.82C4108.8 4316.41 4106.84 4315.35 4104.72 4314.72C4102.61 4314.08 4100.39 4313.88 4098.19 4314.13C4092.29 4314.74 4090.69 4317.7 4090.2 4320.16C4088.6 4330.37 4110.25 4349.93 4121.08 4354.85L4122.31 4354.61ZM4100.28 4317.7C4103.03 4317.78 4105.67 4318.77 4107.79 4320.53C4114.62 4328.33 4118.91 4338.03 4120.09 4348.33C4108.9 4341.69 4094.26 4326.31 4095.49 4320.16C4095.49 4320.16 4095.49 4318.19 4099.67 4317.82L4100.28 4317.7Z" fill="#407BFF"/>
<path d="M4222.21 4352.51H4131.9L4122.8 4143.12H4213.23L4222.21 4352.51Z" fill="#7F3E3B"/>
<path d="M5052.78 3937.78L4982.28 3994.25L4802.9 3869.75L4873.52 3813.28L5052.78 3937.78Z" fill="#7F3E3B"/>
<path d="M4969.36 3990.68L5041.46 3919.21C5042.75 3917.96 5044.42 3917.19 5046.21 3917.01C5047.99 3916.83 5049.79 3917.26 5051.3 3918.22L5120.57 3962.76C5122.25 3963.84 5123.66 3965.3 5124.69 3967.01C5125.72 3968.72 5126.35 3970.65 5126.53 3972.64C5126.71 3974.63 5126.43 3976.64 5125.72 3978.51C5125 3980.38 5123.87 3982.06 5122.41 3983.43C5096.82 4008.03 5083.16 4018.61 5051.42 4049.99C5031.98 4069.42 4984.37 4127.25 4957.43 4153.94C4930.49 4180.64 4900.47 4157.51 4909.2 4144.1C4947.96 4084.31 4961.12 4034.98 4962.84 4004.96C4963.21 3999.57 4965.53 3994.49 4969.36 3990.68Z" fill="#263238"/>
<path d="M4132.4 4342.06H4230.82C4232.6 4342.05 4234.34 4342.65 4235.73 4343.77C4237.12 4344.89 4238.08 4346.46 4238.45 4348.21L4256.29 4428.55C4256.73 4430.48 4256.74 4432.48 4256.29 4434.42C4255.85 4436.35 4254.97 4438.15 4253.73 4439.69C4252.48 4441.24 4250.9 4442.47 4249.11 4443.31C4247.31 4444.15 4245.35 4444.57 4243.37 4444.54C4207.69 4444.54 4156.26 4441.96 4111.48 4441.96C4059.19 4441.96 4014.04 4444.79 3952.65 4444.79C3915.74 4444.79 3905.28 4407.26 3920.79 4403.82C3991.53 4388.44 4049.23 4386.72 4110.25 4349.07C4116.83 4344.71 4124.5 4342.28 4132.4 4342.06Z" fill="#263238"/>
<path d="M4670.4 1560.12C4748.77 1597.03 4781.13 1849.98 4781.13 1849.98L4600.89 1920.72C4572.92 1852.23 4550.25 1781.69 4533.1 1709.72C4507.88 1595.55 4589.82 1521.74 4670.4 1560.12Z" fill="#407BFF"/>
<path opacity="0.3" d="M4670.4 1560.12C4748.77 1597.03 4781.13 1849.98 4781.13 1849.98L4600.89 1920.72C4572.92 1852.23 4550.25 1781.69 4533.1 1709.72C4507.88 1595.55 4589.82 1521.74 4670.4 1560.12Z" fill="white"/>
<path opacity="0.2" d="M4553.65 1634.31C4547.5 1631.33 4541.07 1628.98 4534.45 1627.3C4527.26 1654.27 4527.01 1682.63 4533.72 1709.72C4550.79 1781.7 4573.42 1852.24 4601.38 1920.72L4660.81 1897.47C4649.86 1831.4 4616.27 1664.33 4553.65 1634.31Z" fill="black"/>
<path d="M4147.77 1558.15C4147.77 1558.15 4051.57 1666.79 4142.36 2339.39H4625.87C4629.19 2265.57 4582.56 1903.13 4654.16 1553.48C4600.69 1543.19 4546.61 1536.37 4492.26 1533.06C4423.83 1529.12 4355.23 1529.12 4286.8 1533.06C4239.87 1537.78 4193.39 1546.17 4147.77 1558.15Z" fill="#407BFF"/>
<path opacity="0.3" d="M4147.77 1558.15C4147.77 1558.15 4051.57 1666.79 4142.36 2339.39H4625.87C4629.19 2265.57 4582.56 1903.13 4654.16 1553.48C4600.69 1543.19 4546.61 1536.37 4492.26 1533.06C4423.83 1529.12 4355.23 1529.12 4286.8 1533.06C4239.87 1537.78 4193.39 1546.17 4147.77 1558.15Z" fill="white"/>
<path opacity="0.2" d="M4245.34 1702.34C4223.44 1636.65 4170.78 1615.61 4117.14 1654.61C4106.31 1718.34 4098.69 1821.07 4107.42 1983.96L4201.78 1983.1C4201.78 1983.1 4277.69 1800.15 4245.34 1702.34Z" fill="black"/>
<path d="M4227.62 1675.4C4223.68 1708.37 4218.27 1738.27 4212.24 1769.39C4206.21 1800.52 4199.2 1830.91 4191.2 1861.54C4175.41 1924.15 4153.92 1985.19 4126.98 2043.87C4119.97 2059 4111.85 2073.89 4103.24 2088.78C4098.81 2096.28 4094.38 2103.79 4089.34 2111.17C4082.8 2121.43 4075.07 2130.88 4066.33 2139.34C4049.35 2155.09 4029.22 2167.04 4007.28 2174.41C3989.45 2180.65 3971.02 2184.98 3952.28 2187.32C3918.84 2191.47 3885.05 2191.88 3851.52 2188.55C3835.12 2187.24 3819.12 2185.15 3803.54 2182.28C3787.55 2179.45 3772.41 2176.5 3755.93 2172.19L3763.92 2104.77C3820.08 2102.41 3875.83 2094.17 3930.26 2080.17C3941.33 2076.89 3952.08 2072.61 3962.37 2067.37C3969.13 2064.27 3975.04 2059.59 3979.59 2053.71C3978.61 2054.58 3987.59 2039.69 3992.88 2029.11C3998.17 2018.53 4004.08 2004.5 4009.12 1992.2C4019.45 1966.86 4028.31 1940.04 4036.43 1912.6C4044.55 1885.16 4051.69 1857.24 4058.33 1828.94C4064.98 1800.64 4070.64 1772.1 4076.79 1742.82C4082.94 1713.54 4087.37 1684.5 4091.8 1657.31L4227.62 1675.4Z" fill="#7F3E3B"/>
<path d="M4268.59 1624.47C4294.06 1707.02 4190.71 1953.08 4190.71 1953.08L3973.07 1898.33C3986.4 1820.55 4008.82 1744.62 4039.88 1672.08C4110 1518.54 4237.95 1524.94 4268.59 1624.47Z" fill="#407BFF"/>
<path opacity="0.3" d="M4268.59 1624.47C4294.06 1707.02 4190.71 1953.08 4190.71 1953.08L3973.07 1898.33C3986.4 1820.55 4008.82 1744.62 4039.88 1672.08C4110 1518.54 4237.95 1524.94 4268.59 1624.47Z" fill="white"/>
<path d="M3767 2105.14L3664.64 2102.56L3713.85 2208.98C3713.85 2208.98 3755.43 2214.51 3789.64 2158.29L3825.68 2115.35L3784.22 2106.99C3778.54 2105.88 3772.78 2105.26 3767 2105.14Z" fill="#7F3E3B"/>
<path d="M3600.05 2122.36L3658.73 2210.58L3713.97 2208.98L3664.64 2102.56L3600.05 2122.36Z" fill="#7F3E3B"/>
<path opacity="0.2" d="M4122.92 4143.24L4127.47 4251.14H4217.9L4213.23 4143.24H4122.92Z" fill="black"/>
<path opacity="0.2" d="M4873.52 3813.28L4802.9 3869.75L4895.42 3933.97L4966.04 3877.5L4873.52 3813.28Z" fill="black"/>
<path d="M4466.79 1230.77C4461.38 1320.34 4462.85 1372.99 4417.58 1419.01C4349.67 1488.15 4239.06 1447.3 4217.65 1357.49C4198.34 1277.03 4210.52 1144.16 4298.12 1108.36C4317.43 1100.37 4338.47 1097.46 4359.23 1099.92C4379.99 1102.38 4399.77 1110.11 4416.69 1122.39C4433.61 1134.67 4447.1 1151.08 4455.87 1170.05C4464.64 1189.03 4468.4 1209.93 4466.79 1230.77Z" fill="#7F3E3B"/>
<path d="M4539.13 1147.6C4539.13 1147.6 4586.25 1161.63 4571.49 1215.39C4549.22 1297.09 4496.81 1391.08 4429.14 1396.98C4344.87 1404.49 4306.85 1317.51 4295.78 1227.57C4245.34 1193 4207.94 1160.65 4219.99 1124.72C4238.45 1069.36 4305.37 1021.62 4411.92 1033.93C4518.46 1046.23 4571.49 1115.13 4539.13 1147.6Z" fill="#263238"/>
<path d="M4347.08 1246.03C4345.44 1268.24 4336.54 1289.3 4321.74 1305.94C4302.05 1327.6 4281.38 1314.06 4277.94 1287.74C4274.86 1263.87 4281.26 1223.88 4305.37 1211.95C4329.49 1200.02 4348.68 1219.21 4347.08 1246.03Z" fill="#7F3E3B"/>
<path d="M4313.86 2339.39C4313.86 2339.39 4283.35 2948.63 4342.78 3206.74C4436.89 3615.45 4850.64 3942.95 4850.64 3942.95L4983.51 3836.53C4983.51 3836.53 4643.09 3583.21 4612.46 3242.91C4585.02 2937.31 4625.62 2586.31 4625.62 2339.39H4313.86Z" fill="#407BFF"/>
<path opacity="0.2" d="M4313.86 2339.39C4313.86 2339.39 4283.35 2948.63 4342.78 3206.74C4436.89 3615.45 4850.64 3942.95 4850.64 3942.95L4983.51 3836.53C4983.51 3836.53 4643.09 3583.21 4612.46 3242.91C4585.02 2937.31 4625.62 2586.31 4625.62 2339.39H4313.86Z" fill="black"/>
<path opacity="0.2" d="M4359.26 2519.87C4346.96 2496.13 4322.97 2566.87 4306.24 2657.66C4306.24 2782.91 4308.45 2925.38 4319.4 3046.07C4402.94 2891.67 4385.22 2569.08 4359.26 2519.87Z" fill="black"/>
<path d="M4790.36 3916.74L4840.8 3955.87L4994.21 3831.49L4948.2 3789.78L4790.36 3916.74Z" fill="#2C6BDB"/>
<path opacity="0.4" d="M4790.36 3916.74L4840.8 3955.87L4994.21 3831.49L4948.2 3789.78L4790.36 3916.74Z" fill="#FAFAFA"/>
<path d="M4142.36 2339.39C4142.36 2339.39 4006.29 2916.39 3996.69 3191.98C3985.99 3501.15 4093.76 4230.22 4093.76 4230.22H4246.94C4246.94 4230.22 4265.76 3495.49 4272.65 3213.88C4280.03 2906.92 4460.15 2339.39 4460.15 2339.39H4142.36Z" fill="#407BFF"/>
<path opacity="0.2" d="M4142.36 2339.39C4142.36 2339.39 4006.29 2916.39 3996.69 3191.98C3985.99 3501.15 4093.76 4230.22 4093.76 4230.22H4246.94C4246.94 4230.22 4265.76 3495.49 4272.65 3213.88C4280.03 2906.92 4460.15 2339.39 4460.15 2339.39H4142.36Z" fill="black"/>
<path d="M4064.36 4169.2C4063.62 4169.2 4072.97 4232.81 4072.97 4232.81H4259.24L4264.28 4176.09L4064.36 4169.2Z" fill="#2C6BDB"/>
<path opacity="0.4" d="M4064.36 4169.2C4063.62 4169.2 4072.97 4232.81 4072.97 4232.81H4259.24L4264.28 4176.09L4064.36 4169.2Z" fill="#FAFAFA"/>
</svg>
