<svg width="4179" height="3114" viewBox="0 0 4179 3114" fill="none" xmlns="http://www.w3.org/2000/svg">
<path d="M4178.16 2736.18H0.742554V2738.27H4178.16V2736.18Z" fill="#EBEBEB"/>
<path d="M715.749 2815.72H439.037V2817.81H715.749V2815.72Z" fill="#EBEBEB"/>
<path d="M1880.58 2816.81H1430.59V2818.9H1880.58V2816.81Z" fill="#EBEBEB"/>
<path d="M1044.76 2858.83H884.433V2860.92H1044.76V2858.83Z" fill="#EBEBEB"/>
<path d="M3727 2857.83H3566.34V2859.92H3727V2857.83Z" fill="#EBEBEB"/>
<path d="M3491.89 2857.83H3238.83V2859.92H3491.89V2857.83Z" fill="#EBEBEB"/>
<path d="M3099.47 2844.04H2743.89V2846.13H3099.47V2844.04Z" fill="#EBEBEB"/>
<path d="M1980.84 2363.56H367.603C354.965 2363.53 342.853 2358.5 333.924 2349.55C324.996 2340.61 319.981 2328.49 319.981 2315.85V48.0979C320.091 35.5325 325.154 23.5178 334.071 14.6637C342.987 5.80959 355.037 0.831096 367.603 0.80957H1980.84C1993.49 0.80957 2005.63 5.83574 2014.57 14.7824C2023.52 23.729 2028.54 35.8632 2028.54 48.5157V2315.85C2028.54 2328.5 2023.52 2340.64 2014.57 2349.58C2005.63 2358.53 1993.49 2363.56 1980.84 2363.56ZM367.603 2.48054C355.519 2.50268 343.938 7.31853 335.401 15.8711C326.864 24.4236 322.07 36.0139 322.07 48.0979V2315.85C322.07 2327.93 326.864 2339.52 335.401 2348.08C343.938 2356.63 355.519 2361.45 367.603 2361.47H1980.84C1992.93 2361.45 2004.52 2356.63 2013.07 2348.08C2021.62 2339.53 2026.43 2327.94 2026.46 2315.85V48.0979C2026.43 36.0062 2021.62 24.4161 2013.07 15.866C2004.52 7.31582 1992.93 2.50263 1980.84 2.48054H367.603Z" fill="#EBEBEB"/>
<path d="M3788.07 2363.56H2174.75C2162.11 2363.53 2149.99 2358.5 2141.05 2349.56C2132.1 2340.62 2127.07 2328.5 2127.05 2315.85V48.0979C2127.18 35.5249 2132.26 23.5103 2141.19 14.6585C2150.12 5.80667 2162.18 0.830861 2174.75 0.80957H3788.07C3800.62 0.853053 3812.65 5.84126 3821.55 14.693C3830.45 23.5448 3835.5 35.5469 3835.61 48.0979V2315.85C3835.61 2328.47 3830.61 2340.58 3821.7 2349.52C3812.79 2358.47 3800.7 2363.51 3788.07 2363.56ZM2174.75 2.48054C2162.66 2.50263 2151.07 7.31582 2142.52 15.866C2133.97 24.4161 2129.16 36.0062 2129.14 48.0979V2315.85C2129.16 2327.94 2133.97 2339.53 2142.52 2348.08C2151.07 2356.63 2162.66 2361.45 2174.75 2361.47H3788.07C3800.16 2361.45 3811.75 2356.63 3820.3 2348.08C3828.85 2339.53 3833.67 2327.94 3833.69 2315.85V48.0979C3833.67 36.0062 3828.85 24.4161 3820.3 15.866C3811.75 7.31582 3800.16 2.50263 3788.07 2.48054H2174.75Z" fill="#EBEBEB"/>
<path d="M2525.74 2736.18H2762.35V1558.99H2525.74V2736.18Z" fill="#E4813D"/>
<path d="M2570.61 2736.18H2525.66V2608.35H2617.73L2570.61 2736.18Z" fill="#E4813D"/>
<path d="M3410.02 2736.18H3646.63V1558.99H3410.02V2736.18Z" fill="#E4813D"/>
<path d="M2525.74 2657.73H3449.28V1558.99H2525.74V2657.73Z" fill="#F97316"/>
<path d="M2560.58 2284.27V2497.9H2972.39V2284.27H2560.58Z" fill="#E4813D"/>
<path d="M3002.55 2284.27V2497.9H3414.36V2284.27H3002.55Z" fill="#E4813D"/>
<path d="M3167.73 2320.03H3249.19C3266.7 2320.04 3284.04 2316.47 3300.13 2309.55C3316.22 2302.62 3330.73 2292.49 3342.76 2279.76H3074.15C3086.19 2292.49 3100.69 2302.62 3116.78 2309.55C3132.87 2316.47 3150.21 2320.04 3167.73 2320.03Z" fill="#F97316"/>
<path d="M2721.58 2320.03H2803.04C2820.55 2320.04 2837.89 2316.47 2853.98 2309.55C2870.07 2302.62 2884.58 2292.49 2896.61 2279.76H2628C2640.04 2292.49 2654.55 2302.62 2670.64 2309.55C2686.73 2316.47 2704.06 2320.04 2721.58 2320.03Z" fill="#F97316"/>
<path d="M2560.5 1952.16V2165.8H2972.31V1952.16H2560.5Z" fill="#E4813D"/>
<path d="M3002.55 1952.25V2165.88H3414.36V1952.25H3002.55Z" fill="#E4813D"/>
<path d="M3167.73 1987.92H3249.19C3266.7 1987.89 3284.02 1984.28 3300.09 1977.33C3316.17 1970.38 3330.66 1960.22 3342.68 1947.49H3074.15C3086.18 1960.23 3100.68 1970.39 3116.77 1977.35C3132.86 1984.3 3150.2 1987.9 3167.73 1987.92Z" fill="#F97316"/>
<path d="M2721.58 1987.92H2803.04C2820.55 1987.93 2837.87 1984.37 2853.96 1977.46C2870.05 1970.55 2884.56 1960.44 2896.61 1947.74H2628C2640.05 1960.44 2654.57 1970.55 2670.65 1977.46C2686.74 1984.37 2704.07 1987.93 2721.58 1987.92Z" fill="#F97316"/>
<path d="M2560.58 1620.14V1833.78H2972.39V1620.14H2560.58Z" fill="#E4813D"/>
<path d="M3002.55 1620.14V1833.78H3414.36V1620.14H3002.55Z" fill="#E4813D"/>
<path d="M3167.73 1655.9H3249.19C3266.7 1655.91 3284.04 1652.35 3300.13 1645.42C3316.22 1638.5 3330.73 1628.36 3342.76 1615.63H3074.15C3086.19 1628.36 3100.69 1638.5 3116.78 1645.42C3132.87 1652.35 3150.21 1655.91 3167.73 1655.9Z" fill="#F97316"/>
<path d="M2721.58 1655.9H2803.04C2820.55 1655.91 2837.89 1652.35 2853.98 1645.42C2870.07 1638.5 2884.58 1628.36 2896.61 1615.63H2628C2640.04 1628.36 2654.55 1638.5 2670.64 1645.42C2686.73 1652.35 2704.06 1655.91 2721.58 1655.9Z" fill="#F97316"/>
<path d="M3404.34 2736.18H3449.28V2608.35H3357.21L3404.34 2736.18Z" fill="#E4813D"/>
<path d="M3443.27 750.823L3479.45 849.744H3443.27L3221.28 750.823H3443.27Z" fill="#F97316"/>
<path d="M3479.45 750.823V849.744L3257.54 750.823H3479.45Z" fill="#F97316"/>
<path d="M2572.95 750.823L2609.12 849.744H2572.95L2351.04 750.823H2572.95Z" fill="#F97316"/>
<path d="M2609.12 750.823V849.744L2387.22 750.823H2609.12Z" fill="#F97316"/>
<path d="M3642.36 680.141H3400.99V755.418H3642.36V680.141Z" fill="#F97316"/>
<path d="M2200.99 755.502L3400.99 755.502V680.225L2200.99 680.225V755.502Z" fill="#F97316"/>
<path d="M3157.28 418.551C3157.28 418.551 3159.71 680.225 3250.02 680.225C3340.34 680.225 3342.68 418.551 3342.68 418.551H3157.28Z" fill="#F97316"/>
<path d="M2597.26 594.838C2597.26 594.838 2603.61 680.141 2846.57 680.141C3089.52 680.141 3095.87 594.838 3095.87 594.838H2597.26Z" fill="#F97316"/>
<path d="M1875.23 2736.18H1891.36L1937.56 2508.51L1945.92 2468.58L1996.04 2220.44H2189.71L2294.4 2736.18H2310.6L2203.91 2211C2203.56 2209.2 2202.59 2207.58 2201.17 2206.42C2199.75 2205.26 2197.97 2204.63 2196.14 2204.65H1989.61C1987.79 2204.64 1986.02 2205.27 1984.61 2206.43C1983.21 2207.59 1982.26 2209.21 1981.92 2211L1937.64 2428.89L1929.29 2468.74L1875.23 2736.18Z" fill="#F97316"/>
<path d="M1565.02 2736.18H1581.14L1685.91 2220.44H1879.08L1929.21 2468.74L1937.56 2508.51L1983.85 2736.18H1999.97L1945.66 2468.83L1937.31 2429.14L1893.03 2211.25C1892.6 2209.49 1891.6 2207.92 1890.2 2206.78C1888.8 2205.63 1887.07 2204.97 1885.26 2204.9H1679.48C1677.65 2204.88 1675.87 2205.51 1674.45 2206.67C1673.03 2207.83 1672.06 2209.45 1671.71 2211.25L1565.02 2736.18Z" fill="#F97316"/>
<path d="M2218.62 2144.49H1656.59C1643.7 2144.52 1631.34 2149.65 1622.23 2158.76C1613.11 2167.87 1607.98 2180.23 1607.96 2193.12V2194.79C1607.96 2199.51 1609.84 2204.04 1613.17 2207.37C1616.51 2210.71 1621.04 2212.59 1625.76 2212.59H2249.45C2254.17 2212.59 2258.69 2210.71 2262.03 2207.37C2265.37 2204.04 2267.24 2199.51 2267.24 2194.79V2193.12C2267.22 2180.23 2262.09 2167.87 2252.98 2158.76C2243.86 2149.65 2231.51 2144.52 2218.62 2144.49Z" fill="#F97316"/>
<path d="M1311.2 2736.18H1327.32L1373.53 2508.51L1381.88 2468.58L1432.01 2220.44H1625.17L1730.19 2736.18H1746.4L1639.71 2211C1639.36 2209.2 1638.39 2207.58 1636.97 2206.42C1635.55 2205.26 1633.77 2204.63 1631.94 2204.65H1425.58C1423.75 2204.64 1421.99 2205.27 1420.58 2206.43C1419.18 2207.59 1418.22 2209.21 1417.89 2211L1373.61 2428.89L1365.25 2468.74L1311.2 2736.18Z" fill="#F97316"/>
<path d="M1000.98 2736.18H1017.19L1121.88 2220.44H1315.13L1365.25 2468.74L1373.61 2508.51L1419.89 2736.18H1436.02L1381.71 2468.83L1373.36 2429.14L1329.16 2211C1328.73 2209.24 1327.74 2207.67 1326.34 2206.53C1324.93 2205.38 1323.2 2204.72 1321.39 2204.65H1115.44C1113.61 2204.63 1111.83 2205.26 1110.41 2206.42C1108.99 2207.58 1108.03 2209.2 1107.67 2211L1000.98 2736.18Z" fill="#F97316"/>
<path d="M1655 2144.49H1092.55C1079.66 2144.52 1067.31 2149.65 1058.19 2158.76C1049.08 2167.87 1043.95 2180.23 1043.93 2193.12V2194.79C1043.93 2199.51 1045.8 2204.04 1049.14 2207.37C1052.48 2210.71 1057 2212.59 1061.72 2212.59H1685.5C1687.83 2212.59 1690.14 2212.12 1692.29 2211.23C1694.45 2210.33 1696.4 2209.02 1698.05 2207.37C1699.7 2205.71 1701 2203.75 1701.88 2201.59C1702.77 2199.43 1703.22 2197.12 1703.21 2194.79V2193.12C1703.19 2180.3 1698.11 2168.01 1689.09 2158.91C1680.07 2149.8 1667.82 2144.63 1655 2144.49Z" fill="#F97316"/>
<path d="M705.306 1484.63H1512.8L1512.8 191.049H705.306L705.306 1484.63Z" fill="#FFA86B"/>
<path d="M652.587 1484.63H1488.15L1488.15 191.049H652.587L652.587 1484.63Z" fill="#F97316"/>
<path d="M705.306 1582.63H1512.8V1484.54H705.306V1582.63Z" fill="#E6E6E6"/>
<path d="M564.694 1582.63H1400.26V1484.54H564.694V1582.63Z" fill="#F97316"/>
<path d="M1414.21 1410.77V264.906L726.36 264.906L726.36 1410.77H1414.21Z" fill="#F97316"/>
<path d="M1420.15 1410.69L1178.19 264.906H973.496L1215.45 1410.69H1420.15Z" fill="#FFA86B"/>
<path d="M1364.42 1273.84C1365.81 1273.84 1367.15 1273.28 1368.14 1272.29C1369.13 1271.31 1369.68 1269.97 1369.68 1268.57V312.946C1369.68 311.55 1369.13 310.211 1368.14 309.224C1367.15 308.237 1365.81 307.683 1364.42 307.683C1363.02 307.683 1361.68 308.237 1360.7 309.224C1359.71 310.211 1359.16 311.55 1359.16 312.946V1268.57C1359.16 1269.97 1359.71 1271.31 1360.7 1272.29C1361.68 1273.28 1363.02 1273.84 1364.42 1273.84Z" fill="#FFA86B"/>
<path d="M1171.51 1410.69L929.55 264.906H849.761L1091.63 1410.69H1171.51Z" fill="#FFA86B"/>
<path d="M735.801 1410.77L735.801 264.906H726.443L726.443 1410.77H735.801Z" fill="#FFA86B"/>
<path opacity="0.6" d="M635.042 321.635H1442.54L1449.39 293.563H641.893L635.042 321.635Z" fill="#F0F0F0"/>
<path opacity="0.6" d="M635.042 386.887H1442.54L1449.39 358.898H641.893L635.042 386.887Z" fill="#F0F0F0"/>
<path opacity="0.6" d="M635.042 452.221H1442.54L1449.39 424.149H641.893L635.042 452.221Z" fill="#F0F0F0"/>
<path opacity="0.6" d="M635.042 517.473H1442.54L1449.39 489.484H641.893L635.042 517.473Z" fill="#F0F0F0"/>
<path opacity="0.6" d="M635.042 582.808H1442.54L1449.39 554.819H641.893L635.042 582.808Z" fill="#F0F0F0"/>
<path opacity="0.6" d="M635.042 648.142H1442.54L1449.39 620.07H641.893L635.042 648.142Z" fill="#F0F0F0"/>
<path d="M2089.45 3113.49C2984.11 3113.49 3709.37 3071.14 3709.37 3018.91C3709.37 2966.68 2984.11 2924.33 2089.45 2924.33C1194.79 2924.33 469.532 2966.68 469.532 3018.91C469.532 3071.14 1194.79 3113.49 2089.45 3113.49Z" fill="#F97316"/>
<path d="M2031.97 1736.36H1521.57C1514.37 1736.36 1508.54 1742.19 1508.54 1749.39V1962.27C1508.54 1969.47 1514.37 1975.31 1521.57 1975.31H2031.97C2039.17 1975.31 2045 1969.47 2045 1962.27V1749.39C2045 1742.19 2039.17 1736.36 2031.97 1736.36Z" fill="#407BFF"/>
<path opacity="0.6" d="M2031.97 1736.36H1521.57C1514.37 1736.36 1508.54 1742.19 1508.54 1749.39V1962.27C1508.54 1969.47 1514.37 1975.31 1521.57 1975.31H2031.97C2039.17 1975.31 2045 1969.47 2045 1962.27V1749.39C2045 1742.19 2039.17 1736.36 2031.97 1736.36Z" fill="white"/>
<path opacity="0.1" d="M2031.89 1736.36H1521.32C1517.87 1736.36 1514.55 1737.73 1512.11 1740.18C1509.66 1742.62 1508.29 1745.94 1508.29 1749.39V1817.65L1773.97 1869.95C1775.6 1870.29 1777.28 1870.29 1778.9 1869.95L2044.67 1817.65V1749.39C2044.67 1745.98 2043.33 1742.7 2040.94 1740.26C2038.55 1737.83 2035.3 1736.43 2031.89 1736.36Z" fill="black"/>
<path d="M2043.08 1648.97H1887.18V1622.82C1887.16 1612.01 1882.86 1601.65 1875.21 1594.01C1867.57 1586.37 1857.22 1582.07 1846.41 1582.05H1707.13C1696.33 1582.07 1685.97 1586.37 1678.33 1594.01C1670.69 1601.65 1666.38 1612.01 1666.36 1622.82V1648.97H1510.54C1507.13 1648.97 1503.86 1650.32 1501.45 1652.74C1499.03 1655.15 1497.68 1658.42 1497.68 1661.83V1790.58C1497.7 1793.55 1498.73 1796.43 1500.62 1798.73C1502.51 1801.03 1505.13 1802.6 1508.04 1803.2L1774.31 1855.58C1775.94 1855.83 1777.6 1855.83 1779.24 1855.58L2045.5 1803.2C2048.43 1802.61 2051.06 1801.03 2052.96 1798.74C2054.86 1796.44 2055.91 1793.56 2055.95 1790.58V1661.83C2055.95 1658.42 2054.59 1655.15 2052.18 1652.74C2049.77 1650.32 2046.49 1648.97 2043.08 1648.97ZM1697.36 1622.82C1697.38 1620.22 1698.41 1617.74 1700.24 1615.9C1702.07 1614.06 1704.54 1613 1707.13 1612.96H1846.41C1849 1613 1851.48 1614.06 1853.3 1615.9C1855.13 1617.74 1856.16 1620.22 1856.18 1622.82V1648.97H1697.44L1697.36 1622.82Z" fill="#407BFF"/>
<path opacity="0.6" d="M2043.08 1648.97H1887.18V1622.82C1887.16 1612.01 1882.86 1601.65 1875.21 1594.01C1867.57 1586.37 1857.22 1582.07 1846.41 1582.05H1707.13C1696.33 1582.07 1685.97 1586.37 1678.33 1594.01C1670.69 1601.65 1666.38 1612.01 1666.36 1622.82V1648.97H1510.54C1507.13 1648.97 1503.86 1650.32 1501.45 1652.74C1499.03 1655.15 1497.68 1658.42 1497.68 1661.83V1790.58C1497.7 1793.55 1498.73 1796.43 1500.62 1798.73C1502.51 1801.03 1505.13 1802.6 1508.04 1803.2L1774.31 1855.58C1775.94 1855.83 1777.6 1855.83 1779.24 1855.58L2045.5 1803.2C2048.43 1802.61 2051.06 1801.03 2052.96 1798.74C2054.86 1796.44 2055.91 1793.56 2055.95 1790.58V1661.83C2055.95 1658.42 2054.59 1655.15 2052.18 1652.74C2049.77 1650.32 2046.49 1648.97 2043.08 1648.97ZM1697.36 1622.82C1697.38 1620.22 1698.41 1617.74 1700.24 1615.9C1702.07 1614.06 1704.54 1613 1707.13 1612.96H1846.41C1849 1613 1851.48 1614.06 1853.3 1615.9C1855.13 1617.74 1856.16 1620.22 1856.18 1622.82V1648.97H1697.44L1697.36 1622.82Z" fill="white"/>
<path d="M1804.3 1820.41H1749.33C1742.5 1820.41 1736.96 1825.95 1736.96 1832.77V1867.53C1736.96 1874.36 1742.5 1879.9 1749.33 1879.9H1804.3C1811.13 1879.9 1816.67 1874.36 1816.67 1867.53V1832.77C1816.67 1825.95 1811.13 1820.41 1804.3 1820.41Z" fill="#407BFF"/>
<path opacity="0.3" d="M1804.3 1820.41H1749.33C1742.5 1820.41 1736.96 1825.95 1736.96 1832.77V1867.53C1736.96 1874.36 1742.5 1879.9 1749.33 1879.9H1804.3C1811.13 1879.9 1816.67 1874.36 1816.67 1867.53V1832.77C1816.67 1825.95 1811.13 1820.41 1804.3 1820.41Z" fill="white"/>
<path d="M2031.97 199.404H1521.57C1514.37 199.404 1508.54 205.239 1508.54 212.437V425.319C1508.54 432.517 1514.37 438.352 1521.57 438.352H2031.97C2039.17 438.352 2045 432.517 2045 425.319V212.437C2045 205.239 2039.17 199.404 2031.97 199.404Z" fill="#407BFF"/>
<path opacity="0.6" d="M2031.97 199.404H1521.57C1514.37 199.404 1508.54 205.239 1508.54 212.437V425.319C1508.54 432.517 1514.37 438.352 1521.57 438.352H2031.97C2039.17 438.352 2045 432.517 2045 425.319V212.437C2045 205.239 2039.17 199.404 2031.97 199.404Z" fill="white"/>
<path opacity="0.1" d="M2031.89 199.404H1521.32C1517.87 199.404 1514.55 200.777 1512.11 203.221C1509.66 205.666 1508.29 208.981 1508.29 212.437V280.696L1773.97 332.998C1775.6 333.331 1777.28 333.331 1778.9 332.998L2044.67 280.696V212.437C2044.67 209.024 2043.33 205.746 2040.94 203.309C2038.55 200.872 2035.3 199.469 2031.89 199.404Z" fill="black"/>
<path d="M2043.08 112.013H1887.18V85.8619C1887.16 75.0554 1882.86 64.6978 1875.21 57.0565C1867.57 49.4151 1857.22 45.1124 1846.41 45.0903H1707.13C1696.33 45.1124 1685.97 49.4151 1678.33 57.0565C1670.69 64.6978 1666.38 75.0554 1666.36 85.8619V112.013H1510.54C1507.13 112.013 1503.86 113.368 1501.45 115.781C1499.03 118.194 1497.68 121.467 1497.68 124.879V253.627C1497.68 256.604 1498.71 259.488 1500.6 261.788C1502.49 264.089 1505.12 265.663 1508.04 266.243L1774.31 318.293C1775.93 318.627 1777.61 318.627 1779.24 318.293L2045.5 265.909C2048.39 265.36 2051.01 263.846 2052.92 261.614C2054.84 259.382 2055.93 256.565 2056.03 253.627V124.879C2056.03 123.182 2055.7 121.502 2055.04 119.936C2054.39 118.369 2053.44 116.947 2052.23 115.751C2051.03 114.556 2049.6 113.61 2048.03 112.968C2046.46 112.326 2044.78 112.002 2043.08 112.013ZM1697.36 85.8619C1697.36 83.2617 1698.39 80.7666 1700.22 78.9201C1702.05 77.0737 1704.53 76.0253 1707.13 76.0032H1846.41C1848.99 76.025 1851.47 77.0619 1853.3 78.8904C1855.13 80.7189 1856.16 83.1926 1856.18 85.7784V111.929H1697.44L1697.36 85.8619Z" fill="#407BFF"/>
<path opacity="0.6" d="M2043.08 112.013H1887.18V85.8619C1887.16 75.0554 1882.86 64.6978 1875.21 57.0565C1867.57 49.4151 1857.22 45.1124 1846.41 45.0903H1707.13C1696.33 45.1124 1685.97 49.4151 1678.33 57.0565C1670.69 64.6978 1666.38 75.0554 1666.36 85.8619V112.013H1510.54C1507.13 112.013 1503.86 113.368 1501.45 115.781C1499.03 118.194 1497.68 121.467 1497.68 124.879V253.627C1497.68 256.604 1498.71 259.488 1500.6 261.788C1502.49 264.089 1505.12 265.663 1508.04 266.243L1774.31 318.293C1775.93 318.627 1777.61 318.627 1779.24 318.293L2045.5 265.909C2048.39 265.36 2051.01 263.846 2052.92 261.614C2054.84 259.382 2055.93 256.565 2056.03 253.627V124.879C2056.03 123.182 2055.7 121.502 2055.04 119.936C2054.39 118.369 2053.44 116.947 2052.23 115.751C2051.03 114.556 2049.6 113.61 2048.03 112.968C2046.46 112.326 2044.78 112.002 2043.08 112.013ZM1697.36 85.8619C1697.36 83.2617 1698.39 80.7666 1700.22 78.9201C1702.05 77.0737 1704.53 76.0253 1707.13 76.0032H1846.41C1848.99 76.025 1851.47 77.0619 1853.3 78.8904C1855.13 80.7189 1856.16 83.1926 1856.18 85.7784V111.929H1697.44L1697.36 85.8619Z" fill="white"/>
<path d="M1804.3 283.537H1749.33C1742.5 283.537 1736.96 289.073 1736.96 295.902V330.658C1736.96 337.488 1742.5 343.024 1749.33 343.024H1804.3C1811.13 343.024 1816.67 337.488 1816.67 330.658V295.902C1816.67 289.073 1811.13 283.537 1804.3 283.537Z" fill="#407BFF"/>
<path opacity="0.3" d="M1804.3 283.537H1749.33C1742.5 283.537 1736.96 289.073 1736.96 295.902V330.658C1736.96 337.488 1742.5 343.024 1749.33 343.024H1804.3C1811.13 343.024 1816.67 337.488 1816.67 330.658V295.902C1816.67 289.073 1811.13 283.537 1804.3 283.537Z" fill="white"/>
<path d="M1236.92 1736.36H726.527C719.329 1736.36 713.494 1742.19 713.494 1749.39V1962.27C713.494 1969.47 719.329 1975.31 726.527 1975.31H1236.92C1244.12 1975.31 1249.96 1969.47 1249.96 1962.27V1749.39C1249.96 1742.19 1244.12 1736.36 1236.92 1736.36Z" fill="#407BFF"/>
<path opacity="0.6" d="M1236.92 1736.36H726.527C719.329 1736.36 713.494 1742.19 713.494 1749.39V1962.27C713.494 1969.47 719.329 1975.31 726.527 1975.31H1236.92C1244.12 1975.31 1249.96 1969.47 1249.96 1962.27V1749.39C1249.96 1742.19 1244.12 1736.36 1236.92 1736.36Z" fill="white"/>
<path opacity="0.1" d="M1237.26 1736.36H726.527C723.07 1736.36 719.755 1737.73 717.311 1740.18C714.867 1742.62 713.494 1745.94 713.494 1749.39V1817.65L979.177 1869.95C980.832 1870.29 982.536 1870.29 984.19 1869.95L1249.96 1817.65V1749.39C1249.96 1745.99 1248.63 1742.73 1246.26 1740.29C1243.89 1737.86 1240.66 1736.45 1237.26 1736.36Z" fill="black"/>
<path d="M1247.95 1648.97H1092.05V1622.82C1092.03 1612.01 1087.73 1601.65 1080.08 1594.01C1072.44 1586.37 1062.09 1582.07 1051.28 1582.05H912.088C901.281 1582.07 890.924 1586.37 883.283 1594.01C875.641 1601.65 871.338 1612.01 871.316 1622.82V1648.97H715.415C712.003 1648.97 708.73 1650.32 706.317 1652.74C703.904 1655.15 702.549 1658.42 702.549 1661.83V1790.58C702.565 1793.55 703.604 1796.43 705.491 1798.73C707.377 1801.03 709.996 1802.6 712.909 1803.2L979.177 1855.58C980.839 1855.83 982.529 1855.83 984.19 1855.58L1250.46 1803.2C1253.37 1802.6 1255.99 1801.03 1257.88 1798.73C1259.76 1796.43 1260.8 1793.55 1260.82 1790.58V1661.83C1260.82 1658.42 1259.46 1655.15 1257.05 1652.74C1254.64 1650.32 1251.36 1648.97 1247.95 1648.97ZM902.229 1622.82C902.272 1620.22 903.325 1617.73 905.164 1615.89C907.004 1614.05 909.487 1613 912.088 1612.96H1051.28C1053.88 1613 1056.36 1614.05 1058.2 1615.89C1060.04 1617.73 1061.1 1620.22 1061.14 1622.82V1648.97H902.396L902.229 1622.82Z" fill="#407BFF"/>
<path opacity="0.6" d="M1247.95 1648.97H1092.05V1622.82C1092.03 1612.01 1087.73 1601.65 1080.08 1594.01C1072.44 1586.37 1062.09 1582.07 1051.28 1582.05H912.088C901.281 1582.07 890.924 1586.37 883.283 1594.01C875.641 1601.65 871.338 1612.01 871.316 1622.82V1648.97H715.415C712.003 1648.97 708.73 1650.32 706.317 1652.74C703.904 1655.15 702.549 1658.42 702.549 1661.83V1790.58C702.565 1793.55 703.604 1796.43 705.491 1798.73C707.377 1801.03 709.996 1802.6 712.909 1803.2L979.177 1855.58C980.839 1855.83 982.529 1855.83 984.19 1855.58L1250.46 1803.2C1253.37 1802.6 1255.99 1801.03 1257.88 1798.73C1259.76 1796.43 1260.8 1793.55 1260.82 1790.58V1661.83C1260.82 1658.42 1259.46 1655.15 1257.05 1652.74C1254.64 1650.32 1251.36 1648.97 1247.95 1648.97ZM902.229 1622.82C902.272 1620.22 903.325 1617.73 905.164 1615.89C907.004 1614.05 909.487 1613 912.088 1612.96H1051.28C1053.88 1613 1056.36 1614.05 1058.2 1615.89C1060.04 1617.73 1061.1 1620.22 1061.14 1622.82V1648.97H902.396L902.229 1622.82Z" fill="white"/>
<path d="M1009.17 1820.41H954.196C947.367 1820.41 941.831 1825.95 941.831 1832.77V1867.53C941.831 1874.36 947.367 1879.9 954.196 1879.9H1009.17C1016 1879.9 1021.54 1874.36 1021.54 1867.53V1832.77C1021.54 1825.95 1016 1820.41 1009.17 1820.41Z" fill="#407BFF"/>
<path opacity="0.3" d="M1009.17 1820.41H954.196C947.367 1820.41 941.831 1825.95 941.831 1832.77V1867.53C941.831 1874.36 947.367 1879.9 954.196 1879.9H1009.17C1016 1879.9 1021.54 1874.36 1021.54 1867.53V1832.77C1021.54 1825.95 1016 1820.41 1009.17 1820.41Z" fill="white"/>
<path d="M1236.92 199.404H726.527C719.329 199.404 713.494 205.239 713.494 212.437V425.319C713.494 432.517 719.329 438.352 726.527 438.352H1236.92C1244.12 438.352 1249.96 432.517 1249.96 425.319V212.437C1249.96 205.239 1244.12 199.404 1236.92 199.404Z" fill="#407BFF"/>
<path opacity="0.6" d="M1236.92 199.404H726.527C719.329 199.404 713.494 205.239 713.494 212.437V425.319C713.494 432.517 719.329 438.352 726.527 438.352H1236.92C1244.12 438.352 1249.96 432.517 1249.96 425.319V212.437C1249.96 205.239 1244.12 199.404 1236.92 199.404Z" fill="white"/>
<path opacity="0.1" d="M1237.26 199.404H726.527C723.07 199.404 719.755 200.777 717.311 203.221C714.867 205.666 713.494 208.981 713.494 212.437V280.696L979.177 332.998C980.831 333.333 982.536 333.333 984.19 332.998L1249.96 280.696V212.437C1249.96 209.038 1248.63 205.772 1246.26 203.337C1243.89 200.903 1240.66 199.491 1237.26 199.404Z" fill="black"/>
<path d="M1247.95 112.013H1092.05V85.8619C1092.03 75.0554 1087.73 64.6978 1080.08 57.0565C1072.44 49.4151 1062.09 45.1124 1051.28 45.0903H912.088C901.281 45.1124 890.924 49.4151 883.283 57.0565C875.641 64.6978 871.338 75.0554 871.316 85.8619V112.013H715.415C712.003 112.013 708.73 113.368 706.317 115.781C703.904 118.194 702.549 121.467 702.549 124.879V253.627C702.55 256.604 703.583 259.488 705.472 261.788C707.361 264.089 709.989 265.663 712.909 266.243L979.177 318.293C980.831 318.629 982.536 318.629 984.19 318.293L1250.46 265.909C1253.38 265.329 1256.01 263.754 1257.9 261.454C1259.78 259.154 1260.82 256.269 1260.82 253.293V124.879C1260.82 121.467 1259.46 118.194 1257.05 115.781C1254.64 113.368 1251.36 112.013 1247.95 112.013ZM902.229 85.8619C902.251 83.254 903.297 80.7591 905.141 78.9149C906.985 77.0708 909.48 76.0251 912.088 76.0032H1051.28C1053.87 76.0247 1056.36 77.0588 1058.2 78.8851C1060.04 80.7113 1061.09 83.185 1061.14 85.7784V111.929H902.396L902.229 85.8619Z" fill="#407BFF"/>
<path opacity="0.6" d="M1247.95 112.013H1092.05V85.8619C1092.03 75.0554 1087.73 64.6978 1080.08 57.0565C1072.44 49.4151 1062.09 45.1124 1051.28 45.0903H912.088C901.281 45.1124 890.924 49.4151 883.283 57.0565C875.641 64.6978 871.338 75.0554 871.316 85.8619V112.013H715.415C712.003 112.013 708.73 113.368 706.317 115.781C703.904 118.194 702.549 121.467 702.549 124.879V253.627C702.55 256.604 703.583 259.488 705.472 261.788C707.361 264.089 709.989 265.663 712.909 266.243L979.177 318.293C980.831 318.629 982.536 318.629 984.19 318.293L1250.46 265.909C1253.38 265.329 1256.01 263.754 1257.9 261.454C1259.78 259.154 1260.82 256.269 1260.82 253.293V124.879C1260.82 121.467 1259.46 118.194 1257.05 115.781C1254.64 113.368 1251.36 112.013 1247.95 112.013ZM902.229 85.8619C902.251 83.254 903.297 80.7591 905.141 78.9149C906.985 77.0708 909.48 76.0251 912.088 76.0032H1051.28C1053.87 76.0247 1056.36 77.0588 1058.2 78.8851C1060.04 80.7113 1061.09 83.185 1061.14 85.7784V111.929H902.396L902.229 85.8619Z" fill="white"/>
<path d="M1009.17 283.537H954.196C947.367 283.537 941.831 289.073 941.831 295.902V330.658C941.831 337.488 947.367 343.024 954.196 343.024H1009.17C1016 343.024 1021.54 337.488 1021.54 330.658V295.902C1021.54 289.073 1016 283.537 1009.17 283.537Z" fill="#407BFF"/>
<path opacity="0.3" d="M1009.17 283.537H954.196C947.367 283.537 941.831 289.073 941.831 295.902V330.658C941.831 337.488 947.367 343.024 954.196 343.024H1009.17C1016 343.024 1021.54 337.488 1021.54 330.658V295.902C1021.54 289.073 1016 283.537 1009.17 283.537Z" fill="white"/>
<path d="M1170.42 1206.83H726.527C723.048 1206.83 719.712 1205.45 717.252 1202.99C714.792 1200.53 713.41 1197.19 713.41 1193.71V980.915C713.423 979.16 713.792 977.427 714.496 975.819C714.836 975.069 715.227 974.343 715.666 973.647C716.131 972.932 716.693 972.285 717.337 971.725C719.77 969.278 723.076 967.896 726.527 967.882H1146.69C1143.2 997.04 1142.05 1026.43 1143.27 1055.77C1143.27 1060.54 1143.27 1065.3 1144.02 1069.98C1144.6 1078.75 1145.27 1087.61 1146.27 1096.38C1150.57 1133.92 1158.66 1170.92 1170.42 1206.83Z" fill="#407BFF"/>
<path opacity="0.6" d="M1170.42 1206.83H726.527C723.048 1206.83 719.712 1205.45 717.252 1202.99C714.792 1200.53 713.41 1197.19 713.41 1193.71V980.915C713.423 979.16 713.792 977.427 714.496 975.819C714.836 975.069 715.227 974.343 715.666 973.647C716.131 972.932 716.693 972.285 717.337 971.725C719.77 969.278 723.076 967.896 726.527 967.882H1146.69C1143.2 997.04 1142.05 1026.43 1143.27 1055.77C1143.27 1060.54 1143.27 1065.3 1144.02 1069.98C1144.6 1078.75 1145.27 1087.61 1146.27 1096.38C1150.57 1133.92 1158.66 1170.92 1170.42 1206.83Z" fill="white"/>
<path opacity="0.1" d="M1146.69 967.882C1143.2 997.04 1142.05 1026.43 1143.27 1055.77C1143.27 1060.54 1143.27 1065.3 1144.02 1069.98L1021.54 1094.04L984.107 1101.39C982.49 1101.81 980.794 1101.81 979.177 1101.39L941.831 1094.12L713.494 1049.17V980.832C713.52 979.114 713.86 977.415 714.496 975.819C714.836 975.069 715.227 974.343 715.666 973.647C716.131 972.932 716.693 972.285 717.337 971.725C719.77 969.278 723.076 967.896 726.527 967.882H1146.69Z" fill="black"/>
<path d="M1164.15 880.49H1092.13V854.34C1092.09 843.525 1087.77 833.168 1080.11 825.529C1072.46 817.89 1062.09 813.59 1051.28 813.568H912.088C901.275 813.568 890.904 817.863 883.258 825.51C875.612 833.156 871.316 843.526 871.316 854.34V880.49H715.415C713.726 880.49 712.052 880.823 710.491 881.47C708.93 882.116 707.512 883.064 706.317 884.259C705.122 885.453 704.175 886.872 703.528 888.433C702.882 889.994 702.549 891.667 702.549 893.357V1022.02C702.55 1025.02 703.592 1027.92 705.497 1030.24C707.401 1032.56 710.05 1034.14 712.992 1034.72H713.494L941.831 1079.75L979.177 1087.02C980.804 1087.35 982.48 1087.35 984.107 1087.02L1021.54 1079.67L1143.27 1055.69C1142.05 1026.35 1143.2 996.957 1146.69 967.798C1150.16 938.274 1156 909.077 1164.15 880.49ZM902.229 854.34C902.273 851.746 903.328 849.272 905.17 847.446C907.012 845.62 909.494 844.586 912.088 844.564H1051.28C1053.87 844.586 1056.34 845.623 1058.17 847.452C1060 849.28 1061.03 851.754 1061.05 854.34V880.49H902.313L902.229 854.34Z" fill="#407BFF"/>
<path opacity="0.6" d="M1164.15 880.49H1092.13V854.34C1092.09 843.525 1087.77 833.168 1080.11 825.529C1072.46 817.89 1062.09 813.59 1051.28 813.568H912.088C901.275 813.568 890.904 817.863 883.258 825.51C875.612 833.156 871.316 843.526 871.316 854.34V880.49H715.415C713.726 880.49 712.052 880.823 710.491 881.47C708.93 882.116 707.512 883.064 706.317 884.259C705.122 885.453 704.175 886.872 703.528 888.433C702.882 889.994 702.549 891.667 702.549 893.357V1022.02C702.55 1025.02 703.592 1027.92 705.497 1030.24C707.401 1032.56 710.05 1034.14 712.992 1034.72H713.494L941.831 1079.75L979.177 1087.02C980.804 1087.35 982.48 1087.35 984.107 1087.02L1021.54 1079.67L1143.27 1055.69C1142.05 1026.35 1143.2 996.957 1146.69 967.798C1150.16 938.274 1156 909.077 1164.15 880.49ZM902.229 854.34C902.273 851.746 903.328 849.272 905.17 847.446C907.012 845.62 909.494 844.586 912.088 844.564H1051.28C1053.87 844.586 1056.34 845.623 1058.17 847.452C1060 849.28 1061.03 851.754 1061.05 854.34V880.49H902.313L902.229 854.34Z" fill="white"/>
<path d="M1009.17 1051.93H954.196C947.367 1051.93 941.831 1057.47 941.831 1064.3V1099.05C941.831 1105.88 947.367 1111.42 954.196 1111.42H1009.17C1016 1111.42 1021.54 1105.88 1021.54 1099.05V1064.3C1021.54 1057.47 1016 1051.93 1009.17 1051.93Z" fill="#407BFF"/>
<path opacity="0.3" d="M1009.17 1051.93H954.196C947.367 1051.93 941.831 1057.47 941.831 1064.3V1099.05C941.831 1105.88 947.367 1111.42 954.196 1111.42H1009.17C1016 1111.42 1021.54 1105.88 1021.54 1099.05V1064.3C1021.54 1057.47 1016 1051.93 1009.17 1051.93Z" fill="white"/>
<path d="M2316.62 1975.22H2827.02C2834.21 1975.22 2840.05 1969.39 2840.05 1962.19V1749.31C2840.05 1742.11 2834.21 1736.28 2827.02 1736.28H2316.62C2309.42 1736.28 2303.59 1742.11 2303.59 1749.31V1962.19C2303.59 1969.39 2309.42 1975.22 2316.62 1975.22Z" fill="#407BFF"/>
<path opacity="0.6" d="M2316.62 1975.22H2827.02C2834.21 1975.22 2840.05 1969.39 2840.05 1962.19V1749.31C2840.05 1742.11 2834.21 1736.28 2827.02 1736.28H2316.62C2309.42 1736.28 2303.59 1742.11 2303.59 1749.31V1962.19C2303.59 1969.39 2309.42 1975.22 2316.62 1975.22Z" fill="white"/>
<path opacity="0.1" d="M2316.7 1736.36H2827.02C2830.47 1736.36 2833.79 1737.73 2836.23 1740.18C2838.68 1742.62 2840.05 1745.94 2840.05 1749.39V1817.65L2574.03 1869.95C2572.41 1870.29 2570.73 1870.29 2569.1 1869.95L2303.34 1817.65V1749.39C2303.33 1747.65 2303.68 1745.93 2304.36 1744.33C2305.03 1742.72 2306.02 1741.27 2307.27 1740.06C2308.52 1738.84 2309.99 1737.89 2311.61 1737.25C2313.23 1736.62 2314.96 1736.31 2316.7 1736.36Z" fill="black"/>
<path d="M2305.59 1648.97H2461.49V1622.82C2461.51 1612.01 2465.82 1601.65 2473.46 1594.01C2481.1 1586.37 2491.46 1582.07 2502.26 1582.05H2641.54C2652.35 1582.07 2662.7 1586.37 2670.34 1594.01C2677.99 1601.65 2682.29 1612.01 2682.31 1622.82V1648.97H2838.13C2839.82 1648.97 2841.49 1649.3 2843.05 1649.95C2844.61 1650.59 2846.03 1651.54 2847.23 1652.74C2848.42 1653.93 2849.37 1655.35 2850.02 1656.91C2850.66 1658.47 2850.99 1660.14 2850.99 1661.83V1790.58C2850.98 1793.55 2849.94 1796.43 2848.05 1798.73C2846.17 1801.03 2843.55 1802.6 2840.63 1803.2L2574.03 1855.58C2572.37 1855.83 2570.68 1855.83 2569.02 1855.58L2302.75 1803.2C2299.84 1802.6 2297.22 1801.03 2295.33 1798.73C2293.45 1796.43 2292.41 1793.55 2292.39 1790.58V1661.83C2292.39 1660.12 2292.73 1658.42 2293.4 1656.83C2294.07 1655.25 2295.05 1653.82 2296.28 1652.62C2297.51 1651.42 2298.96 1650.48 2300.56 1649.85C2302.16 1649.22 2303.87 1648.92 2305.59 1648.97ZM2651.31 1622.82C2651.29 1620.22 2650.26 1617.74 2648.43 1615.9C2646.61 1614.06 2644.13 1613 2641.54 1612.96H2502.26C2499.66 1613 2497.18 1614.05 2495.34 1615.89C2493.5 1617.73 2492.45 1620.22 2492.41 1622.82V1648.97H2651.15L2651.31 1622.82Z" fill="#407BFF"/>
<path opacity="0.6" d="M2305.59 1648.97H2461.49V1622.82C2461.51 1612.01 2465.82 1601.65 2473.46 1594.01C2481.1 1586.37 2491.46 1582.07 2502.26 1582.05H2641.54C2652.35 1582.07 2662.7 1586.37 2670.34 1594.01C2677.99 1601.65 2682.29 1612.01 2682.31 1622.82V1648.97H2838.13C2839.82 1648.97 2841.49 1649.3 2843.05 1649.95C2844.61 1650.59 2846.03 1651.54 2847.23 1652.74C2848.42 1653.93 2849.37 1655.35 2850.02 1656.91C2850.66 1658.47 2850.99 1660.14 2850.99 1661.83V1790.58C2850.98 1793.55 2849.94 1796.43 2848.05 1798.73C2846.17 1801.03 2843.55 1802.6 2840.63 1803.2L2574.03 1855.58C2572.37 1855.83 2570.68 1855.83 2569.02 1855.58L2302.75 1803.2C2299.84 1802.6 2297.22 1801.03 2295.33 1798.73C2293.45 1796.43 2292.41 1793.55 2292.39 1790.58V1661.83C2292.39 1660.12 2292.73 1658.42 2293.4 1656.83C2294.07 1655.25 2295.05 1653.82 2296.28 1652.62C2297.51 1651.42 2298.96 1650.48 2300.56 1649.85C2302.16 1649.22 2303.87 1648.92 2305.59 1648.97ZM2651.31 1622.82C2651.29 1620.22 2650.26 1617.74 2648.43 1615.9C2646.61 1614.06 2644.13 1613 2641.54 1612.96H2502.26C2499.66 1613 2497.18 1614.05 2495.34 1615.89C2493.5 1617.73 2492.45 1620.22 2492.41 1622.82V1648.97H2651.15L2651.31 1622.82Z" fill="white"/>
<path d="M2544.37 1879.9H2599.35C2606.18 1879.9 2611.71 1874.36 2611.71 1867.53V1832.77C2611.71 1825.95 2606.18 1820.41 2599.35 1820.41H2544.37C2537.54 1820.41 2532.01 1825.95 2532.01 1832.77V1867.53C2532.01 1874.36 2537.54 1879.9 2544.37 1879.9Z" fill="#407BFF"/>
<path opacity="0.3" d="M2544.37 1879.9H2599.35C2606.18 1879.9 2611.71 1874.36 2611.71 1867.53V1832.77C2611.71 1825.95 2606.18 1820.41 2599.35 1820.41H2544.37C2537.54 1820.41 2532.01 1825.95 2532.01 1832.77V1867.53C2532.01 1874.36 2537.54 1879.9 2544.37 1879.9Z" fill="white"/>
<path d="M2316.62 438.269L2827.02 438.269C2834.21 438.269 2840.05 432.433 2840.05 425.235V212.354C2840.05 205.156 2834.21 199.32 2827.02 199.32L2316.62 199.32C2309.42 199.32 2303.59 205.156 2303.59 212.354V425.235C2303.59 432.433 2309.42 438.269 2316.62 438.269Z" fill="#407BFF"/>
<path opacity="0.6" d="M2316.62 438.269L2827.02 438.269C2834.21 438.269 2840.05 432.433 2840.05 425.235V212.354C2840.05 205.156 2834.21 199.32 2827.02 199.32L2316.62 199.32C2309.42 199.32 2303.59 205.156 2303.59 212.354V425.235C2303.59 432.433 2309.42 438.269 2316.62 438.269Z" fill="white"/>
<path opacity="0.1" d="M2316.7 199.404H2827.02C2830.47 199.404 2833.79 200.777 2836.23 203.221C2838.68 205.666 2840.05 208.981 2840.05 212.437V280.696L2574.03 332.998C2572.41 333.331 2570.73 333.331 2569.1 332.998L2303.67 280.696V212.437C2303.67 208.981 2305.04 205.666 2307.49 203.221C2309.93 200.777 2313.25 199.404 2316.7 199.404Z" fill="black"/>
<path d="M2305.59 112.012H2461.49V85.8617C2461.51 75.0552 2465.82 64.6976 2473.46 57.0562C2481.1 49.4149 2491.46 45.1122 2502.26 45.0901H2641.54C2646.92 45.0571 2652.25 46.0867 2657.23 48.1199C2662.21 50.153 2666.74 53.1497 2670.56 56.9379C2674.38 60.7261 2677.41 65.2312 2679.49 70.1947C2681.56 75.1582 2682.63 80.4824 2682.64 85.8617V112.012H2838.46C2841.87 112.012 2845.15 113.368 2847.56 115.781C2849.97 118.194 2851.33 121.466 2851.33 124.879V253.627C2851.33 256.603 2850.29 259.488 2848.41 261.788C2846.52 264.088 2843.89 265.663 2840.97 266.243L2574.03 318.293C2572.38 318.629 2570.67 318.629 2569.02 318.293L2302.75 265.908C2299.83 265.329 2297.2 263.754 2295.31 261.454C2293.42 259.153 2292.39 256.269 2292.39 253.293V124.879C2292.39 123.161 2292.73 121.46 2293.4 119.877C2294.07 118.293 2295.05 116.86 2296.28 115.661C2297.51 114.461 2298.96 113.521 2300.56 112.894C2302.16 112.268 2303.87 111.968 2305.59 112.012ZM2651.31 85.8617C2651.31 83.2614 2650.29 80.7664 2648.46 78.9199C2646.63 77.0734 2644.14 76.0251 2641.54 76.003H2502.26C2499.67 76.0245 2497.19 77.0586 2495.35 78.8849C2493.5 80.7111 2492.45 83.1848 2492.41 85.7782V111.929H2651.15L2651.31 85.8617Z" fill="#407BFF"/>
<path opacity="0.6" d="M2305.59 112.012H2461.49V85.8617C2461.51 75.0552 2465.82 64.6976 2473.46 57.0562C2481.1 49.4149 2491.46 45.1122 2502.26 45.0901H2641.54C2646.92 45.0571 2652.25 46.0867 2657.23 48.1199C2662.21 50.153 2666.74 53.1497 2670.56 56.9379C2674.38 60.7261 2677.41 65.2312 2679.49 70.1947C2681.56 75.1582 2682.63 80.4824 2682.64 85.8617V112.012H2838.46C2841.87 112.012 2845.15 113.368 2847.56 115.781C2849.97 118.194 2851.33 121.466 2851.33 124.879V253.627C2851.33 256.603 2850.29 259.488 2848.41 261.788C2846.52 264.088 2843.89 265.663 2840.97 266.243L2574.03 318.293C2572.38 318.629 2570.67 318.629 2569.02 318.293L2302.75 265.908C2299.83 265.329 2297.2 263.754 2295.31 261.454C2293.42 259.153 2292.39 256.269 2292.39 253.293V124.879C2292.39 123.161 2292.73 121.46 2293.4 119.877C2294.07 118.293 2295.05 116.86 2296.28 115.661C2297.51 114.461 2298.96 113.521 2300.56 112.894C2302.16 112.268 2303.87 111.968 2305.59 112.012ZM2651.31 85.8617C2651.31 83.2614 2650.29 80.7664 2648.46 78.9199C2646.63 77.0734 2644.14 76.0251 2641.54 76.003H2502.26C2499.67 76.0245 2497.19 77.0586 2495.35 78.8849C2493.5 80.7111 2492.45 83.1848 2492.41 85.7782V111.929H2651.15L2651.31 85.8617Z" fill="white"/>
<path d="M2544.37 342.94H2599.35C2606.18 342.94 2611.71 337.404 2611.71 330.575V295.819C2611.71 288.99 2606.18 283.453 2599.35 283.453H2544.37C2537.54 283.453 2532.01 288.99 2532.01 295.819V330.575C2532.01 337.404 2537.54 342.94 2544.37 342.94Z" fill="#407BFF"/>
<path opacity="0.3" d="M2544.37 342.94H2599.35C2606.18 342.94 2611.71 337.404 2611.71 330.575V295.819C2611.71 288.99 2606.18 283.453 2599.35 283.453H2544.37C2537.54 283.453 2532.01 288.99 2532.01 295.819V330.575C2532.01 337.404 2537.54 342.94 2544.37 342.94Z" fill="white"/>
<path d="M2383.46 1206.83H2827.1C2830.56 1206.81 2833.88 1205.42 2836.32 1202.96C2838.76 1200.5 2840.13 1197.18 2840.13 1193.71V980.915C2840.12 979.161 2839.75 977.427 2839.05 975.819C2838.74 975.053 2838.35 974.324 2837.88 973.647C2837.41 972.932 2836.85 972.285 2836.21 971.725C2835.01 970.506 2833.58 969.538 2832 968.878C2830.42 968.218 2828.73 967.879 2827.02 967.882H2406.94C2410.43 997.04 2411.58 1026.43 2410.36 1055.77C2410.36 1060.54 2410.36 1065.3 2409.61 1069.98C2409.11 1078.75 2408.36 1087.61 2407.35 1096.38C2403.13 1133.91 2395.13 1170.91 2383.46 1206.83Z" fill="#407BFF"/>
<path opacity="0.6" d="M2383.46 1206.83H2827.1C2830.56 1206.81 2833.88 1205.42 2836.32 1202.96C2838.76 1200.5 2840.13 1197.18 2840.13 1193.71V980.915C2840.12 979.161 2839.75 977.427 2839.05 975.819C2838.74 975.053 2838.35 974.324 2837.88 973.647C2837.41 972.932 2836.85 972.285 2836.21 971.725C2835.01 970.506 2833.58 969.538 2832 968.878C2830.42 968.218 2828.73 967.879 2827.02 967.882H2406.94C2410.43 997.04 2411.58 1026.43 2410.36 1055.77C2410.36 1060.54 2410.36 1065.3 2409.61 1069.98C2409.11 1078.75 2408.36 1087.61 2407.35 1096.38C2403.13 1133.91 2395.13 1170.91 2383.46 1206.83Z" fill="white"/>
<path opacity="0.1" d="M2406.94 967.882C2410.43 997.04 2411.58 1026.43 2410.36 1055.77C2410.36 1060.54 2410.36 1065.3 2409.61 1069.98L2532.26 1094.04L2569.69 1101.39C2571.3 1101.81 2573 1101.81 2574.62 1101.39L2611.96 1094.12L2840.3 1049.17V980.832C2840.27 979.114 2839.93 977.415 2839.3 975.819C2838.99 975.053 2838.6 974.324 2838.13 973.647C2837.66 972.932 2837.1 972.285 2836.46 971.725C2835.26 970.506 2833.83 969.538 2832.25 968.878C2830.67 968.218 2828.98 967.879 2827.27 967.882H2406.94Z" fill="black"/>
<path d="M2389.39 880.49H2461.49V854.34C2461.51 843.533 2465.82 833.175 2473.46 825.534C2481.1 817.893 2491.46 813.59 2502.26 813.568H2641.46C2652.28 813.568 2662.66 817.861 2670.31 825.505C2677.97 833.148 2682.29 843.519 2682.31 854.34V880.49H2838.13C2841.54 880.49 2844.81 881.846 2847.23 884.259C2849.64 886.672 2850.99 889.944 2850.99 893.357V1022.02C2851 1025.01 2849.97 1027.9 2848.08 1030.22C2846.19 1032.53 2843.56 1034.12 2840.63 1034.72H2840.05L2611.71 1079.75L2574.03 1086.94C2572.41 1087.27 2570.73 1087.27 2569.1 1086.94L2531.67 1079.59L2409.94 1055.61C2412.31 996.387 2405.26 937.165 2389.06 880.156L2389.39 880.49ZM2651.31 854.34C2651.27 851.746 2650.22 849.272 2648.37 847.446C2646.53 845.62 2644.05 844.586 2641.46 844.564H2502.26C2499.68 844.586 2497.2 845.623 2495.38 847.452C2493.55 849.28 2492.51 851.754 2492.49 854.34V880.49H2651.23L2651.31 854.34Z" fill="#407BFF"/>
<path opacity="0.6" d="M2389.39 880.49H2461.49V854.34C2461.51 843.533 2465.82 833.175 2473.46 825.534C2481.1 817.893 2491.46 813.59 2502.26 813.568H2641.46C2652.28 813.568 2662.66 817.861 2670.31 825.505C2677.97 833.148 2682.29 843.519 2682.31 854.34V880.49H2838.13C2841.54 880.49 2844.81 881.846 2847.23 884.259C2849.64 886.672 2850.99 889.944 2850.99 893.357V1022.02C2851 1025.01 2849.97 1027.9 2848.08 1030.22C2846.19 1032.53 2843.56 1034.12 2840.63 1034.72H2840.05L2611.71 1079.75L2574.03 1086.94C2572.41 1087.27 2570.73 1087.27 2569.1 1086.94L2531.67 1079.59L2409.94 1055.61C2412.31 996.387 2405.26 937.165 2389.06 880.156L2389.39 880.49ZM2651.31 854.34C2651.27 851.746 2650.22 849.272 2648.37 847.446C2646.53 845.62 2644.05 844.586 2641.46 844.564H2502.26C2499.68 844.586 2497.2 845.623 2495.38 847.452C2493.55 849.28 2492.51 851.754 2492.49 854.34V880.49H2651.23L2651.31 854.34Z" fill="white"/>
<path d="M2544.37 1111.5H2599.35C2606.18 1111.5 2611.71 1105.96 2611.71 1099.14V1064.38C2611.71 1057.55 2606.18 1052.01 2599.35 1052.01H2544.37C2537.54 1052.01 2532.01 1057.55 2532.01 1064.38V1099.14C2532.01 1105.96 2537.54 1111.5 2544.37 1111.5Z" fill="#407BFF"/>
<path opacity="0.3" d="M2544.37 1111.5H2599.35C2606.18 1111.5 2611.71 1105.96 2611.71 1099.14V1064.38C2611.71 1057.55 2606.18 1052.01 2599.35 1052.01H2544.37C2537.54 1052.01 2532.01 1057.55 2532.01 1064.38V1099.14C2532.01 1105.96 2537.54 1111.5 2544.37 1111.5Z" fill="white"/>
<path d="M2170.49 915.998H1437.11C1426.77 915.998 1418.39 924.377 1418.39 934.713V1240.58C1418.39 1250.92 1426.77 1259.3 1437.11 1259.3H2170.49C2180.83 1259.3 2189.21 1250.92 2189.21 1240.58V934.713C2189.21 924.377 2180.83 915.998 2170.49 915.998Z" fill="#407BFF"/>
<path d="M1903.81 861.358H1703.71C1688.54 861.336 1673.99 855.299 1663.26 844.571C1652.54 833.843 1646.5 819.299 1646.48 804.127V752.745C1646.5 737.573 1652.54 723.029 1663.26 712.301C1673.99 701.573 1688.54 695.536 1703.71 695.514H1903.81C1918.99 695.514 1933.54 701.544 1944.28 712.277C1955.01 723.009 1961.04 737.566 1961.04 752.745V803.876C1961.07 811.413 1959.61 818.882 1956.75 825.855C1953.89 832.827 1949.68 839.166 1944.36 844.507C1939.05 849.848 1932.73 854.086 1925.77 856.977C1918.81 859.869 1911.34 861.358 1903.81 861.358ZM1703.71 737.539C1699.68 737.582 1695.83 739.195 1692.97 742.035C1690.12 744.875 1688.48 748.718 1688.42 752.745V803.876C1688.42 807.976 1690.05 811.907 1692.95 814.806C1695.84 817.704 1699.78 819.333 1703.88 819.333H1903.97C1908.07 819.333 1912 817.704 1914.9 814.806C1917.8 811.907 1919.43 807.976 1919.43 803.876V752.745C1919.43 748.646 1917.8 744.714 1914.9 741.815C1912 738.917 1908.07 737.288 1903.97 737.288L1703.71 737.539Z" fill="#407BFF"/>
<path opacity="0.2" d="M2170.41 915.998H1437.19C1434.72 915.987 1432.28 916.463 1430 917.399C1427.72 918.334 1425.65 919.711 1423.9 921.45C1422.16 923.189 1420.77 925.256 1419.82 927.532C1418.88 929.808 1418.39 932.248 1418.39 934.713V1032.88L1800.21 1108.08C1802.55 1108.58 1804.97 1108.58 1807.31 1108.08L2189.21 1032.88V934.713C2189.21 932.248 2188.72 929.808 2187.78 927.532C2186.83 925.256 2185.44 923.189 2183.7 921.45C2181.95 919.711 2179.88 918.334 2177.6 917.399C2175.32 916.463 2172.87 915.987 2170.41 915.998Z" fill="black"/>
<path d="M2189.71 1011.74L1807.14 1086.94C1804.76 1087.36 1802.33 1087.36 1799.96 1086.94L1417.39 1011.74C1413.19 1010.91 1409.4 1008.66 1406.67 1005.35C1403.95 1002.05 1402.45 997.899 1402.43 993.615V808.973C1402.43 806.548 1402.91 804.147 1403.84 801.907C1404.77 799.667 1406.13 797.631 1407.84 795.917C1409.56 794.202 1411.59 792.842 1413.83 791.914C1416.07 790.986 1418.47 790.509 1420.9 790.509H2186.37C2188.79 790.509 2191.19 790.986 2193.43 791.914C2195.67 792.842 2197.71 794.202 2199.42 795.917C2201.14 797.631 2202.5 799.667 2203.43 801.907C2204.35 804.147 2204.83 806.548 2204.83 808.973V993.949C2204.75 998.204 2203.2 1002.3 2200.44 1005.54C2197.69 1008.78 2193.89 1010.98 2189.71 1011.74Z" fill="#407BFF"/>
<path d="M1843.4 1036.89H1764.28C1754.5 1036.89 1746.57 1044.82 1746.57 1054.6V1104.65C1746.57 1114.43 1754.5 1122.36 1764.28 1122.36H1843.4C1853.18 1122.36 1861.11 1114.43 1861.11 1104.65V1054.6C1861.11 1044.82 1853.18 1036.89 1843.4 1036.89Z" fill="#407BFF"/>
<path opacity="0.4" d="M1843.4 1036.89H1764.28C1754.5 1036.89 1746.57 1044.82 1746.57 1054.6V1104.65C1746.57 1114.43 1754.5 1122.36 1764.28 1122.36H1843.4C1853.18 1122.36 1861.11 1114.43 1861.11 1104.65V1054.6C1861.11 1044.82 1853.18 1036.89 1843.4 1036.89Z" fill="black"/>
<path d="M3183.1 1105.4C3192.71 1125.2 3199.81 1143.92 3208.16 1163.47C3216.52 1183.02 3222.62 1202.49 3229.13 1222.45C3242.35 1262.94 3252.1 1304.47 3258.29 1346.61C3259.13 1351.87 3259.55 1357.55 3260.13 1363.32L3260.97 1371.67C3260.97 1373.17 3260.97 1374.26 3260.97 1376.02V1381.45C3261.25 1394.11 3260.15 1406.78 3257.71 1419.21C3253.57 1440.82 3247.67 1462.05 3240.08 1482.71C3225.81 1521.97 3208.03 1559.86 3186.94 1595.91L3144.5 1577.95C3153.94 1539.85 3163.47 1501 3170.65 1463.49C3174.16 1445.52 3176.65 1427.36 3178.09 1409.1C3178.58 1401.64 3178.41 1394.14 3177.58 1386.71L3176.67 1381.45L3175.5 1374.76C3174.58 1370.33 3173.99 1365.91 3172.91 1361.39C3164.58 1324.51 3153.8 1288.23 3140.66 1252.78C3134.31 1234.65 3127.29 1216.61 3120.27 1198.48C3113.25 1180.35 3105.48 1162.13 3098.3 1145.42L3183.1 1105.4Z" fill="#7F3E3B"/>
<path d="M3146.34 1566.84L3113.75 1598.59L3184.85 1632.01C3184.85 1632.01 3202.06 1601.93 3190.2 1574.69L3146.34 1566.84Z" fill="#7F3E3B"/>
<path d="M3087.52 1645.96L3147.51 1670.52L3184.85 1631.67L3113.75 1598.59L3087.52 1645.96Z" fill="#7F3E3B"/>
<path opacity="0.2" d="M1870.64 1611.7C1988.86 1598.46 2100.51 1550.47 2191.45 1473.78C2282.4 1397.09 2348.57 1295.16 2381.59 1180.87C2414.61 1066.58 2413.01 945.069 2376.97 831.693C2340.94 718.318 2272.1 618.172 2179.16 543.917C2086.21 469.662 1973.34 424.633 1854.81 414.523C1736.27 404.413 1617.4 429.676 1513.23 487.117C1409.05 544.559 1324.24 631.6 1269.53 737.236C1214.82 842.871 1192.65 962.358 1205.84 1080.59C1214.6 1159.12 1238.75 1235.16 1276.91 1304.35C1315.06 1373.55 1366.47 1434.55 1428.21 1483.87C1489.94 1533.19 1560.79 1569.87 1636.71 1591.8C1712.62 1613.74 1792.11 1620.5 1870.64 1611.7Z" fill="#407BFF"/>
<path opacity="0.1" d="M1432.93 540.031L2347.78 1270.74C2351.71 1262.39 2355.39 1254.03 2358.98 1245.68C2381.91 1191.13 2396.55 1133.45 2402.42 1074.57L1612.22 443.616C1547.37 465.242 1486.73 497.855 1432.93 540.031Z" fill="white"/>
<path opacity="0.1" d="M1221.89 860.271L2081.93 1547.46C2163.65 1504.84 2234.49 1444.01 2288.96 1369.67L1349.71 619.067C1289.18 688.61 1245.45 771.137 1221.89 860.271Z" fill="white"/>
<path d="M3285.61 1689.49C3284.51 1674.28 3279.54 1659.61 3271.16 1646.88C3265.07 1637.51 3256.55 1629.97 3246.51 1625.07L3189.45 1597.08C3151.52 1578.29 3113.34 1559.99 3075.15 1541.69C3036.97 1523.39 2998.54 1505.43 2960.28 1487.3C2922.01 1469.17 2883.41 1451.54 2844.73 1434.25C2767.53 1399.27 2689.83 1365.24 2611.63 1332.15C2572.53 1315.44 2533.34 1299.4 2493.83 1283.69C2482.29 1279.15 2472.91 1270.39 2467.59 1259.19C2462.27 1247.99 2461.4 1235.19 2465.17 1223.37C2518.07 1056.59 2506.02 875.991 2431.44 717.715C2356.86 559.44 2225.26 435.172 2062.97 369.788C1900.68 304.405 1719.68 302.73 1556.21 365.1C1392.74 427.47 1258.85 549.281 1181.36 706.15C1103.87 863.018 1088.48 1043.37 1138.29 1211.1C1188.09 1378.82 1299.4 1521.55 1449.95 1610.71C1600.49 1699.87 1779.16 1728.88 1950.18 1691.93C2121.2 1654.98 2271.95 1554.8 2372.26 1411.44C2379.36 1401.25 2390.07 1394.14 2402.22 1391.55C2414.36 1388.96 2427.04 1391.08 2437.68 1397.49C2474.22 1419.21 2510.92 1440.57 2547.8 1461.57C2621.49 1503.57 2695.73 1544.5 2770.54 1584.38C2807.88 1604.6 2845.73 1624.07 2882.91 1643.87C2920.09 1663.67 2958.1 1682.97 2995.95 1702.36C3033.8 1721.74 3071.14 1740.7 3109.49 1759.42L3166.39 1787.66C3176.39 1792.68 3187.57 1794.88 3198.72 1794.01C3213.91 1792.93 3228.55 1787.95 3241.25 1779.55C3256.39 1770.26 3268.59 1756.86 3276.44 1740.93C3284.29 1724.99 3287.47 1707.16 3285.61 1689.49ZM1561.43 1504.68C1464.3 1456.75 1383.57 1381.1 1329.44 1287.29C1275.32 1193.48 1250.22 1085.73 1257.34 977.659C1264.45 869.587 1303.46 766.054 1369.42 680.151C1435.38 594.248 1525.33 529.834 1627.9 495.056C1730.47 460.278 1841.05 456.698 1945.65 484.768C2050.26 512.838 2144.19 571.298 2215.57 652.755C2286.94 734.211 2332.56 835.005 2346.65 942.39C2360.75 1049.77 2342.68 1158.93 2294.73 1256.04C2262.91 1320.52 2218.7 1378.1 2164.62 1425.49C2110.55 1472.88 2047.67 1509.15 1979.58 1532.24C1911.48 1555.33 1839.51 1564.78 1767.76 1560.05C1696.01 1555.32 1625.9 1536.51 1561.43 1504.68Z" fill="#407BFF"/>
<path d="M2868.04 847.154C2868.04 852.083 2865.45 856.094 2862.19 856.094C2858.93 856.094 2856.34 852.083 2856.34 847.154C2856.34 842.225 2858.93 838.131 2862.19 838.131C2865.45 838.131 2868.04 842.141 2868.04 847.154Z" fill="#263238"/>
<path d="M2865.87 856.094C2859.99 871.228 2852.07 885.482 2842.31 898.453C2845.68 900.871 2849.55 902.52 2853.64 903.285C2857.72 904.05 2861.92 903.912 2865.95 902.881L2865.87 856.094Z" fill="#630F0F"/>
<path d="M2885.58 819.583C2886.19 819.566 2886.78 819.361 2887.26 818.996C2887.75 818.631 2888.1 818.124 2888.29 817.545C2888.47 816.967 2888.47 816.345 2888.29 815.767C2888.1 815.19 2887.74 814.684 2887.25 814.32C2883.56 811.553 2879.27 809.701 2874.72 808.917C2870.18 808.132 2865.51 808.438 2861.1 809.808C2860.71 809.916 2860.34 810.105 2860.02 810.363C2859.71 810.622 2859.45 810.943 2859.26 811.308C2859.08 811.673 2858.97 812.073 2858.95 812.481C2858.93 812.889 2859 813.298 2859.14 813.679C2859.29 814.061 2859.52 814.407 2859.8 814.697C2860.09 814.986 2860.44 815.211 2860.82 815.358C2861.2 815.505 2861.61 815.571 2862.02 815.55C2862.43 815.529 2862.83 815.423 2863.19 815.239C2866.7 814.196 2870.4 813.992 2874 814.645C2877.6 815.299 2881 816.79 2883.91 818.998C2884.38 819.384 2884.98 819.591 2885.58 819.583Z" fill="#263238"/>
<path d="M3037.06 884.417C3028.2 929.366 3019.43 1011.66 3050.84 1041.57C3050.84 1041.57 3038.56 1087.11 2955.18 1087.11C2863.28 1087.11 2911.32 1041.57 2911.32 1041.57C2961.45 1029.62 2960.11 992.445 2951.34 958.023L3037.06 884.417Z" fill="#7F3E3B"/>
<path d="M3066.97 1013.42C3073.9 1015.67 3064.88 1056.94 3064.88 1056.94C3064.88 1056.94 3053.43 1085.77 2911.23 1075.74C2900.29 1074.91 2904.47 1035.31 2914.91 1029.54C2948.58 1011.16 3044.58 1006.06 3066.97 1013.42Z" fill="#263238"/>
<path d="M3355.79 2739.61C3363.48 2738.86 3374.68 2724.74 3377.85 2719.56C3377.99 2719.33 3378.07 2719.07 3378.07 2718.8C3378.07 2718.54 3377.99 2718.28 3377.85 2718.05C3377.71 2717.81 3377.5 2717.61 3377.25 2717.49C3376.99 2717.37 3376.71 2717.33 3376.43 2717.38C3375.59 2717.38 3355.38 2721.23 3350.45 2729.08C3349.93 2729.9 3349.58 2730.83 3349.44 2731.79C3349.3 2732.76 3349.35 2733.74 3349.61 2734.68C3350.7 2738.35 3352.79 2739.36 3354.46 2739.61H3355.79ZM3373.42 2720.98C3367.99 2728.5 3359.05 2737.27 3354.79 2736.68C3354.37 2736.68 3353.12 2736.68 3352.37 2733.84C3352.2 2733.3 3352.16 2732.72 3352.25 2732.16C3352.34 2731.59 3352.55 2731.06 3352.87 2730.58C3358.63 2725.43 3365.78 2722.09 3373.42 2720.98Z" fill="#407BFF"/>
<path d="M3372.59 2720.98C3374.08 2720.85 3375.56 2720.6 3377.01 2720.22C3377.26 2720.15 3377.48 2720 3377.66 2719.81C3377.83 2719.62 3377.96 2719.39 3378.02 2719.14C3378.07 2718.88 3378.05 2718.61 3377.96 2718.36C3377.87 2718.11 3377.72 2717.89 3377.52 2717.72C3377.02 2717.22 3363.48 2705.69 3354.29 2706.61C3353.18 2706.68 3352.11 2706.98 3351.13 2707.5C3350.15 2708.02 3349.29 2708.74 3348.61 2709.61C3347.82 2710.37 3347.33 2711.39 3347.22 2712.47C3347.12 2713.56 3347.4 2714.65 3348.02 2715.55C3351.03 2720.31 3364.23 2721.81 3372.59 2720.98ZM3373.26 2718.05C3364.9 2719.06 3352.7 2717.38 3350.36 2713.96C3350.36 2713.96 3349.69 2712.87 3350.86 2711.37C3351.33 2710.82 3351.91 2710.36 3352.55 2710.03C3353.2 2709.7 3353.9 2709.5 3354.62 2709.45C3361.55 2710.4 3368.04 2713.4 3373.26 2718.05Z" fill="#407BFF"/>
<path d="M2781.4 2959.34C2787.73 2959.32 2794.04 2958.76 2800.28 2957.67C2800.56 2957.59 2800.82 2957.44 2801.02 2957.24C2801.23 2957.03 2801.37 2956.78 2801.45 2956.5C2801.5 2956.2 2801.46 2955.89 2801.32 2955.62C2801.19 2955.35 2800.97 2955.13 2800.7 2955C2799.78 2954.41 2778.39 2942.21 2768.11 2944.97C2766.19 2945.46 2764.54 2946.69 2763.52 2948.39C2762.86 2949.32 2762.51 2950.43 2762.51 2951.57C2762.51 2952.71 2762.86 2953.82 2763.52 2954.74C2766.19 2958.42 2773.55 2959.34 2781.4 2959.34ZM2795.6 2955.5C2784.16 2957.08 2768.62 2957 2765.78 2953.07C2765.36 2952.57 2765.02 2951.65 2765.78 2949.82C2766.08 2949.3 2766.49 2948.86 2766.98 2948.51C2767.47 2948.16 2768.03 2947.93 2768.62 2947.81C2775.22 2946.06 2788.08 2951.65 2795.6 2955.5Z" fill="#407BFF"/>
<path d="M2799.61 2957.67C2799.91 2957.76 2800.23 2957.76 2800.53 2957.67C2800.72 2957.51 2800.88 2957.3 2800.98 2957.07C2801.08 2956.84 2801.13 2956.58 2801.12 2956.33C2801.12 2955.66 2799.36 2939.12 2791.59 2932.69C2790.44 2931.73 2789.11 2931.01 2787.67 2930.58C2786.23 2930.15 2784.73 2930.01 2783.24 2930.18C2779.23 2930.6 2778.14 2932.6 2777.81 2934.28C2776.72 2941.21 2791.42 2954.49 2798.78 2957.84L2799.61 2957.67ZM2784.66 2932.6C2786.52 2932.66 2788.32 2933.33 2789.75 2934.53C2794.39 2939.83 2797.31 2946.41 2798.11 2953.41C2790.51 2948.9 2780.56 2938.45 2781.4 2934.28C2781.4 2934.28 2781.4 2932.94 2784.24 2932.69L2784.66 2932.6Z" fill="#407BFF"/>
<path d="M2867.45 2956.25H2806.13L2799.95 2814.05H2861.35L2867.45 2956.25Z" fill="#7F3E3B"/>
<path d="M3431.49 2674.61L3383.62 2712.96L3261.8 2628.41L3309.76 2590.06L3431.49 2674.61Z" fill="#7F3E3B"/>
<path d="M3374.84 2710.53L3423.8 2661.99C3424.68 2661.15 3425.82 2660.62 3427.03 2660.5C3428.24 2660.38 3429.46 2660.67 3430.49 2661.32L3477.52 2691.57C3478.66 2692.3 3479.62 2693.29 3480.32 2694.46C3481.03 2695.62 3481.45 2696.93 3481.57 2698.28C3481.7 2699.63 3481.51 2701 3481.02 2702.26C3480.54 2703.53 3479.77 2704.68 3478.78 2705.6C3461.4 2722.31 3452.12 2729.5 3430.57 2750.8C3417.37 2764 3385.04 2803.27 3366.74 2821.4C3348.44 2839.53 3328.06 2823.82 3333.99 2814.72C3360.31 2774.11 3369.25 2740.61 3370.41 2720.22C3370.67 2716.56 3372.24 2713.12 3374.84 2710.53Z" fill="#263238"/>
<path d="M2806.46 2949.15H2873.3C2874.51 2949.14 2875.69 2949.55 2876.64 2950.31C2877.58 2951.07 2878.23 2952.14 2878.48 2953.32L2890.6 3007.88C2890.9 3009.19 2890.9 3010.56 2890.6 3011.87C2890.3 3013.18 2889.71 3014.41 2888.86 3015.45C2888.01 3016.5 2886.94 3017.34 2885.72 3017.91C2884.5 3018.48 2883.17 3018.77 2881.82 3018.74C2857.59 3018.74 2822.67 3016.99 2792.26 3016.99C2756.75 3016.99 2726.09 3018.91 2684.4 3018.91C2659.33 3018.91 2652.23 2993.43 2662.76 2991.09C2710.8 2980.65 2749.98 2979.48 2791.42 2953.91C2795.9 2950.95 2801.1 2949.3 2806.46 2949.15Z" fill="#263238"/>
<path d="M3171.82 1059.95C3225.04 1085.02 3247.01 1256.79 3247.01 1256.79L3124.62 1304.83C3105.62 1258.32 3090.23 1210.42 3078.58 1161.55C3061.45 1084.01 3117.1 1033.89 3171.82 1059.95Z" fill="#407BFF"/>
<path opacity="0.3" d="M3171.82 1059.95C3225.04 1085.02 3247.01 1256.79 3247.01 1256.79L3124.62 1304.83C3105.62 1258.32 3090.23 1210.42 3078.58 1161.55C3061.45 1084.01 3117.1 1033.89 3171.82 1059.95Z" fill="white"/>
<path opacity="0.2" d="M3092.53 1110.33C3088.36 1108.31 3083.99 1106.71 3079.5 1105.57C3074.62 1123.89 3074.44 1143.14 3079 1161.55C3090.59 1210.42 3105.96 1258.33 3124.95 1304.83L3165.3 1289.04C3157.87 1244.18 3135.06 1130.72 3092.53 1110.33Z" fill="black"/>
<path d="M2816.91 1058.61C2816.91 1058.61 2751.57 1132.39 2813.23 1589.15H3141.58C3143.83 1539.02 3112.17 1292.88 3160.79 1055.44C3124.48 1048.46 3087.75 1043.82 3050.84 1041.57C3004.37 1038.9 2957.79 1038.9 2911.32 1041.57C2879.45 1044.78 2847.88 1050.48 2816.91 1058.61Z" fill="#407BFF"/>
<path opacity="0.3" d="M2816.91 1058.61C2816.91 1058.61 2751.57 1132.39 2813.23 1589.15H3141.58C3143.83 1539.02 3112.17 1292.88 3160.79 1055.44C3124.48 1048.46 3087.75 1043.82 3050.84 1041.57C3004.37 1038.9 2957.79 1038.9 2911.32 1041.57C2879.45 1044.78 2847.88 1050.48 2816.91 1058.61Z" fill="white"/>
<path opacity="0.2" d="M2883.16 1156.53C2868.29 1111.92 2832.53 1097.63 2796.1 1124.12C2788.75 1167.4 2783.57 1237.16 2789.5 1347.78L2853.58 1347.19C2853.58 1347.19 2905.13 1222.95 2883.16 1156.53Z" fill="black"/>
<path d="M2871.13 1138.24C2868.46 1160.63 2864.78 1180.93 2860.69 1202.07C2856.59 1223.21 2851.83 1243.84 2846.4 1264.65C2835.68 1307.16 2821.08 1348.61 2802.79 1388.46C2798.02 1398.74 2792.51 1408.85 2786.66 1418.96C2783.65 1424.06 2780.65 1429.15 2777.22 1434.16C2772.78 1441.13 2767.54 1447.55 2761.6 1453.3C2750.07 1463.99 2736.4 1472.1 2721.49 1477.11C2709.39 1481.35 2696.87 1484.29 2684.15 1485.88C2661.44 1488.7 2638.49 1488.98 2615.72 1486.72C2604.58 1485.83 2593.72 1484.41 2583.14 1482.46C2572.28 1480.53 2562 1478.53 2550.81 1475.6L2556.24 1429.82C2594.37 1428.22 2632.23 1422.62 2669.19 1413.11C2676.71 1410.89 2684.01 1407.98 2691 1404.42C2695.59 1402.32 2699.6 1399.14 2702.7 1395.15C2702.03 1395.73 2708.13 1385.62 2711.72 1378.44C2715.31 1371.25 2719.32 1361.73 2722.75 1353.37C2729.77 1336.16 2735.78 1317.95 2741.3 1299.32C2746.81 1280.69 2751.66 1261.72 2756.17 1242.5C2760.68 1223.29 2764.52 1203.91 2768.7 1184.02C2772.88 1164.14 2775.88 1144.42 2778.89 1125.96L2871.13 1138.24Z" fill="#7F3E3B"/>
<path d="M2898.95 1103.65C2916.25 1159.71 2846.07 1326.81 2846.07 1326.81L2698.27 1289.63C2707.32 1236.81 2722.54 1185.24 2743.63 1135.98C2791.26 1031.71 2878.15 1036.06 2898.95 1103.65Z" fill="#407BFF"/>
<path opacity="0.3" d="M2898.95 1103.65C2916.25 1159.71 2846.07 1326.81 2846.07 1326.81L2698.27 1289.63C2707.32 1236.81 2722.54 1185.24 2743.63 1135.98C2791.26 1031.71 2878.15 1036.06 2898.95 1103.65Z" fill="white"/>
<path d="M2558.32 1430.07L2488.81 1428.32L2522.23 1500.59C2522.23 1500.59 2550.47 1504.35 2573.7 1466.16L2598.18 1437.01L2570.02 1431.32C2566.17 1430.57 2562.25 1430.15 2558.32 1430.07Z" fill="#7F3E3B"/>
<path d="M2444.95 1441.77L2484.8 1501.67L2522.32 1500.59L2488.81 1428.32L2444.95 1441.77Z" fill="#7F3E3B"/>
<path opacity="0.2" d="M2800.03 2814.13L2803.12 2887.4H2864.53L2861.35 2814.13H2800.03Z" fill="black"/>
<path opacity="0.2" d="M3309.76 2590.06L3261.8 2628.41L3324.63 2672.02L3372.59 2633.67L3309.76 2590.06Z" fill="black"/>
<path d="M3033.55 836.293C3029.87 897.116 3030.87 932.875 3000.13 964.122C2954.01 1011.08 2878.9 983.338 2864.36 922.348C2851.24 867.707 2859.52 777.475 2919 753.162C2932.12 747.736 2946.41 745.763 2960.51 747.431C2974.6 749.1 2988.04 754.353 2999.53 762.691C3011.01 771.029 3020.17 782.172 3026.13 795.058C3032.09 807.943 3034.64 822.14 3033.55 836.293Z" fill="#7F3E3B"/>
<path d="M3082.67 779.814C3082.67 779.814 3114.67 789.339 3104.65 825.849C3089.53 881.326 3053.93 945.156 3007.98 949.167C2950.75 954.263 2924.93 895.195 2917.42 834.121C2883.16 810.644 2857.76 788.671 2865.95 764.274C2878.48 726.678 2923.93 694.261 2996.29 702.616C3068.64 710.971 3104.65 757.758 3082.67 779.814Z" fill="#263238"/>
<path d="M2952.25 846.653C2951.14 861.738 2945.1 876.037 2935.04 887.341C2921.68 902.045 2907.64 892.855 2905.3 874.976C2903.21 858.767 2907.56 831.614 2923.93 823.51C2940.31 815.406 2953.34 828.439 2952.25 846.653Z" fill="#7F3E3B"/>
<path d="M2929.7 1589.15C2929.7 1589.15 2908.98 2002.88 2949.33 2178.16C3013.25 2455.71 3294.22 2678.12 3294.22 2678.12L3384.45 2605.85C3384.45 2605.85 3153.27 2433.82 3132.47 2202.73C3113.84 1995.19 3141.41 1756.83 3141.41 1589.15H2929.7Z" fill="#407BFF"/>
<path opacity="0.2" d="M2929.7 1589.15C2929.7 1589.15 2908.98 2002.88 2949.33 2178.16C3013.25 2455.71 3294.22 2678.12 3294.22 2678.12L3384.45 2605.85C3384.45 2605.85 3153.27 2433.82 3132.47 2202.73C3113.84 1995.19 3141.41 1756.83 3141.41 1589.15H2929.7Z" fill="black"/>
<path opacity="0.2" d="M2960.53 1711.71C2952.17 1695.59 2935.88 1743.63 2924.52 1805.29C2924.52 1890.34 2926.02 1987.09 2933.46 2069.05C2990.19 1964.2 2978.16 1745.13 2960.53 1711.71Z" fill="black"/>
<path d="M3253.28 2660.32L3287.53 2686.89L3391.72 2602.42L3360.47 2574.1L3253.28 2660.32Z" fill="#2C6BDB"/>
<path opacity="0.4" d="M3253.28 2660.32L3287.53 2686.89L3391.72 2602.42L3360.47 2574.1L3253.28 2660.32Z" fill="#FAFAFA"/>
<path d="M2813.23 1589.15C2813.23 1589.15 2720.83 1980.99 2714.31 2168.14C2707.04 2378.09 2780.23 2873.2 2780.23 2873.2H2884.25C2884.25 2873.2 2897.03 2374.25 2901.71 2183.01C2906.72 1974.56 3029.04 1589.15 3029.04 1589.15H2813.23Z" fill="#407BFF"/>
<path opacity="0.2" d="M2813.23 1589.15C2813.23 1589.15 2720.83 1980.99 2714.31 2168.14C2707.04 2378.09 2780.23 2873.2 2780.23 2873.2H2884.25C2884.25 2873.2 2897.03 2374.25 2901.71 2183.01C2906.72 1974.56 3029.04 1589.15 3029.04 1589.15H2813.23Z" fill="black"/>
<path d="M2760.26 2831.76C2759.76 2831.76 2766.11 2874.96 2766.11 2874.96H2892.6L2896.03 2836.44L2760.26 2831.76Z" fill="#2C6BDB"/>
<path opacity="0.4" d="M2760.26 2831.76C2759.76 2831.76 2766.11 2874.96 2766.11 2874.96H2892.6L2896.03 2836.44L2760.26 2831.76Z" fill="#FAFAFA"/>
</svg>
